<svg xmlns="http://www.w3.org/2000/svg" viewBox="0 0 190.23 135.16"><defs><style>.cls-1{font-size:25px;font-family:VNChance;}.cls-1,.cls-4{fill:#ca1856;}.cls-2{letter-spacing:-0.02em;}.cls-3{fill:#523b34;}</style></defs><title>LOGO</title><g id="Layer_2" data-name="Layer 2"><g id="OBJECTS"><text class="cls-1" transform="translate(35.41 57.09) rotate(0.12)">WEDDING<tspan x="26.57" y="30">Ph</tspan><tspan class="cls-2" x="54.57" y="30">o</tspan><tspan x="64.72" y="30">tos</tspan></text><path class="cls-3" d="M132.7,13.51c3-.54,6.39-1.21,6.74-4.75,0-.28-.27-.41-.5-.38-3.23.51-7,1.79-8.69,4.81a12.17,12.17,0,0,0-3,.31A13.08,13.08,0,0,0,122.15,16a7.25,7.25,0,0,0-2.09-6.95c-2.38-2.24-5.41-.79-6.42,2-.78,2.13,1.53,5.64,3.77,3.6,1.68-1.53.79-4-1.57-3-.47.19-.27,1,.21.76.87-.36,1.7-.23,1.39.88a1.53,1.53,0,0,1-2.29.82c-2.34-1.2-.14-4.7,1.53-5.28,1.9-.65,3.56,1.38,4.28,2.84a5.3,5.3,0,0,1-.18,5.35.31.31,0,0,0-.06.28,20.73,20.73,0,0,0-2.4,2.76c-1.15,1.6-2.23,3.24-3.34,4.87a22.68,22.68,0,0,0-1.72-7.7.4.4,0,0,0-.68,0,7.54,7.54,0,0,0,1.48,9c-.76,1.08-1.52,2.15-2.34,3.18-.11.13-.23.28-.34.43l0,0a.36.36,0,0,0-.1.15c-1.67,2.06-4.22,4.92-6.95,4.65a1.48,1.48,0,0,0-1.52-1.56,1.58,1.58,0,0,0,0,3.15,1.44,1.44,0,0,0,1.35-.81c2.12.25,4-1.21,5.56-2.61A26.19,26.19,0,0,0,112,30.34c1.92-1.5,6.83-1.42,6.7,1.84-.07,1.79-1.74,2.71-3.34,2.69a2.43,2.43,0,0,1-2.06-1.11c-1-1.58.93-2.69,2.22-1.77.41.3.8-.39.39-.68a2.22,2.22,0,0,0-3.16,3.07c1.2,1.92,4.38,1.51,5.77.1a3.29,3.29,0,0,0-.78-5.22,5.73,5.73,0,0,0-4.57-.4c.5-.66,1-1.34,1.45-2a.37.37,0,0,0,.41-.38c0-.07,0-.14,0-.21l1.31-1.92a44.76,44.76,0,0,1,4.58-6.1.32.32,0,0,0,.19-.07c1.8-1.38,5.89-2.35,7.5-.19,1.16,1.55-.07,3.4-1.43,4.24a3.31,3.31,0,0,1-2.41.45,1.69,1.69,0,0,1-1.11-1.27c-.65-1.95,1.6-1.43,2.23-1.07a.39.39,0,0,0,.4-.68c-2.27-1.29-4.48.66-2.91,3,1.42,2.08,4.61.39,5.75-1.06a3.4,3.4,0,0,0-1.29-5.14,7.44,7.44,0,0,0-4.67-.12l.34-.25a11.19,11.19,0,0,1,6.65-2,.36.36,0,0,0,.5,0,12,12,0,0,1,7.67,3.64.4.4,0,0,0,.56-.56A13.24,13.24,0,0,0,132.7,13.51Zm-19.81,4.88a22.64,22.64,0,0,1,1.33,6.91A6.85,6.85,0,0,1,112.89,18.39Zm25.67-9.15c-.66,3-4.52,3.24-7.23,3.73C132.94,10.75,135.9,9.73,138.56,9.24Z"/><path class="cls-3" d="M189.68,61.28c-4.05,1.71-8.35,3-11.5,6.06a24.24,24.24,0,0,0,1.26-6.46.37.37,0,0,0,.16-.3c0-1.71,1.11-6.11,3.44-5.62,1.4.29,1.4,2.22,1.06,3.25a2.36,2.36,0,0,1-1.21,1.38c-1.53.79-.95-1-.25-1.48.4-.3,0-1-.4-.68a2.69,2.69,0,0,0-1.17,2.15,1.07,1.07,0,0,0,1.31,1A3.59,3.59,0,0,0,185,56a2.36,2.36,0,0,0-4.1-1.05,7,7,0,0,0-1.48,2.58A23.84,23.84,0,0,0,178,51.47a.35.35,0,0,0,.13,0c3.18-1.81,8.45-7.23,4.62-10.76a.39.39,0,0,0-.48-.07c-2.77,2-5,4.73-5.48,8.11a31.9,31.9,0,0,0-3.85-5.82.31.31,0,0,0-.06-.2c-1.28-1.82-2.51-3.79-2-6.11.46-2,2.58-5,4.88-3.72,1.19.65,1.25,2.82,1.18,4s-1,3.11-2.48,1.91c-1-.77-.23-2.41.62-2.84.46-.23.06-.91-.4-.68-1.9.95-1.94,4.12.33,4.6,2.86.61,2.89-3.83,2.5-5.47-.67-2.8-3.34-3.22-5.36-1.43-2.45,2.18-2.49,4.94-1.45,7.52a51.48,51.48,0,0,0-5.54-4.9c1.51-4.55,3-9.33-.09-13.57a.39.39,0,0,0-.67,0c-2,3.56-3.72,7.91-1.84,11.68a80.34,80.34,0,0,0-9.21-5.24l-2.61-1.28c1.84-6.69-8.77-8.57-13.42-8.38a.41.41,0,0,0-.39.5c1.29,6.49,6.79,12.11,13.54,8.66l0,0c1.46.72,2.94,1.41,4.33,2.18l.38.21a6.52,6.52,0,0,0-3.86,1.33,3,3,0,0,0,.54,5c1.65.83,4.17.24,3.67-2a2,2,0,0,0-3.93-.2.39.39,0,0,0,.76.21c.6-2.28,3.71.37,1.88,1.5a2.34,2.34,0,0,1-2-.16A2,2,0,0,1,151,34c-.2-2.76,4.23-3.4,6.08-2.63a.3.3,0,0,0,.18,0,64.52,64.52,0,0,1,10.27,7c-3-.27-5.8.81-8.72,1.48a.4.4,0,0,0-.24.58c2.82,3.81,7.56,2.17,10.36-.8l.14.12a32.57,32.57,0,0,1,8.65,13.32c-2-1.72-5-2.39-7.47-2.86a.4.4,0,0,0-.5.38c-.25,4.51,5.53,8.1,8.49,4.31a21.34,21.34,0,0,1-.4,10.91c-.62-1.69-2.15-2.94-3.32-4.27a.38.38,0,0,0-.61.08,4.07,4.07,0,0,0,3.26,6.2c-.14.36-.27.73-.42,1.1a.08.08,0,0,0,0,0s0,0,0,0a.44.44,0,0,0-.21.51,36.45,36.45,0,0,1-6.21,9.5,9.12,9.12,0,0,0-1.79-8.85.41.41,0,0,0-.62.08c-2.55,3.93-2.18,7.65-.9,12,0,0,0,0,0,.06q-1.6,1.44-3.35,2.73l-.39.22a.36.36,0,0,0-.14.16c-.71.5-1.43,1-2.16,1.46a8.59,8.59,0,0,0,1.57-3.78c.31-2.54-1.74-4.85-4.37-3.78-1.85.76-3.21,4.44-.49,5.12,2,.5,3.62-1.79,1.14-2.46a.39.39,0,0,0-.2.76c.74,1.16.31,1.34-1.27.55a1.68,1.68,0,0,1-.17-2,2.71,2.71,0,0,1,2.25-1.46c2-.18,2.54,2.11,2.26,3.57A8.3,8.3,0,0,1,157.41,89a.3.3,0,0,0-.16.15,95.21,95.21,0,0,1-12.34,5.58c4-3.61,6.58-8.89,5.52-14.35a.39.39,0,0,0-.65-.17c-4.37,3.56-8.79,8.89-6.3,14.7l-.75.56a.41.41,0,0,0-.09.1c-1,.35-1.93.69-2.89,1-4.76,1.63-9.57,3.14-14.33,4.77l.26-.23h0c4.18-3.77,8-8.18,6.82-14.25a.4.4,0,0,0-.66-.18c-4.53,3.74-9,8.42-7.48,14.56l-.93.8c-1.63.58-3.26,1.17-4.87,1.8-6.45,2.51-13.12,5.57-18.39,10.15a29.19,29.19,0,0,0-7.71,10c-1.31,3-1.82,7,.34,9.68,1.73,2.15,4.26,2,5.16-.65.75-2.24-2.3-4.18-3.53-1.81-.23.45.45.85.68.4l1.86-.12a2,2,0,0,1-.11,2.17,1.47,1.47,0,0,1-2.1.57,4.57,4.57,0,0,1-2-2c-1.44-2.47-.46-6,.59-8.42a22.26,22.26,0,0,1,3-4.81.39.39,0,0,0,.29-.17,6.36,6.36,0,0,1,5.26-2.38c1.73,0,4.26.77,4,2.93s-2.63,3.45-4.67,3.69c-1.11.13-2.17-.2-2.16-1.5a1.38,1.38,0,0,1,1.21-1.53c1.14-.07,1,.89.06,1.23-.47.17-.27.94.21.76,3.38-1.22-.15-4.07-1.79-2a2.52,2.52,0,0,0,.41,3.47c1.17.85,3.26.28,4.43-.26,2.59-1.18,4.53-4.82,1.6-6.75a6.84,6.84,0,0,0-6.31-.25,37.19,37.19,0,0,1,3.94-3.35,50.41,50.41,0,0,1,4.41-2.87c2.06,5.89,13.85,7.44,16.65,1.48a.4.4,0,0,0-.24-.58,51.56,51.56,0,0,0-8.38-2.25,15.77,15.77,0,0,0-5.27-.19,107.39,107.39,0,0,1,13.48-5.67.39.39,0,0,0,.35-.08.46.46,0,0,1,.07-.07l1-.33a.4.4,0,0,0,.59-.2l3-1c.68,3.35,4.54,5,7.55,5.64s7.57.63,9.09-2.61a.4.4,0,0,0-.24-.58c-4.75-1-9.29-2.84-14.15-3.19,6.53-2.13,13.18-4.19,19.5-6.87a.32.32,0,0,0,.36,0c2-1.25,10.43-2.19,9.85,1.83C160,97.9,156.76,99,154.55,99c-1.31,0-3.42-1.58-2.17-3,.77-.85,3.11-.44,1.93,1-.32.39.23.95.56.55,1.94-2.36-1.63-3.66-3.21-1.93-.87,1-.23,2.71.71,3.38,1.6,1.15,3.7.81,5.41.13,2.61-1,4.93-4.64,1.84-6.54a9.36,9.36,0,0,0-5.23-1,64.47,64.47,0,0,0,8.26-4.75c1.59,2.67,5.74,2.77,8.44,2.35,3.08-.48,7.35-1.89,8.06-5.4a.4.4,0,0,0-.38-.5c-4.16-.19-8.2-.67-12,.45.29-.24.57-.51.86-.76a.37.37,0,0,0,.23-.1,6.83,6.83,0,0,0,1-1,40,40,0,0,0,7.62-10.3q.33-.66.63-1.32c4.79,4.42,12.5-3.74,13.14-8.56A.4.4,0,0,0,189.68,61.28ZM150,26.74a19.19,19.19,0,0,1-6.17-4.44c-.32-.39-.88.18-.55.56a19.62,19.62,0,0,0,6.3,4.57c-5.92,2.65-10.5-2.36-11.8-7.92C142.14,19.47,151.36,21.07,150,26.74Zm14,8a.35.35,0,0,0-.06-.23c-2.42-3.19-1.44-7,.14-10.28-.79,3.46-.21,7.24.2,10.7v0Zm1.06-11.15c1.65,3.19.91,6.64-.15,10C164.57,30.26,164.17,26.74,165.12,23.55Zm-5.51,17c2.84-.71,5.65-1.73,8.58-1.21C165.89,41.63,162.09,43.24,159.61,40.52Zm23.29,1.42a3.87,3.87,0,0,1,.37,1.84c-.09,2.44-2.5,4.91-4.62,6.36A58.41,58.41,0,0,1,182.9,41.94Zm-5.29,8.63-.24-.58a.59.59,0,0,0,.07-.2,10.06,10.06,0,0,1,2.63-6.23,14.11,14.11,0,0,1,1.72-1.65,1.22,1.22,0,0,1,.34-.22A62.81,62.81,0,0,0,177.61,50.57Zm-7.08.56c2.5.48,5.53,1.2,7.24,3.14C175.37,57.72,170.73,54.73,170.53,51.13Zm-62.29,59.36c4.37,2,9.74,2.08,14.41,1.46C119.62,116.05,110.6,114.93,108.24,110.49Zm7.83-.85a45.6,45.6,0,0,1,6,1.61c-4.4.53-9.44.4-13.49-1.49C110.82,108.7,113.71,109.2,116.07,109.64Zm15.81-21.4c.35,4.48-2.25,8-5.38,11,.65-1.56,1.26-3.14,1.92-4.69.56-1.32,1.15-2.62,1.81-3.9C130.58,90,131.13,88.65,131.88,88.24Zm-6.78,12.3h0l-.06,0c-.87-4.49,1.63-8.1,4.8-11.13-.58,1-1,2.26-1.38,3C127.25,95.16,126.28,97.89,125.1,100.54Zm18.41,3.57.55.14c-2.68,4.13-12.55,2.08-14.62-2.29a13.74,13.74,0,0,0,5.57,2,33.59,33.59,0,0,0,8.13.59A.4.4,0,0,0,143.51,104.11Zm-1.18-.29a35.72,35.72,0,0,1-6.11-.41c-2.15-.32-4.77-.8-6.52-2.25C134.07,101.3,138.15,102.73,142.33,103.82Zm7.53-21.5a14.93,14.93,0,0,1-4.47,10.81A115.89,115.89,0,0,1,149.86,82.32Zm-.48-.79a133.88,133.88,0,0,0-5.29,12.76C142.13,89.33,145.69,84.77,149.38,81.53Zm21.9,6.84c-2.3.42-6,.49-7.65-1.52,4.83.82,9.78-.88,14.39-2.23C176.85,87,173.65,87.94,171.28,88.37ZM177.33,84c-4.36,1.29-9,2.86-13.58,2.07l.87-.65C168.64,83.38,172.93,83.74,177.33,84Zm-8.85-3.07c-.28.28-.56.57-.86.84-1.09-3.79-1.43-7.1.62-10.58A8.42,8.42,0,0,1,168.48,80.93Zm5.87-18.35c1.22,1.29,2.67,2.55,3,4.37a.46.46,0,0,0,.05.14A3.22,3.22,0,0,1,174.35,62.58Zm3,6.87,0-.07c2.77-3.71,7.09-5.17,11.22-6.83-2.47,3.54-7.41,5.27-11.22,6.92Zm.71.57c3.65-1.56,8-3.22,10.67-6.35C186.93,67.66,181.72,72.41,178.09,70Z"/><path class="cls-3" d="M157.18,23.6a1.58,1.58,0,0,0,0,3.15A1.58,1.58,0,0,0,157.18,23.6Z"/><path class="cls-3" d="M168.84,45.19a1.58,1.58,0,0,0,0,3.15A1.58,1.58,0,0,0,168.84,45.19Z"/><path class="cls-3" d="M188.7,53a1.58,1.58,0,0,0,0,3.15A1.58,1.58,0,0,0,188.7,53Z"/><path class="cls-3" d="M179.85,76.92h-.22a1.58,1.58,0,0,0,0,3.16h.22a1.58,1.58,0,1,0,0-3.16Z"/><path class="cls-3" d="M160.63,74.33a1.59,1.59,0,0,0-1.57,1.58v.22a1.58,1.58,0,0,0,3.15,0v-.22A1.6,1.6,0,0,0,160.63,74.33Z"/><path class="cls-3" d="M165.86,95.71h-.31a1.58,1.58,0,0,0,0,3.15h.31a1.58,1.58,0,1,0,0-3.15Z"/><path class="cls-3" d="M137.1,89.23a1.58,1.58,0,0,0,0,3.15A1.58,1.58,0,0,0,137.1,89.23Z"/><path class="cls-3" d="M131.05,110a1.58,1.58,0,0,0,0,3.15A1.58,1.58,0,0,0,131.05,110Z"/><path class="cls-3" d="M110.91,101.23v.16a1.58,1.58,0,0,0,3.15,0v-.16A1.58,1.58,0,0,0,110.91,101.23Z"/><path class="cls-3" d="M103.2,127.88H103a1.58,1.58,0,1,0,0,3.15h.21a1.58,1.58,0,1,0,0-3.15Z"/><path class="cls-3" d="M95,113a1.58,1.58,0,0,0,0,3.15A1.58,1.58,0,0,0,95,113Z"/><path class="cls-3" d="M125.44,8.48a1.58,1.58,0,0,0,0,3.16A1.58,1.58,0,0,0,125.44,8.48Z"/><path class="cls-3" d="M120,24.89A1.58,1.58,0,0,0,120,28,1.58,1.58,0,0,0,120,24.89Z"/><path class="cls-3" d="M141.2,14.1a1.58,1.58,0,0,0,0,3.15A1.58,1.58,0,0,0,141.2,14.1Z"/><path class="cls-3" d="M51.34,17.12c-.36.36.19.92.55.56A12.07,12.07,0,0,1,59.57,14a.36.36,0,0,0,.5,0,11.23,11.23,0,0,1,6.65,2l.34.25a7.43,7.43,0,0,0-4.67.12,3.39,3.39,0,0,0-1.29,5.14c1.14,1.45,4.33,3.14,5.74,1.06,1.58-2.3-.63-4.25-2.9-3a.39.39,0,0,0,.4.68c.62-.36,2.88-.88,2.23,1.07a1.71,1.71,0,0,1-1.11,1.27,3.3,3.3,0,0,1-2.41-.45c-1.36-.84-2.6-2.69-1.44-4.24,1.62-2.16,5.7-1.19,7.51.19a.32.32,0,0,0,.18.07,43.18,43.18,0,0,1,4.58,6.1c.44.63.87,1.28,1.31,1.92v.21a.37.37,0,0,0,.41.38c.47.67,1,1.35,1.45,2a5.72,5.72,0,0,0-4.57.4,3.28,3.28,0,0,0-.78,5.22c1.38,1.41,4.57,1.82,5.76-.1a2.22,2.22,0,0,0-3.16-3.07c-.41.29,0,1,.4.68,1.29-.92,3.2.19,2.22,1.77a2.43,2.43,0,0,1-2.07,1.11,3,3,0,0,1-3.34-2.69c-.12-3.26,4.79-3.34,6.71-1.84a26.09,26.09,0,0,0,2.32,2.49c1.52,1.4,3.45,2.86,5.57,2.61a1.43,1.43,0,0,0,1.35.81,1.58,1.58,0,0,0,0-3.15,1.5,1.5,0,0,0-1.53,1.56C83.2,34.93,80.66,32.07,79,30a.31.31,0,0,0-.11-.15l0,0-.34-.43c-.82-1-1.59-2.1-2.34-3.18a7.54,7.54,0,0,0,1.48-9,.4.4,0,0,0-.68,0,22.44,22.44,0,0,0-1.72,7.7c-1.11-1.63-2.19-3.27-3.34-4.87a21.48,21.48,0,0,0-2.4-2.76.31.31,0,0,0-.06-.28,5.28,5.28,0,0,1-.18-5.35c.72-1.46,2.37-3.49,4.28-2.84,1.67.58,3.87,4.08,1.52,5.28a1.52,1.52,0,0,1-2.28-.82c-.31-1.11.52-1.24,1.39-.88.47.19.68-.57.21-.76-2.36-1-3.25,1.49-1.58,3,2.25,2,4.55-1.47,3.78-3.6-1-2.76-4-4.21-6.43-2a7.27,7.27,0,0,0-2.09,7,13,13,0,0,0-5.14-2.52,12.09,12.09,0,0,0-3-.31c-1.68-3-5.46-4.3-8.69-4.81-.23,0-.53.1-.5.38.34,3.54,3.72,4.21,6.74,4.75A13.19,13.19,0,0,0,51.34,17.12ZM76,25.3a22.35,22.35,0,0,1,1.33-6.91A6.9,6.9,0,0,1,76,25.3ZM58.9,13c-2.72-.49-6.57-.74-7.23-3.73C54.33,9.73,57.28,10.75,58.9,13Z"/><path class="cls-3" d="M.05,61.66c.63,4.82,8.35,13,13.13,8.56.2.44.42.88.64,1.32a40,40,0,0,0,7.62,10.3,6.83,6.83,0,0,0,1,1,.37.37,0,0,0,.23.1c.28.25.56.52.86.76-3.85-1.12-7.89-.64-12-.45a.4.4,0,0,0-.38.5c.71,3.51,5,4.92,8.06,5.4,2.7.42,6.85.32,8.43-2.35a65.86,65.86,0,0,0,8.26,4.75,9.32,9.32,0,0,0-5.22,1c-3.09,1.9-.78,5.5,1.84,6.54,1.71.68,3.81,1,5.41-.13.93-.67,1.58-2.41.71-3.38-1.58-1.73-5.16-.43-3.21,1.93.33.4.88-.16.56-.55-1.18-1.43,1.16-1.84,1.93-1,1.25,1.37-.86,2.92-2.17,3-2.21,0-5.4-1.07-5.77-3.62-.59-4,7.89-3.08,9.85-1.83a.32.32,0,0,0,.36,0c6.32,2.68,13,4.74,19.5,6.87-4.87.35-9.4,2.15-14.15,3.19a.4.4,0,0,0-.24.58c1.52,3.24,6.1,3.26,9.08,2.61s6.88-2.29,7.56-5.64l3,1a.4.4,0,0,0,.59.2l.95.33.07.07a.39.39,0,0,0,.35.08,107.39,107.39,0,0,1,13.48,5.67,15.77,15.77,0,0,0-5.27.19,51.56,51.56,0,0,0-8.38,2.25.4.4,0,0,0-.24.58c2.79,6,14.59,4.41,16.65-1.48a48.8,48.8,0,0,1,4.4,2.87,36.31,36.31,0,0,1,4,3.35,6.84,6.84,0,0,0-6.31.25c-2.93,1.93-1,5.57,1.6,6.75,1.16.54,3.26,1.11,4.42.26a2.52,2.52,0,0,0,.42-3.47c-1.64-2.06-5.17.79-1.79,2,.48.18.68-.59.21-.76-.94-.34-1.08-1.3.06-1.23a1.38,1.38,0,0,1,1.21,1.53c0,1.3-1,1.63-2.16,1.5-2-.24-4.36-1.42-4.67-3.69s2.23-3,4-2.93a6.35,6.35,0,0,1,5.26,2.38.41.41,0,0,0,.3.17,22.26,22.26,0,0,1,3,4.81c1.05,2.41,2,5.95.58,8.42a4.5,4.5,0,0,1-2,2,1.48,1.48,0,0,1-2.11-.57,2,2,0,0,1-.1-2.17l1.85.12c.24.45.92.05.69-.4-1.24-2.37-4.28-.43-3.53,1.81.89,2.67,3.43,2.8,5.15.65,2.17-2.69,1.65-6.71.35-9.68a29.19,29.19,0,0,0-7.71-10c-5.27-4.58-11.94-7.64-18.4-10.15-1.61-.63-3.23-1.22-4.86-1.8l-.93-.8c1.48-6.14-3-10.82-7.49-14.56a.4.4,0,0,0-.66.18c-1.15,6.07,2.65,10.48,6.83,14.25h0l.25.23c-4.75-1.63-9.56-3.14-14.32-4.77-1-.32-1.93-.66-2.89-1a.81.81,0,0,0-.09-.1c-.26-.18-.51-.37-.75-.56,2.49-5.81-1.93-11.14-6.3-14.7a.4.4,0,0,0-.66.17c-1,5.46,1.52,10.74,5.53,14.35A95.21,95.21,0,0,1,33,89.11a.3.3,0,0,0-.16-.15,8.27,8.27,0,0,1-4.25-5.55c-.29-1.46.25-3.75,2.26-3.57a2.73,2.73,0,0,1,2.25,1.46,1.66,1.66,0,0,1-.18,2q-2.37,1.19-1.26-.55a.39.39,0,0,0-.21-.76c-2.47.67-.83,3,1.15,2.46,2.71-.68,1.36-4.36-.49-5.12-2.63-1.07-4.68,1.24-4.37,3.78a8.48,8.48,0,0,0,1.57,3.78c-.74-.47-1.46-1-2.16-1.46a.36.36,0,0,0-.14-.16l-.39-.22c-1.17-.86-2.28-1.77-3.35-2.73l0-.06c1.28-4.32,1.65-8-.9-12a.41.41,0,0,0-.62-.08A9.12,9.12,0,0,0,20,79.08a36.48,36.48,0,0,1-6.22-9.5.42.42,0,0,0-.2-.51s0,0,0,0l0,0c-.15-.37-.29-.74-.42-1.1a4.07,4.07,0,0,0,3.26-6.2.39.39,0,0,0-.62-.08c-1.17,1.33-2.69,2.58-3.32,4.27A21.24,21.24,0,0,1,12,55c3,3.79,8.74.2,8.49-4.31a.4.4,0,0,0-.5-.38c-2.49.47-5.46,1.14-7.47,2.86a32.65,32.65,0,0,1,8.64-13.32l.14-.12c2.8,3,7.55,4.61,10.36.8a.39.39,0,0,0-.23-.58c-2.92-.67-5.75-1.75-8.73-1.48a64.6,64.6,0,0,1,10.28-7,.27.27,0,0,0,.17,0c1.86-.77,6.29-.13,6.09,2.63a2.05,2.05,0,0,1-1.3,1.89,2.34,2.34,0,0,1-2,.16c-1.82-1.13,1.28-3.78,1.89-1.5a.39.39,0,0,0,.76-.21,2,2,0,0,0-3.93.2c-.51,2.28,2,2.87,3.66,2a3,3,0,0,0,.55-5A6.57,6.57,0,0,0,35,30.26l.38-.21c1.39-.77,2.87-1.46,4.33-2.18l0,0c6.75,3.45,12.25-2.17,13.53-8.66a.4.4,0,0,0-.38-.5c-4.66-.19-15.26,1.69-13.42,8.38-.88.43-1.76.85-2.61,1.28a79.5,79.5,0,0,0-9.21,5.24c1.87-3.77.11-8.12-1.84-11.68a.4.4,0,0,0-.68,0c-3.09,4.24-1.6,9-.08,13.57a51.48,51.48,0,0,0-5.54,4.9c1-2.58,1-5.34-1.46-7.52-2-1.79-4.68-1.37-5.35,1.43-.4,1.64-.36,6.08,2.5,5.47,2.27-.48,2.23-3.65.32-4.6-.45-.23-.85.45-.39.68.85.43,1.59,2.07.61,2.84-1.52,1.2-2.41-.84-2.48-1.91s0-3.31,1.18-4c2.31-1.26,4.43,1.74,4.89,3.72.54,2.32-.69,4.29-2,6.11a.4.4,0,0,0-.07.2,32.38,32.38,0,0,0-3.84,5.82A12.57,12.57,0,0,0,8,40.59a.39.39,0,0,0-.48.07c-3.84,3.53,1.44,9,4.61,10.76a.39.39,0,0,0,.14,0,23.84,23.84,0,0,0-1.41,6.09A7,7,0,0,0,9.36,55,2.35,2.35,0,0,0,5.27,56a3.59,3.59,0,0,0,2.58,4.55,1.06,1.06,0,0,0,1.3-1A2.65,2.65,0,0,0,8,57.43c-.41-.3-.8.38-.4.68.7.53,1.27,2.27-.25,1.48a2.37,2.37,0,0,1-1.22-1.38c-.33-1-.33-3,1.06-3.25,2.34-.49,3.4,3.91,3.45,5.62a.37.37,0,0,0,.16.3A24.62,24.62,0,0,0,12,67.34C8.89,64.29,4.6,63,.55,61.28A.4.4,0,0,0,.05,61.66ZM52.42,19.51c-1.29,5.56-5.87,10.57-11.79,7.92a19.73,19.73,0,0,0,6.3-4.57c.33-.38-.23-.95-.56-.56a19.15,19.15,0,0,1-6.16,4.44C38.87,21.07,48.08,19.47,52.42,19.51ZM25.88,34.91v0c.4-3.46,1-7.24.2-10.7,1.58,3.32,2.55,7.09.14,10.28a.36.36,0,0,0-.07.23Zm-.62-1.35c-1.07-3.37-1.8-6.82-.15-10C26.05,26.74,25.66,30.26,25.26,33.56ZM22,39.31c2.94-.52,5.75.5,8.58,1.21C28.13,43.24,24.34,41.63,22,39.31ZM11.57,50.14C9.46,48.69,7,46.22,7,43.78a3.75,3.75,0,0,1,.37-1.84A57.31,57.31,0,0,1,11.57,50.14ZM8.1,41.69a1.35,1.35,0,0,1,.33.22,13.42,13.42,0,0,1,1.72,1.65,10,10,0,0,1,2.64,6.23.35.35,0,0,0,.07.2l-.24.58A62.81,62.81,0,0,0,8.1,41.69Zm4.36,12.58c1.71-1.94,4.74-2.66,7.24-3.14C19.49,54.73,14.86,57.72,12.46,54.27ZM67.57,112c4.68.62,10.05.55,14.41-1.46C79.63,114.93,70.61,116.05,67.57,112Zm14.12-2.19c-4.06,1.89-9.09,2-13.5,1.49a46.18,46.18,0,0,1,6-1.61C76.51,109.2,79.41,108.7,81.69,109.76ZM60,90.66c.65,1.28,1.25,2.58,1.81,3.9.66,1.55,1.27,3.13,1.91,4.69-3.12-3-5.72-6.53-5.38-11C59.1,88.65,59.65,90,60,90.66Zm1.77,1.86c-.36-.79-.8-2-1.38-3,3.16,3,5.67,6.64,4.79,11.13l-.05,0h0C64,97.89,63,95.16,61.77,92.52ZM47.08,104.59a33.7,33.7,0,0,0,8.14-.59,13.74,13.74,0,0,0,5.57-2c-2.07,4.37-11.95,6.42-14.62,2.29l.54-.14A.4.4,0,0,0,47.08,104.59Zm13.44-3.43c-1.74,1.45-4.36,1.93-6.51,2.25a35.77,35.77,0,0,1-6.12.41C52.08,102.73,56.15,101.3,60.52,101.16Zm-15.68-8a15,15,0,0,1-4.48-10.81A113.31,113.31,0,0,1,44.84,93.13Zm1.3,1.16a136.6,136.6,0,0,0-5.3-12.76C44.54,84.77,48.1,89.33,46.14,94.29ZM12.21,84.62c4.61,1.35,9.55,3,14.38,2.23-1.67,2-5.34,1.94-7.64,1.52S13.38,87,12.21,84.62Zm13.4.8.87.65c-4.55.79-9.22-.78-13.58-2.07C17.3,83.74,21.58,83.38,25.61,85.42ZM22,71.19c2,3.48,1.71,6.79.62,10.58-.3-.27-.58-.56-.86-.84A8.4,8.4,0,0,1,22,71.19Zm-9.13-4.1a.3.3,0,0,0,.06-.14c.29-1.82,1.74-3.08,3-4.37A3.23,3.23,0,0,1,12.86,67.09Zm0,2.38C9,67.82,4.07,66.09,1.6,62.55c4.13,1.66,8.45,3.12,11.21,6.83l0,.07ZM1.47,63.67c2.61,3.13,7,4.79,10.66,6.35C8.51,72.41,3.29,67.66,1.47,63.67Z"/><path class="cls-3" d="M33.05,23.6a1.58,1.58,0,0,1,0,3.15A1.58,1.58,0,0,1,33.05,23.6Z"/><path class="cls-3" d="M21.39,45.19a1.58,1.58,0,0,1,0,3.15A1.58,1.58,0,0,1,21.39,45.19Z"/><path class="cls-3" d="M1.53,53a1.58,1.58,0,0,1,0,3.15A1.58,1.58,0,0,1,1.53,53Z"/><path class="cls-3" d="M10.38,76.92h.21a1.58,1.58,0,1,1,0,3.16h-.21a1.58,1.58,0,1,1,0-3.16Z"/><path class="cls-3" d="M29.59,74.33a1.6,1.6,0,0,1,1.58,1.58v.22a1.58,1.58,0,0,1-3.15,0v-.22A1.59,1.59,0,0,1,29.59,74.33Z"/><path class="cls-3" d="M24.37,95.71h.3a1.58,1.58,0,1,1,0,3.15h-.3a1.58,1.58,0,1,1,0-3.15Z"/><path class="cls-3" d="M53.13,89.23a1.58,1.58,0,0,1,0,3.15A1.58,1.58,0,0,1,53.13,89.23Z"/><path class="cls-3" d="M59.17,110a1.58,1.58,0,0,1,0,3.15A1.58,1.58,0,0,1,59.17,110Z"/><path class="cls-3" d="M79.32,101.23v.16a1.58,1.58,0,0,1-3.16,0v-.16A1.58,1.58,0,0,1,79.32,101.23Z"/><path class="cls-3" d="M87,127.88h.21a1.58,1.58,0,1,1,0,3.15H87a1.58,1.58,0,1,1,0-3.15Z"/><path class="cls-3" d="M95.23,113a1.58,1.58,0,0,1,0,3.15A1.58,1.58,0,0,1,95.23,113Z"/><path class="cls-3" d="M64.79,8.48a1.58,1.58,0,0,1,0,3.16A1.58,1.58,0,0,1,64.79,8.48Z"/><path class="cls-3" d="M70.18,24.89a1.58,1.58,0,0,1,0,3.15A1.58,1.58,0,0,1,70.18,24.89Z"/><path class="cls-3" d="M49,14.1a1.58,1.58,0,0,1,0,3.15A1.58,1.58,0,0,1,49,14.1Z"/><path class="cls-4" d="M94.82,9c-1.28,1.22-2.42,3.36-1.83,5.14a3,3,0,0,0,1.75,1.61c.43.18,1,.3,1.14-.13s-.43-1.18-.53-1.56a9.84,9.84,0,0,1-.5-2.92c0-.62-.32-1.6,0-2.14"/><path class="cls-4" d="M94.41,8.62c-2.15,2.17-3.32,6.05.1,7.58.8.36,2.21.19,1.86-1-.24-.84-.63-1.57-.82-2.44a11.81,11.81,0,0,1-.17-1.68A5.31,5.31,0,0,1,95.3,9.2c.21-.65-.75-1.11-1-.46a7.54,7.54,0,0,0,0,2.84,8.76,8.76,0,0,0,.71,3.12c.26.59.28.71-.38.41a2.25,2.25,0,0,1-1.29-2.39,5.77,5.77,0,0,1,1.84-3.41c.49-.49-.33-1.17-.81-.69Z"/><path class="cls-4" d="M95.14,7.75c.4-.47,1.72-.09,2.2.14a5.61,5.61,0,0,1,2.37,2,3.22,3.22,0,0,1-1.48,4.9c1.06-1.17.2-3.79-.56-4.92C97.2,9.13,96.12,7.67,95.14,7.75Z"/><path class="cls-4" d="M95.45,8.19c1-.81,3.06,1,3.6,1.68a2.77,2.77,0,0,1-1,4.4l.59.85c1-1.38.59-3.21,0-4.68C98,9.15,96.78,7.31,95.24,7.23c-.68,0-.87,1-.19,1,2.08.1,4,4.56,2.78,6.15-.3.39.07,1.08.59.84a3.79,3.79,0,0,0,1.91-5.38c-.79-1.42-3.74-4-5.49-2.57C94.3,7.74,94.91,8.62,95.45,8.19Z"/><path class="cls-4" d="M96.51,4.86C94.84,4.65,93.24,6.92,92.34,8a6.71,6.71,0,0,0-.87,7.09c-.8-.45-1.25-2.31-1.47-3.16a4.79,4.79,0,0,1,.39-3.81c1-1.9,3.09-3.59,5.42-3.43A2.26,2.26,0,0,1,96.51,4.86Z"/><path class="cls-4" d="M96.47,4.33c-2.06,0-3.38,1.9-4.53,3.37a7.43,7.43,0,0,0-1,7.61l.85-.58c-1.29-1.09-1.64-3.71-1.4-5.23.41-2.64,3.54-4.56,6-4.12a.53.53,0,0,0,.19-1c-2.93-.52-5.24,1.18-6.7,3.6-1.25,2.07-.64,6,1.22,7.61A.53.53,0,0,0,92,15a6.42,6.42,0,0,1,.78-6.56c.92-1.25,2.12-3,3.81-3C97.25,5.38,97.15,4.32,96.47,4.33Z"/><path class="cls-4" d="M98.36,4.84c.55-.36,2.42,0,3,.35a8.27,8.27,0,0,1,2.84,2.48,5.18,5.18,0,0,1-.49,7,16.85,16.85,0,0,1-4.64,3.63A8.75,8.75,0,0,1,96,19a4.72,4.72,0,0,1-2.91-1,26.5,26.5,0,0,0,3.7-.35,6.88,6.88,0,0,0,2.78-1.42c1.74-1.4,3.26-3.8,2.77-6.09C102,8.7,100,4.83,98.36,4.84Z"/><path class="cls-4" d="M98.55,5.34c2-.68,4.07,1.26,5.2,2.63,1.66,2,1.1,4.5-.46,6.34-2.05,2.42-6.68,5.87-9.83,3.25l-.3.93c4.59-.36,8.45-1.63,9.74-6.58.67-2.53-1.82-7.13-4.45-7.59a.53.53,0,0,0-.18,1c2.29.4,3.76,4.38,3.59,6.35-.4,4.53-5.32,5.43-8.8,5.71a.54.54,0,0,0-.29.94c4.23,3.52,10.84-1.53,12.68-5.46s-3-10-7.27-8.56C97.53,4.56,97.89,5.56,98.55,5.34Z"/><path class="cls-4" d="M101.88,3.87A7.67,7.67,0,0,0,99.33,3a10,10,0,0,0-4.12-.26A20.93,20.93,0,0,0,89,5.47c-.35.18-.77.69-1.12.76a7.38,7.38,0,0,1,1.66-2.7A7.38,7.38,0,0,1,91.9,1.46,7.72,7.72,0,0,1,99,1.25a6,6,0,0,1,2.92,2.62"/><path class="cls-4" d="M102.11,3.39c-5.18-2.92-10-.32-14.56,2.4l.78.67c1.91-5.3,9.84-7.85,13.12-2.29.35.6,1.22,0,.87-.61C98.67-2.63,89.55-.06,87.37,6a.54.54,0,0,0,.79.66c4.17-2.5,8.69-5,13.49-2.31.6.34,1.06-.63.46-1Z"/><path class="cls-4" d="M87.72,7.07c-1.84.85-2.73,4.27-2.36,6,.27,1.34,1.19,2.31,1.84,3.44a15.09,15.09,0,0,0,2,2.92,9.73,9.73,0,0,0,4.35,3c1.24.41,4.13.72,4.9-.7-1.07-.41-2.4-.47-3.53-.87A12.59,12.59,0,0,1,92,19.49a9.16,9.16,0,0,1-3.9-5C87.87,13.74,86.5,8,87.72,7.07Z"/><path class="cls-4" d="M87.41,6.63c-1.82,1.12-2.49,3.25-2.65,5.29-.19,2.38,1.73,4.57,2.92,6.46,1.8,2.84,8.11,7.58,11.18,3.74a.54.54,0,0,0-.32-.87C94.23,20,90.34,19,88.62,14.32c-.55-1.47-1.63-5.56-.5-6.91a.53.53,0,0,0-.81-.68c-1.57,1.85-.3,5.69.25,7.76C89,19.67,93.87,21,98.36,22.3L98,21.43c-1.2,1.51-3.68.8-5.12.23-2.13-.83-3.66-2.78-4.84-4.64-1.77-2.8-3.88-7.17-.06-9.51C88.61,7.15,88,6.28,87.41,6.63Z"/><path class="cls-4" d="M86.41,4.21c-.88-.09-1.71,1.1-2.18,1.61A13.37,13.37,0,0,0,82,9.4c-1.06,2.28-1.83,5.08-.75,7.5s3.66,5.05,6.59,4.85a25.55,25.55,0,0,1-3.58-5.87,19.94,19.94,0,0,1-.84-3.49,8.54,8.54,0,0,1,.72-4,21.46,21.46,0,0,1,1.2-2.89A3.19,3.19,0,0,1,86.41,4.21Z"/><path class="cls-4" d="M86.36,3.68c-3.79.84-5.81,6.94-6.12,10.29-.4,4.28,3.61,8.17,7.68,8.31a.54.54,0,0,0,.39-.84c-3.44-4.83-6.74-11.86-1.5-16.88.5-.48-.32-1.16-.81-.69-5.67,5.43-2.28,13,1.43,18.18l.39-.83c-4.68-.16-7.07-4.87-6.26-9C82,10,84,5.29,86.46,4.74,87.12,4.6,87,3.53,86.36,3.68Z"/><path class="cls-4" d="M86.52,22.5A29.35,29.35,0,0,0,89.69,24a15.06,15.06,0,0,0,4.76.82c2.93,0,5.86-1.31,8.47-2.57,1.26-.63,2.36-1.41,3.57-2.09a14.45,14.45,0,0,1-1.71,2.7,22.26,22.26,0,0,1-2.21,2.74,9.6,9.6,0,0,1-7.52,2.35,13.65,13.65,0,0,1-5.64-2.36C88.63,25,86.5,23.42,86.52,22.5Z"/><path class="cls-4" d="M86.29,23c7.61,3.85,13.52,1.76,20.51-2.4l-.79-.66c-1.9,3.76-4.71,6.89-9,7.52-2.86.42-9-1.89-10-5.12-.19-.66-1.19-.29-1,.37,1,3.36,6.88,6,10,5.85,5.27-.21,8.61-3.63,10.91-8.16a.54.54,0,0,0-.79-.67,43.28,43.28,0,0,1-8.18,4c-4,1.35-7.71.12-11.26-1.68C86.14,21.71,85.68,22.67,86.29,23Z"/><path class="cls-4" d="M103,3.41a16.93,16.93,0,0,1,4.12,5.82c.93,2.25,0,4.91-1.59,6.67a33.26,33.26,0,0,1-2.69,2.62,12.69,12.69,0,0,0-2.56,2.27A13,13,0,0,0,104,19.71a9.16,9.16,0,0,0,3-1.75,8,8,0,0,0,3-5.92,8.62,8.62,0,0,0-2.27-6.22C107.06,5.19,104,2.48,103,3.41Z"/><path class="cls-4" d="M102.63,3.81c3.34,3.3,5.82,7.46,2.47,11.74-1.49,1.92-3.72,3-5.24,4.9a.53.53,0,0,0,.45.87c5.48-.71,10.28-4.53,10.14-10.32-.07-2.72-4-9.77-7.65-8.09-.62.28-.26,1.28.36,1,1.16-.54,2.64,1,3.44,1.65a8.13,8.13,0,0,1,2.78,5.54c.66,5.13-4.71,8.58-9.16,9.16l.45.87c2.56-3.13,6.06-4.59,7.21-8.79.94-3.47-2.34-7.15-4.56-9.34C102.83,2.52,102.15,3.33,102.63,3.81Z"/></g></g></svg>