<svg width="150" height="20" viewBox="0 0 150 20" fill="none" xmlns="http://www.w3.org/2000/svg">
<path d="M87.0913 10.0749C79.1614 2.17074 66.2137 2.07551 55.524 4.12298C49.0816 5.35146 42.657 7.24656 36.2324 8.58932C33.7773 7.85604 32.3795 5.47526 33.8131 3.29447C34.5094 2.2765 35.5442 1.57847 36.7073 1.34223C37.7467 1.1232 39.4581 1.23747 39.9151 2.29454C40.3721 3.35161 39.6732 4.86578 38.1231 4.35153C37.469 4.1325 37.0299 5.08482 37.6482 5.36099C39.5746 6.22759 41.7699 4.81817 41.5369 2.84688C41.1875 0.313731 37.9618 -0.467165 35.659 0.304208C33.3562 1.07558 31.6447 3.23733 31.8598 5.50383C31.957 6.26377 32.2374 6.98407 32.6739 7.59479C33.1104 8.20552 33.688 8.6859 34.3507 8.9893C25.5338 10.6939 16.7168 11.151 7.89982 7.21799C7.78699 7.16413 7.66142 7.14804 7.53978 7.17185C7.41814 7.19567 7.3062 7.25826 7.21884 7.35132C7.17197 7.29074 7.11066 7.24464 7.04131 7.21784C6.97196 7.19103 6.89711 7.18451 6.82458 7.19895C5.3161 7.50481 3.77408 7.57857 2.24585 7.41798C1.62758 7.3037 1.34981 7.25609 1.34981 6.64661C1.34981 6.03713 1.68134 5.69429 2.34441 5.57049C3.10942 5.51021 3.87828 5.53575 4.63826 5.64668C5.20276 5.64668 5.20276 4.98958 4.75474 4.81817L4.52177 4.78008C4.55364 4.74801 4.57763 4.70815 4.59167 4.66396C4.6057 4.61977 4.60934 4.5726 4.60226 4.52657C4.59519 4.48054 4.57763 4.43706 4.5511 4.3999C4.52458 4.36275 4.4899 4.33307 4.45009 4.31344C3.39277 3.64682 3.25836 2.02789 4.69202 1.66601C5.16157 1.58666 5.64237 1.68786 6.04802 1.95143C6.45368 2.21499 6.75761 2.62366 6.90522 3.10401C7.4518 4.38963 7.3174 5.79905 8.03423 7.01801C8.32992 7.52273 9.30659 7.1799 9.06466 6.62756C8.25823 4.70389 8.32992 0.228023 4.8533 0.570856C2.49673 0.799411 1.986 3.42779 3.6795 4.53247C2.79194 4.34067 1.86941 4.47498 1.06308 4.9134C0.683614 5.10825 0.376679 5.43286 0.191464 5.83519C0.0062483 6.23752 -0.0465247 6.69428 0.0416019 7.13229C0.794271 9.45593 5.3282 8.27506 7.02171 7.85604L7.13819 7.80843C7.18307 7.92194 7.26613 8.01361 7.37116 8.06555C10.301 9.62691 13.4371 10.7058 16.672 11.2653C15.5557 11.7134 14.638 12.5901 14.1004 13.7223C13.8516 14.3085 13.7278 14.9459 13.738 15.5889C13.7482 16.2318 13.892 16.8645 14.1591 17.4415C14.4263 18.0185 14.8102 18.5255 15.2834 18.9263C15.7565 19.3272 16.3072 19.6118 16.896 19.7599C19.3243 20.5313 22.326 19.4171 22.7292 16.903C23.0786 14.7698 20.4443 12.8843 18.4641 14.3889C18.1415 14.627 18.4641 15.1793 18.8762 15.0365C21.3314 14.1794 22.1647 17.1697 20.1844 18.2743C19.4666 18.6309 18.6613 18.7381 17.8829 18.5809C17.1044 18.4236 16.3923 18.0098 15.8476 17.3982C15.3978 16.7944 15.1746 16.0348 15.2209 15.2662C15.2672 14.4976 15.5799 13.7745 16.0985 13.2366C16.7386 12.6421 17.4955 12.207 18.3141 11.9632C19.1326 11.7193 19.992 11.6729 20.8296 11.8272C20.9411 11.8433 21.0545 11.8199 21.1522 11.7605C31.3311 12.2748 41.8774 8.84645 52.2804 6.5609C51.3531 7.406 50.7715 8.60131 50.6586 9.89399C50.4973 12.6557 53.051 15.1603 56.0348 15.4841C58.7229 15.7888 62.0024 13.9699 61.4647 11.2177C61.3291 10.6151 61.0358 10.0655 60.6188 9.63249C60.2019 9.19943 59.6782 8.90052 59.1082 8.77026C57.4774 8.37029 56.1961 9.39879 55.2194 10.4654C54.7534 10.9796 55.4792 11.6653 56.0348 11.2082C56.4552 10.8535 56.9017 10.535 57.3699 10.2559C59.0454 10.0178 59.9146 10.5416 59.9684 11.8272C59.9684 12.7795 58.8662 13.6271 57.9523 13.9032C57.1757 14.124 56.3596 14.136 55.5775 13.9382C54.7954 13.7403 54.0719 13.3389 53.4721 12.77C50.6586 10.0845 53.042 6.46567 56.4201 5.73239C66.8768 3.82776 77.0289 3.73253 86.4372 10.6749C86.8852 11.0177 87.5125 10.4939 87.0913 10.0749Z" fill="#CA1856" fill-opacity="0.6"/>
<path d="M62.9612 10.074C70.8911 2.16979 83.8387 2.07456 94.5553 4.12203C100.971 5.35052 107.395 7.24562 113.82 8.60742C116.275 7.87414 117.673 5.49336 116.248 3.31257C115.558 2.28876 114.526 1.58365 113.363 1.34128C112.324 1.12225 110.612 1.23653 110.164 2.29359C109.716 3.35066 110.397 4.86484 111.956 4.35059C112.601 4.13156 113.049 5.08387 112.422 5.36004C110.496 6.22664 108.3 4.81722 108.533 2.84594C108.829 0.293739 112.055 -0.487157 114.358 0.284216C116.66 1.05559 118.372 3.21734 118.166 5.48384C118.064 6.24356 117.781 6.96293 117.344 7.57317C116.906 8.18341 116.328 8.66411 115.666 8.9693C124.483 10.6739 133.3 11.1311 142.117 7.198C142.229 7.14277 142.355 7.12593 142.477 7.1498C142.599 7.17367 142.711 7.23709 142.798 7.33133C142.845 7.27074 142.906 7.22465 142.975 7.19784C143.045 7.17104 143.12 7.16452 143.192 7.17896C144.701 7.48482 146.243 7.55858 147.771 7.39799C148.389 7.28371 148.667 7.23609 148.667 6.62661C148.667 6.01714 148.335 5.6743 147.672 5.5505C146.91 5.49018 146.144 5.51572 145.387 5.62669C144.823 5.62669 144.814 4.96959 145.262 4.79818L145.477 4.72199C145.452 4.69006 145.434 4.65279 145.424 4.61275C145.414 4.57272 145.413 4.53087 145.42 4.49011C145.426 4.44935 145.441 4.41065 145.464 4.3767C145.486 4.34274 145.515 4.31434 145.549 4.29345C146.606 3.62683 146.74 2.0079 145.307 1.64602C144.837 1.56865 144.357 1.67068 143.952 1.93397C143.547 2.19727 143.243 2.60476 143.093 3.08401C142.556 4.36963 142.69 5.77906 141.947 6.99802C141.642 7.50274 140.665 7.15991 140.907 6.60757C141.74 4.70294 141.669 0.208031 145.145 0.550863C147.502 0.779418 148.013 3.4078 146.319 4.51248C147.207 4.32067 148.129 4.45499 148.936 4.89341C149.316 5.08693 149.624 5.41133 149.809 5.81405C149.995 6.21677 150.047 6.67422 149.957 7.11229C149.204 9.43594 144.679 8.25507 142.977 7.83605L142.878 7.78843C142.858 7.84571 142.827 7.89799 142.787 7.94216C142.747 7.98634 142.699 8.0215 142.645 8.04556C139.718 9.60546 136.585 10.6843 133.354 11.2453C134.467 11.6989 135.383 12.574 135.925 13.7023C136.174 14.2891 136.297 14.9272 136.287 15.5707C136.276 16.2143 136.131 16.8473 135.863 17.4244C135.595 18.0015 135.21 18.5085 134.736 18.9088C134.262 19.3091 133.71 19.593 133.121 19.74C130.701 20.5113 127.691 19.3971 127.287 16.883C126.947 14.7498 129.572 12.8643 131.553 14.3689C131.875 14.607 131.553 15.1593 131.14 15.0165C128.694 14.1594 127.861 17.1497 129.832 18.2543C130.551 18.6117 131.358 18.7193 132.138 18.5621C132.918 18.4048 133.632 17.9906 134.178 17.3782C134.63 16.7725 134.856 16.0104 134.811 15.2386C134.766 14.4668 134.455 13.7399 133.936 13.1976C133.296 12.6024 132.539 12.167 131.721 11.9231C130.902 11.6792 130.043 11.6331 129.205 11.7881C129.093 11.8036 128.98 11.7802 128.882 11.7215C118.694 12.2357 108.13 8.80741 97.7183 6.52186C98.6486 7.3644 99.2309 8.56111 99.3401 9.85495C99.5014 12.6167 96.9477 15.1212 93.9639 15.445C91.2758 15.7498 87.9963 13.9308 88.534 11.1787C88.669 10.5773 88.9609 10.0286 89.3762 9.59565C89.7914 9.16271 90.3132 8.86309 90.8816 8.73122C92.5124 8.33125 93.7937 9.35975 94.7704 10.4263C95.2363 10.9406 94.5105 11.6263 93.955 11.1691C93.5345 10.8144 93.0881 10.496 92.6199 10.2168C90.9443 9.97875 90.0751 10.5025 90.0214 11.7881C90.0214 12.7405 91.1235 13.588 92.0375 13.8642C92.8141 14.0849 93.6302 14.0969 94.4123 13.8991C95.1943 13.7013 95.9178 13.2998 96.5176 12.7309C99.3491 10.074 96.9656 6.4552 93.5518 5.70287C83.1757 3.82682 72.9967 3.73159 63.5884 10.6739C63.1583 11.0168 62.549 10.493 62.9612 10.074Z" fill="#CA1856" fill-opacity="0.6"/>
</svg>
