<svg width="200" height="130" viewBox="0 0 200 130" fill="none" xmlns="http://www.w3.org/2000/svg">
<path d="M64.544 82.1174L62.5839 82.1708C62.4638 82.1706 62.3891 82.147 62.3599 82.1001C62.3307 82.0561 62.3163 81.9638 62.3166 81.8231C62.3169 81.6825 62.3406 81.5976 62.3875 81.5684C62.4374 81.5363 62.54 81.5203 62.6952 81.5206L63.5566 81.5223C63.665 81.5225 63.7252 78.8581 63.7374 73.529L63.7396 72.5973C63.7425 71.3346 63.7205 70.7033 63.6736 70.7032L62.4826 70.7404C62.3478 70.7402 62.26 70.718 62.2191 70.674C62.1811 70.63 62.1623 70.5347 62.1626 70.3883C62.1629 70.2388 62.1837 70.1466 62.2248 70.1115C62.2688 70.0735 62.3553 70.0546 62.4842 70.0549L64.611 70.0941L66.9667 70.0107C68.5487 70.0138 69.7299 70.4335 70.5102 71.27C71.0626 71.8628 71.3376 72.6397 71.3354 73.6007C71.3324 74.9425 70.756 75.8803 69.6063 76.4142C68.9054 76.741 68.0261 76.9034 66.9685 76.9014L65.4042 76.8456C65.3456 76.8455 65.3089 76.8543 65.2943 76.8718C65.2825 76.8894 65.2765 76.9289 65.2764 76.9904L65.2737 78.1769C65.2686 80.4094 65.2909 81.5256 65.3407 81.5257L66.6151 81.5282C66.7206 81.5284 66.7894 81.549 66.8215 81.5901C66.8537 81.6311 66.8696 81.7147 66.8693 81.8407C66.869 81.9666 66.8527 82.0545 66.8204 82.1042C66.788 82.154 66.7191 82.1787 66.6137 82.1785L64.544 82.1174ZM65.2958 76.217C65.2955 76.3371 65.5063 76.3976 65.9282 76.3984C66.35 76.3992 66.7412 76.3677 67.1017 76.304C67.4622 76.2373 67.8023 76.1281 68.122 75.9763C68.4446 75.8217 68.719 75.6274 68.9451 75.3934C69.4326 74.8934 69.6773 74.2039 69.6793 73.325C69.6806 72.7684 69.5177 72.2803 69.1905 71.8607C68.5215 71.0127 67.4385 70.5873 65.9415 70.5845C65.6778 70.584 65.4917 70.5895 65.3833 70.601C65.3335 70.6185 65.3079 70.9246 65.3065 71.5193L65.2958 76.217ZM75.6041 82.1386L73.4463 82.1916C73.3261 82.1914 73.2544 82.1693 73.2311 82.1253C73.2077 82.0842 73.1962 81.9905 73.1966 81.844C73.1969 81.6975 73.2132 81.6111 73.2455 81.5848C73.2807 81.5556 73.3716 81.5411 73.5181 81.5414L74.564 81.5434C74.6343 81.5435 74.6729 80.0143 74.6799 76.9557L74.6841 75.1188C74.691 72.1305 74.6651 70.6363 74.6065 70.6362L73.8155 70.6347C73.6866 70.6345 73.5943 70.6152 73.5388 70.577C73.4832 70.5389 73.4556 70.4494 73.4559 70.3088C73.4562 70.1682 73.4828 70.0789 73.5356 70.0409C73.5884 70.0029 73.6822 69.9841 73.817 69.9843L75.4912 70.0446L77.4337 69.9912C77.5538 69.9915 77.6284 70.0151 77.6576 70.062C77.6868 70.1089 77.7012 70.2042 77.7009 70.3477C77.7006 70.4883 77.6814 70.5733 77.6432 70.6025C77.6051 70.6288 77.5113 70.6418 77.3619 70.6415L76.3687 70.6396C76.3101 70.6395 76.279 71.426 76.2754 72.9993L76.2876 75.3724C76.2872 75.5071 76.2959 75.5862 76.3134 75.6097C76.3309 75.6332 76.3939 75.645 76.5023 75.6452L83.0721 75.6578C83.1805 75.658 83.2435 75.6494 83.2611 75.6318C83.2787 75.6113 83.2877 75.5469 83.2879 75.4385L83.2929 73.2456C83.2943 72.6392 83.281 72.0562 83.253 71.4965C83.225 70.934 83.1934 70.6527 83.1582 70.6526L82.1299 70.6506C82.0127 70.6504 81.9322 70.6312 81.8884 70.593C81.8445 70.5519 81.8227 70.4611 81.8231 70.3205C81.8234 70.1798 81.8397 70.092 81.872 70.0569C81.9073 70.0189 81.9879 70 82.1138 70.0002L84.0385 70.061L85.7877 70.0072C85.9078 70.0075 85.9824 70.0311 86.0116 70.078C86.0408 70.1249 86.0552 70.2202 86.0549 70.3637C86.0546 70.5043 86.0339 70.5893 85.9928 70.6185C85.9547 70.6448 85.8609 70.6578 85.7115 70.6575L84.9204 70.656C84.8853 70.6559 84.8636 72.4737 84.8552 76.1095C84.8469 79.7452 84.8662 81.5631 84.9131 81.5632L85.8667 81.565C85.9692 81.5652 86.0336 81.5844 86.0599 81.6225C86.0862 81.6607 86.0992 81.7457 86.0989 81.8775C86.0986 82.0064 86.0852 82.0943 86.0587 82.1411C86.0322 82.1908 85.9677 82.2156 85.8652 82.2154L84.1558 82.155L82.121 82.2083C82.0009 82.208 81.9263 82.1844 81.8971 82.1375C81.8679 82.0935 81.8535 82.0012 81.8538 81.8606C81.8541 81.717 81.8733 81.6306 81.9115 81.6014C81.9526 81.5722 82.0478 81.5577 82.1972 81.558L83.186 81.5599C83.2446 81.56 83.2761 80.5889 83.2806 78.6465L83.2857 76.4141C83.2859 76.3115 83.2802 76.25 83.2685 76.2295C83.2569 76.209 83.2276 76.1986 83.1807 76.1986L76.4483 76.1857C76.3663 76.1855 76.3179 76.1957 76.3032 76.2161C76.2914 76.2366 76.2854 76.3099 76.2851 76.4358C76.2773 79.843 76.3276 81.5468 76.436 81.547L77.6225 81.5492C77.7222 81.5494 77.7822 81.5686 77.8026 81.6067C77.8259 81.6419 77.8375 81.7064 77.8373 81.8001C77.8371 81.8939 77.8355 81.9554 77.8325 81.9847C77.8324 82.0111 77.8294 82.0433 77.8235 82.0814C77.8175 82.1165 77.8072 82.1399 77.7925 82.1516C77.7544 82.1838 77.6972 82.1998 77.6211 82.1996L75.6041 82.1386ZM89.3155 79.6688C89.0381 79.2347 88.821 78.7377 88.6641 78.1778C88.5101 77.615 88.4338 77.0157 88.4353 76.38C88.4367 75.7413 88.5129 75.1292 88.6636 74.5435C88.8173 73.9579 89.0294 73.4309 89.3 72.9627C89.5707 72.4916 89.8968 72.0644 90.2786 71.6814C90.6603 71.2954 91.0785 70.9739 91.5332 70.717C92.4778 70.1827 93.5082 69.9166 94.6244 69.9187C96.3676 69.9221 97.7914 70.5473 98.896 71.7946C99.9421 72.9831 100.463 74.4856 100.459 76.302C100.457 77.1985 100.303 78.0258 99.9962 78.784C99.6927 79.5393 99.2723 80.1801 98.735 80.7064C98.1976 81.2327 97.5492 81.6431 96.7898 81.9375C96.0332 82.2291 95.3122 82.3742 94.6267 82.3728C93.9411 82.3715 93.3597 82.3118 92.8824 82.1937C92.4081 82.0756 91.9514 81.9063 91.5125 81.6857C91.0736 81.4622 90.667 81.1787 90.2928 80.8352C89.9186 80.4888 89.5928 80.1 89.3155 79.6688ZM90.238 75.9792C90.2366 76.571 90.2953 77.1614 90.4141 77.7505C90.5329 78.3367 90.7103 78.8731 90.9465 79.3599C91.1827 79.8438 91.4645 80.2647 91.7918 80.6228C92.4785 81.38 93.3302 81.7595 94.3468 81.7615C95.7003 81.7641 96.7886 81.1714 97.6116 79.9835C98.3318 78.9478 98.6936 77.6653 98.6971 76.136C98.6992 75.2102 98.546 74.3208 98.2374 73.4676C97.9317 72.6204 97.4616 71.9237 96.8271 71.3775C96.1722 70.8138 95.3774 70.531 94.4428 70.5292C92.9809 70.5264 91.8307 71.2918 90.9923 72.8253C90.4921 73.7414 90.2407 74.7926 90.238 75.9792ZM102.392 72.3286C102.383 72.4399 102.362 72.5102 102.33 72.5394C102.298 72.5657 102.189 72.5787 102.005 72.5784C101.82 72.578 101.728 72.5119 101.728 72.3801C101.728 72.3713 101.746 72.2366 101.782 71.9759C101.907 71.1119 101.98 70.5407 102.001 70.2624C102.022 69.9812 102.052 69.8202 102.09 69.7792C102.131 69.7383 102.235 69.718 102.402 69.7183C102.569 69.7186 102.653 69.773 102.652 69.8814L102.652 70.0615C102.652 70.1201 103.282 70.1506 104.541 70.153L110.966 70.1654C112.238 70.1678 112.875 70.1163 112.878 70.0108C112.884 69.9054 112.908 69.8336 112.949 69.7956C112.99 69.7576 113.056 69.7387 113.147 69.7389C113.238 69.739 113.299 69.7406 113.331 69.7436C113.364 69.7466 113.397 69.7555 113.433 69.7702C113.494 69.7937 113.525 69.867 113.524 69.9901L113.444 72.4201C113.444 72.5051 113.422 72.5563 113.378 72.5738C113.334 72.5913 113.246 72.5999 113.114 72.5997C112.985 72.5994 112.897 72.5817 112.85 72.5464C112.804 72.5112 112.78 72.4452 112.781 72.3485L112.837 70.9072C112.837 70.8223 112.176 70.7785 110.855 70.776L108.785 70.772C108.709 70.7719 108.666 71.2112 108.655 72.0901C108.647 72.9661 108.641 73.4568 108.638 73.5623L108.512 80.4922C108.511 81.2364 108.522 81.6084 108.545 81.6085L109.824 81.6109C109.926 81.6111 109.994 81.6318 110.026 81.6729C110.058 81.7139 110.074 81.7975 110.074 81.9234C110.073 82.0494 110.057 82.1373 110.025 82.187C109.992 82.2368 109.925 82.2615 109.822 82.2613L107.665 82.2001L105.45 82.253C105.33 82.2527 105.254 82.2291 105.221 82.1822C105.192 82.1382 105.178 82.0459 105.178 81.9053C105.178 81.7617 105.198 81.6753 105.236 81.6461C105.277 81.6169 105.372 81.6024 105.522 81.6027L106.638 81.6048C106.708 81.605 106.766 80.442 106.813 78.1159C106.862 75.7869 106.888 73.9808 106.891 72.6976C106.894 71.4115 106.86 70.7683 106.79 70.7682L104.232 70.7633C103.122 70.7612 102.558 70.8201 102.54 70.9402L102.392 72.3286ZM115.637 79.7192C115.36 79.2851 115.142 78.7881 114.986 78.2282C114.832 77.6655 114.755 77.0662 114.757 76.4304C114.758 75.7918 114.834 75.1796 114.985 74.594C115.139 74.0083 115.351 73.4814 115.621 73.0131C115.892 72.542 116.218 72.1149 116.6 71.7318C116.982 71.3458 117.4 71.0244 117.855 70.7674C118.799 70.2331 119.83 69.967 120.946 69.9691C122.689 69.9725 124.113 70.5978 125.217 71.845C126.264 73.0335 126.785 74.536 126.78 76.3524C126.778 77.2489 126.624 78.0762 126.318 78.8344C126.014 79.5897 125.594 80.2305 125.056 80.7568C124.519 81.2831 123.871 81.6935 123.111 81.988C122.355 82.2795 121.634 82.4246 120.948 82.4233C120.263 82.422 119.681 82.3623 119.204 82.2441C118.73 82.1261 118.273 81.9567 117.834 81.7362C117.395 81.5127 116.988 81.2292 116.614 80.8857C116.24 80.5392 115.914 80.1504 115.637 79.7192ZM116.559 76.0296C116.558 76.6214 116.617 77.2118 116.736 77.8009C116.854 78.3871 117.032 78.9236 117.268 79.4104C117.504 79.8942 117.786 80.3152 118.113 80.6732C118.8 81.4304 119.652 81.8099 120.668 81.8119C122.022 81.8145 123.11 81.2218 123.933 80.034C124.653 78.9982 125.015 77.7157 125.019 76.1864C125.021 75.2607 124.867 74.3712 124.559 73.5181C124.253 72.6708 123.783 71.9741 123.149 71.428C122.494 70.8642 121.699 70.5814 120.764 70.5796C119.302 70.5768 118.152 71.3422 117.314 72.8758C116.814 73.7918 116.562 74.8431 116.559 76.0296ZM135.984 73.4345L136.044 72.2832C136.044 72.1016 135.901 71.8875 135.615 71.6408C135.331 71.3942 135.078 71.2003 134.856 71.0593C134.341 70.7331 133.789 70.5694 133.2 70.5683C132.614 70.5672 132.098 70.7815 131.652 71.2113C131.208 71.6412 130.986 72.1857 130.984 72.8448C130.983 73.5011 131.263 74.0407 131.824 74.4636C132.187 74.7368 132.806 75.0368 133.681 75.3637C134.559 75.6906 135.173 75.9451 135.521 76.1275C136.264 76.5244 136.777 77.0102 137.06 77.585C137.261 77.9955 137.361 78.444 137.36 78.9303C137.359 79.4166 137.28 79.8515 137.124 80.235C136.971 80.6185 136.762 80.9492 136.498 81.227C136.234 81.5019 135.927 81.7386 135.578 81.9371C134.883 82.3284 134.112 82.5232 133.265 82.5216C132.204 82.5195 131.238 82.3654 130.366 82.059C129.894 81.894 129.654 81.7485 129.646 81.6226C129.64 81.4936 129.62 81.208 129.586 80.7655C129.512 79.7458 129.476 79.1847 129.476 79.0822C129.476 78.9796 129.478 78.9167 129.481 78.8932C129.484 78.8698 129.494 78.8434 129.512 78.8142C129.538 78.7615 129.616 78.7353 129.745 78.7355L129.833 78.7357C129.956 78.7359 130.042 78.7581 130.092 78.8021C130.141 78.8432 130.169 78.9209 130.175 79.0352L130.281 80.7273C130.292 80.8767 130.485 81.0382 130.86 81.2118C131.237 81.3854 131.672 81.5298 132.164 81.645C132.659 81.7602 133.097 81.8181 133.477 81.8189C133.858 81.8196 134.228 81.7295 134.585 81.5485C134.943 81.3646 135.23 81.1088 135.444 80.7811C135.662 80.4534 135.771 80.1211 135.772 79.7842C135.772 79.4473 135.717 79.1615 135.607 78.9269C135.499 78.6924 135.366 78.4943 135.208 78.3329C135.05 78.1715 134.834 78.0129 134.559 77.8571C134.178 77.6366 133.748 77.4322 133.268 77.2437C132.791 77.0524 132.487 76.9302 132.355 76.8772C132.223 76.8213 132.037 76.7389 131.797 76.6301C131.56 76.5212 131.376 76.4271 131.244 76.3478C131.113 76.2684 130.947 76.1641 130.748 76.0348C130.552 75.9026 130.399 75.7778 130.288 75.6604C130.177 75.5401 130.054 75.3963 129.92 75.229C129.788 75.0589 129.689 74.8858 129.622 74.7099C129.459 74.2819 129.378 73.8745 129.379 73.4878C129.38 73.0981 129.432 72.7481 129.535 72.4378C129.638 72.1274 129.78 71.8479 129.959 71.5992C130.138 71.3476 130.351 71.118 130.598 70.9105C130.847 70.703 131.116 70.5292 131.403 70.3891C132.01 70.1002 132.579 69.9563 133.109 69.9573C133.642 69.9583 134.102 70.009 134.489 70.1094C134.875 70.2097 135.21 70.3612 135.494 70.5639C135.781 70.7637 135.958 70.8636 136.025 70.8638C136.057 70.8638 136.079 70.7745 136.092 70.5958C136.107 70.4171 136.13 70.3117 136.163 70.2796C136.198 70.2474 136.294 70.2315 136.453 70.2318C136.611 70.2321 136.712 70.2484 136.756 70.2807C136.8 70.313 136.821 70.3995 136.821 70.5401L136.705 73.4007C136.704 73.5267 136.687 73.6102 136.651 73.6511C136.616 73.6891 136.522 73.708 136.37 73.7077C136.218 73.7074 136.115 73.6867 136.063 73.6456C136.01 73.6045 135.984 73.5341 135.984 73.4345Z" fill="#CA1856"/>
<path d="M60.2867 42.8724L61.78 42.8108C61.9304 42.8111 62.0306 42.8399 62.0806 42.8973C62.1306 42.9547 62.1554 43.0603 62.1551 43.2143C62.1547 43.3683 62.124 43.4721 62.063 43.5257C62.0021 43.5757 61.8588 43.6005 61.6332 43.6C61.4112 43.5996 61.2661 43.6208 61.198 43.6637C61.1298 43.7065 61.076 43.778 61.0364 43.8782C61.0003 43.9748 60.9805 44.0249 60.9769 44.0285C60.9769 44.032 60.9751 44.0374 60.9715 44.0446C60.9715 44.0517 60.9697 44.0571 60.9661 44.0607L56.0779 56.002C55.9591 56.2847 55.8351 56.4993 55.7058 56.6458C55.5802 56.7888 55.4886 56.9014 55.4311 56.9837C55.3772 57.0624 55.309 57.1696 55.2263 57.3056C55.1472 57.4415 55.0825 57.5488 55.0322 57.6275C54.9855 57.7097 54.9316 57.7902 54.8705 57.8688C54.5473 58.2872 54.2683 58.1613 54.0335 57.4913C53.9481 57.2583 53.8272 56.866 53.671 56.3143C53.5182 55.7626 53.4188 55.4168 53.3725 55.2771C53.3263 55.1338 53.2624 54.9134 53.1807 54.6161C53.1026 54.3187 52.9943 53.9175 52.8558 53.4123C52.7209 52.9036 52.5718 52.3519 52.4084 51.7572C51.9788 50.188 51.6698 49.072 51.4815 48.4092C51.2968 47.7428 51.1884 47.4096 51.1562 47.4096C51.1239 47.4095 51.0538 47.5418 50.9458 47.8066L47.8065 55.9862C47.6876 56.2688 47.5636 56.4834 47.4344 56.63C47.3087 56.773 47.2172 56.8856 47.1597 56.9678C47.1058 57.0465 47.0375 57.1538 46.9548 57.2897C46.8757 57.4256 46.811 57.5329 46.7607 57.6116C46.714 57.6939 46.6601 57.7743 46.5991 57.853C46.2758 58.2713 45.9968 58.1455 45.762 57.4754C45.6766 57.2425 45.5558 56.8502 45.3995 56.2984C45.2468 55.7467 45.1473 55.401 45.1011 55.2612C45.0584 55.1215 44.9163 54.6432 44.6747 53.8263C44.433 53.0095 44.1452 52.0475 43.8112 50.9404C43.4807 49.8298 43.1467 48.7119 42.8091 47.5869C41.9988 44.9034 41.5686 43.5616 41.5185 43.5615L40.7289 43.56C40.4962 43.5595 40.3638 43.5163 40.3318 43.4303C40.3033 43.3443 40.2892 43.2369 40.2895 43.108C40.2898 42.9755 40.3223 42.886 40.3868 42.8396C40.4514 42.7932 40.566 42.7701 40.7307 42.7704L42.8414 42.8389L45.1297 42.7789C45.2836 42.7792 45.3838 42.8098 45.4302 42.8707C45.4766 42.9281 45.4997 43.041 45.4993 43.2093C45.4989 43.3776 45.4682 43.4795 45.4073 43.5152C45.3499 43.5509 45.2263 43.5686 45.0365 43.5682L43.9408 43.5661C43.8513 43.566 43.7993 43.6106 43.7848 43.7001C43.8408 44.2302 44.3897 46.1219 45.4314 49.3752C46.4767 52.6285 47.0047 54.2766 47.0153 54.3196C47.0296 54.359 47.0456 54.4056 47.0634 54.4593C47.0847 54.5131 47.1007 54.5561 47.1114 54.5883C47.1221 54.617 47.1328 54.6493 47.1434 54.6851C47.1577 54.7209 47.1683 54.7478 47.1755 54.7657C47.1826 54.7836 47.1915 54.8015 47.2022 54.8195C47.2129 54.8338 47.2218 54.8446 47.229 54.8518C47.2361 54.8589 47.2451 54.8625 47.2558 54.8625C47.2665 54.8626 47.2773 54.8554 47.2881 54.8411C47.3024 54.8268 47.3168 54.8036 47.3312 54.7714C47.3456 54.7356 47.36 54.698 47.3744 54.6587C47.3924 54.6193 47.414 54.5674 47.4392 54.503C47.468 54.4351 47.495 54.3707 47.5202 54.3098L50.6861 46.2861C50.7293 46.168 50.751 46.066 50.7512 45.9801C50.7514 45.8905 50.7462 45.8207 50.7356 45.7706C50.725 45.7168 50.7055 45.638 50.6771 45.5341C50.6487 45.4302 50.5989 45.2511 50.5279 44.9967C50.4605 44.7388 50.3645 44.4378 50.2399 44.0938C50.119 43.7498 50.0424 43.5778 50.0102 43.5778L48.7587 43.5754C48.5259 43.5749 48.3936 43.5317 48.3615 43.4457C48.3331 43.3597 48.319 43.2523 48.3193 43.1234C48.3196 42.9909 48.352 42.9014 48.4166 42.855C48.4812 42.8086 48.5958 42.7855 48.7605 42.7858L51.1988 42.8549L53.8415 42.7956C53.9955 42.7958 54.0957 42.8265 54.1421 42.8874C54.1885 42.9448 54.2116 43.0577 54.2112 43.2259C54.2108 43.3907 54.1783 43.4927 54.1138 43.5319C54.0493 43.5676 53.9364 43.5853 53.7753 43.585L52.3842 43.5823C52.3698 43.6109 52.3624 43.7291 52.3619 43.9368C52.3614 44.1444 52.4658 44.6639 52.6752 45.495C52.8846 46.3225 53.094 47.1125 53.3036 47.8648C53.5131 48.6136 53.7209 49.3499 53.9269 50.0736C54.1366 50.7937 54.3231 51.4386 54.4865 52.0082C54.6499 52.5779 54.8026 53.1063 54.9448 53.5936C55.2645 54.6827 55.4584 55.2274 55.5265 55.2275C55.5694 55.2276 55.6666 55.0326 55.8178 54.6426C55.9691 54.249 56.2663 53.4726 56.7094 52.3133C57.1525 51.154 57.4911 50.2558 57.7254 49.6189C57.9631 48.982 58.2514 48.1966 58.5901 47.2627C59.2496 45.4234 59.5797 44.3534 59.5804 44.0526C59.5811 43.7483 59.5367 43.596 59.4472 43.5958L58.0184 43.5931C57.7857 43.5927 57.6533 43.5494 57.6213 43.4634C57.5928 43.3774 57.5788 43.27 57.579 43.1411C57.5794 43.0086 57.6118 42.9192 57.6763 42.8727C57.7409 42.8263 57.8555 42.8032 58.0203 42.8036L60.2867 42.8724ZM67.2237 57.5595L64.538 57.6242C64.3876 57.6239 64.291 57.5951 64.2482 57.5377C64.2089 57.4803 64.1895 57.3693 64.1898 57.2046C64.1902 57.0363 64.2173 56.9325 64.2711 56.8932C64.3285 56.8503 64.4467 56.8291 64.6258 56.8294L65.9685 56.832C66.0294 56.8321 66.061 56.304 66.0635 55.2477L66.0683 53.1369L65.9918 46.6699C65.9941 45.6637 65.969 44.8956 65.9165 44.3656C65.8676 43.8319 65.8288 43.5651 65.8002 43.565L64.7689 43.5631C64.6221 43.5628 64.5219 43.5411 64.4683 43.498C64.4183 43.455 64.3935 43.3278 64.394 43.1166C64.3945 42.9017 64.4914 42.7945 64.6847 42.7948L65.6515 42.8289C66.2959 42.8516 66.7722 42.8633 67.0801 42.8639L72.6232 42.8101C73.368 42.8115 73.7762 42.8015 73.8479 42.7802C73.9231 42.7588 73.9608 42.7106 73.961 42.6354C73.9646 42.6175 73.9701 42.587 73.9773 42.5441C73.9846 42.4976 73.9918 42.4618 73.9991 42.4367C74.0063 42.4081 74.0207 42.3759 74.0423 42.3401C74.0782 42.2865 74.1749 42.2598 74.3325 42.2601C74.4936 42.2604 74.6046 42.2803 74.6653 42.3198C74.7297 42.3558 74.7618 42.44 74.7614 42.5725L74.6635 45.4727C74.6633 45.5765 74.6345 45.6445 74.5771 45.6766C74.5197 45.7051 74.4087 45.7192 74.244 45.7189C73.9826 45.7184 73.8522 45.6072 73.8527 45.3852L73.921 43.6934C73.9211 43.654 73.2211 43.6169 71.8211 43.582C70.4212 43.547 69.1626 43.5285 68.0454 43.5264C67.9594 43.5262 67.9151 44.1384 67.9123 45.363C67.9095 46.5877 67.9143 47.601 67.9268 48.4031C67.9393 49.2052 67.9544 49.6206 67.9723 49.6493C67.9937 49.6744 68.051 49.687 68.1441 49.6872L71.8179 49.6943C72.5806 49.6957 72.9621 49.6016 72.9626 49.4118L72.9652 48.2678C72.9655 48.1209 73.1 48.0478 73.3685 48.0483C73.6407 48.0488 73.7766 48.1153 73.7763 48.2478L73.7293 50.0041L73.768 51.8733C73.7677 52.0058 73.6315 52.0718 73.3593 52.0712C73.0908 52.0707 72.9567 51.9971 72.957 51.8503L72.9595 50.7546C72.96 50.5326 72.5789 50.4208 71.8162 50.4194C70.5737 50.417 69.6392 50.4152 69.0125 50.414C68.3859 50.4128 68.0618 50.414 68.0403 50.4175C68.0224 50.4175 68.0099 50.421 68.0027 50.4282C67.9955 50.4353 67.9866 50.446 67.9758 50.4603C67.965 50.4711 67.9578 50.4872 67.9542 50.5086C67.9542 50.5265 67.9523 50.5498 67.9487 50.5785C67.945 50.6035 67.9624 51.6276 68.0007 53.6508C68.0426 55.6704 68.0994 56.6803 68.171 56.6805L74.9011 56.6289C74.9763 56.629 75.0229 56.6076 75.0409 56.5647C75.0589 56.5218 75.0771 56.4001 75.0955 56.1996C75.1138 55.9991 75.1386 55.3439 75.1698 54.2339C75.1701 54.1014 75.3063 54.0354 75.5785 54.036C75.8506 54.0365 75.9865 54.1101 75.9862 54.2569L75.9147 57.3345C75.9142 57.5421 75.7671 57.6457 75.4735 57.6451L67.2237 57.5595ZM81.601 57.587L78.8025 57.673C78.67 57.6727 78.5859 57.6457 78.5502 57.5919C78.5145 57.5417 78.4969 57.4379 78.4972 57.2803C78.4976 57.1192 78.5301 57.0154 78.5946 56.969C78.6592 56.9226 78.7738 56.8995 78.9385 56.8998L80.3457 56.9025C80.403 56.9026 80.464 55.2914 80.5287 52.0689C80.5969 48.8428 80.6325 46.6067 80.6354 45.3606C80.6382 44.1109 80.6253 43.486 80.5967 43.486L79.0766 43.526C78.962 43.5258 78.8815 43.5078 78.835 43.4719C78.7921 43.4324 78.7708 43.3393 78.7712 43.1924C78.7715 43.0456 78.7897 42.94 78.8256 42.8757C78.8616 42.8113 78.9458 42.7792 79.0783 42.7795L80.6412 42.8039C81.2463 42.8051 82.0879 42.7637 83.1659 42.6799C84.2439 42.5924 85.0783 42.5493 85.6691 42.5504C86.2635 42.5515 86.9866 42.6639 87.8383 42.8875C88.6936 43.1076 89.4699 43.4367 90.1671 43.8749C90.8643 44.3095 91.4665 44.8299 91.9736 45.436C93.0377 46.7128 93.5676 48.2929 93.5633 50.1764C93.5587 52.1923 92.9515 53.8741 91.7417 55.2217C90.6504 56.4406 89.202 57.2113 87.3966 57.5337C86.8342 57.6365 86.2575 57.6873 85.6667 57.6861L81.601 57.587ZM82.7293 43.3773C82.6289 43.4165 82.5736 45.6776 82.5633 50.1607C82.5531 54.6437 82.5551 56.8924 82.5694 56.9068C82.6803 56.9535 83.1618 56.9777 84.014 56.9794C84.8662 56.981 85.6936 56.8805 86.4962 56.678C87.3023 56.4754 87.9582 56.226 88.4637 55.9298C88.9729 55.6336 89.4106 55.2513 89.7769 54.7829C90.1468 54.3145 90.4199 53.8871 90.5962 53.5008C90.7762 53.1144 90.9151 52.6527 91.013 52.1158C91.1399 51.425 91.2041 50.7519 91.2056 50.0966C91.2071 49.4414 91.1386 48.8486 91.0002 48.3184C90.8618 47.7882 90.6642 47.2776 90.4075 46.7865C90.1544 46.2955 89.8332 45.8365 89.4439 45.4097C89.0581 44.9792 88.6293 44.6042 88.1574 44.2846C87.1456 43.5988 85.9826 43.2546 84.6685 43.2521C83.7447 43.2503 83.0983 43.292 82.7293 43.3773ZM99.3729 57.6211L96.5743 57.707C96.4418 57.7068 96.3577 57.6798 96.3221 57.626C96.2864 57.5758 96.2687 57.4719 96.2691 57.3144C96.2694 57.1532 96.3019 57.0495 96.3665 57.003C96.431 56.9566 96.5456 56.9336 96.7104 56.9339L98.1176 56.9366C98.1749 56.9367 98.2359 55.3255 98.3005 52.1029C98.3688 48.8768 98.4043 46.6407 98.4072 45.3946C98.4101 44.1449 98.3972 43.5201 98.3685 43.52L96.8484 43.5601C96.7338 43.5599 96.6533 43.5418 96.6068 43.5059C96.5639 43.4664 96.5427 43.3733 96.543 43.2265C96.5433 43.0797 96.5615 42.9741 96.5974 42.9097C96.6334 42.8453 96.7176 42.8133 96.8501 42.8135L98.413 42.838C99.0182 42.8391 99.8598 42.7978 100.938 42.7139C102.016 42.6265 102.85 42.5833 103.441 42.5844C104.035 42.5856 104.758 42.698 105.61 42.9216C106.465 43.1417 107.242 43.4708 107.939 43.909C108.636 44.3436 109.238 44.8639 109.745 45.4701C110.81 46.7468 111.339 48.327 111.335 50.2104C111.331 52.2264 110.723 53.9081 109.514 55.2558C108.422 56.4747 106.974 57.2454 105.168 57.5678C104.606 57.6705 104.029 57.7213 103.439 57.7202L99.3729 57.6211ZM100.501 43.4113C100.401 43.4505 100.345 45.7116 100.335 50.1947C100.325 54.6778 100.327 56.9265 100.341 56.9408C100.452 56.9876 100.934 57.0118 101.786 57.0134C102.638 57.0151 103.465 56.9146 104.268 56.712C105.074 56.5095 105.73 56.2601 106.236 55.9638C106.745 55.6676 107.182 55.2853 107.549 54.8169C107.919 54.3486 108.192 53.9212 108.368 53.5348C108.548 53.1484 108.687 52.6868 108.785 52.1499C108.912 51.459 108.976 50.786 108.977 50.1307C108.979 49.4754 108.91 48.8827 108.772 48.3525C108.634 47.8223 108.436 47.3116 108.179 46.8206C107.926 46.3295 107.605 45.8706 107.216 45.4437C106.83 45.0133 106.401 44.6383 105.929 44.3187C104.917 43.6328 103.754 43.2886 102.44 43.2861C101.517 43.2844 100.87 43.3261 100.501 43.4113ZM117.123 57.6551L114.303 57.7195C114.149 57.7192 114.049 57.6886 114.003 57.6276C113.956 57.5703 113.933 57.4574 113.934 57.2891C113.934 57.1208 113.963 57.0188 114.02 56.9831C114.081 56.9439 114.207 56.9244 114.396 56.9248L115.847 56.9276C115.979 56.9278 116.051 54.2585 116.064 48.9197L116.069 46.7659C116.071 45.7346 116.048 44.9486 115.999 44.4078C115.953 43.867 115.92 43.5966 115.899 43.5966L114.448 43.5938C114.298 43.5935 114.194 43.5718 114.137 43.5288C114.08 43.4821 114.051 43.371 114.052 43.1956C114.052 43.0201 114.079 42.911 114.133 42.8681C114.187 42.8217 114.293 42.7986 114.45 42.7989L117.2 42.874C117.2 42.874 118.065 42.8524 119.794 42.8091C119.923 42.8094 120.006 42.84 120.041 42.9009C120.081 42.9583 120.1 43.0729 120.1 43.2448C120.099 43.4166 120.077 43.5204 120.034 43.5562C119.995 43.5883 119.886 43.6042 119.707 43.6039L118.273 43.6011C118.144 43.6009 118.077 44.7376 118.071 47.0114L118.065 49.9816C118.054 54.6151 118.113 56.9319 118.242 56.9322L119.762 56.9351C119.887 56.9353 119.97 56.9605 120.009 57.0107C120.048 57.0609 120.068 57.163 120.067 57.317C120.067 57.471 120.047 57.5784 120.008 57.6392C119.968 57.6999 119.886 57.7302 119.76 57.73L117.123 57.6551ZM124.754 57.6697L122.907 57.736C122.76 57.7357 122.669 57.7069 122.633 57.6496C122.597 57.5958 122.58 57.4829 122.58 57.3111C122.58 57.1356 122.604 57.03 122.651 56.9943C122.697 56.9586 122.812 56.9409 122.994 56.9413L124.01 56.9432C124.106 56.9434 124.162 56.6248 124.178 55.9875C124.198 55.3466 124.221 54.6 124.248 53.7479C124.348 50.5827 124.402 47.2044 124.411 43.6129L122.982 43.6102C122.857 43.6099 122.774 43.5847 122.735 43.5345C122.696 43.4843 122.676 43.3822 122.677 43.2282C122.677 43.0743 122.697 42.9669 122.736 42.9061C122.776 42.8453 122.858 42.815 122.984 42.8152C122.984 42.8152 123.805 42.8401 125.449 42.8898L126.658 42.8223C126.722 42.8224 126.769 42.8279 126.797 42.8387C126.826 42.8459 126.847 42.8513 126.862 42.8549C126.876 42.8585 126.892 42.8675 126.91 42.8818C126.928 42.8962 126.942 42.907 126.953 42.9142C126.964 42.9213 126.978 42.9357 126.996 42.9572C127.017 42.9787 127.031 42.9949 127.039 43.0056C127.046 43.0164 127.062 43.0379 127.087 43.0702C127.112 43.0989 127.13 43.1204 127.14 43.1347L136.047 54.1303C136.219 54.3455 136.322 54.4352 136.358 54.3995C136.401 54.3566 136.423 54.2224 136.424 53.9968L136.426 53.0729L136.402 44.8014C136.403 44.0244 136.397 43.6359 136.383 43.6358L134.336 43.6319C134.215 43.6317 134.14 43.6101 134.111 43.567C134.086 43.5204 134.074 43.4398 134.074 43.3253C134.074 43.2107 134.074 43.1373 134.074 43.105C134.078 43.0692 134.084 43.0299 134.091 42.9869C134.098 42.9404 134.111 42.91 134.129 42.8957C134.175 42.8564 134.245 42.8368 134.338 42.837L136.712 42.9114L138.581 42.8451C138.728 42.8454 138.816 42.8742 138.844 42.9316C138.876 42.9853 138.892 43.1 138.892 43.2754C138.892 43.4473 138.864 43.5511 138.811 43.5868C138.757 43.6225 138.637 43.6402 138.451 43.6398L137.457 43.6379C137.4 43.6378 137.368 44.0943 137.363 45.0073C137.357 45.9168 137.328 47.4064 137.277 49.4759C137.226 51.5455 137.175 53.402 137.125 55.0455C137.078 56.6854 137.055 57.5178 137.055 57.5429C137.054 57.9081 136.957 58.0906 136.763 58.0902C136.67 58.09 136.579 58.0326 136.49 57.9178C136.4 57.803 136.347 57.7349 136.329 57.7134C129.13 48.9304 125.494 44.4958 125.419 44.4098C125.344 44.3201 125.292 44.2824 125.263 44.2967C125.224 44.3216 125.202 45.2974 125.197 47.2238L125.159 54.7701C125.155 56.2203 125.182 56.9455 125.24 56.9456L127.13 56.9492C127.252 56.9494 127.327 56.9728 127.356 57.0194C127.384 57.0625 127.398 57.1538 127.398 57.2934C127.398 57.4295 127.394 57.5226 127.387 57.5727C127.368 57.6873 127.282 57.7444 127.128 57.7441L124.754 57.6697ZM155.64 54.098L155.614 56.0584C155.614 56.284 155.178 56.5965 154.307 56.9959C152.672 57.7447 151.067 58.1176 149.492 58.1146C147.762 58.1113 146.263 57.7145 144.993 56.9243C143.61 56.0623 142.656 54.8144 142.134 53.1806C141.857 52.3063 141.719 51.3625 141.721 50.3492C141.724 49.3359 141.862 48.4212 142.136 47.6054C142.41 46.7859 142.791 46.0776 143.279 45.4806C143.771 44.88 144.353 44.369 145.023 43.9478C146.357 43.1089 147.946 42.6912 149.79 42.6947C151.505 42.698 152.994 43.1395 154.256 44.0192C154.431 44.1556 154.519 44.1486 154.519 43.9982L154.52 43.4504C154.521 43.3107 154.544 43.2177 154.591 43.1712C154.641 43.1212 154.752 43.0963 154.924 43.0967C155.096 43.097 155.218 43.1205 155.289 43.1672C155.364 43.2139 155.402 43.3088 155.401 43.4521L155.322 47.5232C155.322 47.6593 155.293 47.7487 155.236 47.7916C155.178 47.8309 155.058 47.8503 154.876 47.85C154.693 47.8496 154.571 47.8315 154.51 47.7956C154.45 47.7561 154.419 47.679 154.42 47.5644L154.515 45.7599C154.515 45.5881 154.198 45.2473 153.561 44.7376C152.461 43.8618 151.174 43.4225 149.703 43.4197C148.926 43.4182 148.191 43.5922 147.499 43.9418C146.811 44.2914 146.217 44.7701 145.718 45.3778C145.223 45.982 144.829 46.7135 144.537 47.5724C144.245 48.4276 144.098 49.2813 144.096 50.1335C144.094 50.9857 144.187 51.7612 144.375 52.4598C144.563 53.1584 144.838 53.7998 145.198 54.3842C145.558 54.965 145.981 55.476 146.467 55.9174C147.5 56.8539 148.715 57.3235 150.111 57.3262C151.347 57.3286 152.341 57.1031 153.094 56.6498C153.441 56.4392 153.621 56.2766 153.632 56.1621C153.676 55.7862 153.699 55.1471 153.701 54.2447C153.703 53.3388 153.654 52.8857 153.553 52.8855L151.636 52.8819C151.475 52.8816 151.395 52.7507 151.395 52.4893C151.396 52.2243 151.47 52.092 151.616 52.0923L154.565 52.1624L156.547 52.1017C156.708 52.102 156.788 52.2347 156.788 52.4997C156.787 52.761 156.706 52.8916 156.545 52.8913L155.863 52.89C155.77 52.8898 155.709 52.9792 155.68 53.1582C155.654 53.3336 155.641 53.6469 155.64 54.098Z" fill="#CA1856"/>
<path d="M139.515 12.9942C142.669 12.4748 146.233 11.8304 146.601 8.42557C146.601 8.15626 146.318 8.03123 146.076 8.06008C142.68 8.55061 138.716 9.78174 136.939 12.6864C135.879 12.6658 134.819 12.766 133.785 12.9846C131.827 13.4172 129.997 14.238 128.423 15.3892C128.732 14.1966 128.691 12.9507 128.305 11.7772C127.919 10.6037 127.202 9.54384 126.226 8.7045C123.724 6.55002 120.538 7.94466 119.476 10.6281C118.656 12.6768 121.085 16.0528 123.44 14.0907C125.206 12.6191 124.271 10.2434 121.789 11.2052C121.295 11.388 121.505 12.1671 122.01 11.9362C122.925 11.59 123.797 11.715 123.472 12.7826C123.396 12.9983 123.268 13.1953 123.096 13.3582C122.924 13.5211 122.714 13.6455 122.481 13.7218C122.248 13.7981 121.999 13.8242 121.753 13.7981C121.507 13.772 121.272 13.6944 121.064 13.5713C118.604 12.4171 120.917 9.05076 122.672 8.4929C124.67 7.86772 126.415 9.82022 127.172 11.2245C127.643 12.0204 127.873 12.9165 127.84 13.8208C127.807 14.7251 127.511 15.6051 126.983 16.3702C126.95 16.4072 126.926 16.4509 126.915 16.4978C126.905 16.5447 126.906 16.5933 126.92 16.6395C125.995 17.4547 125.151 18.343 124.397 19.2942C123.188 20.8331 122.052 22.4105 120.885 23.9783C120.76 21.4319 120.148 18.9253 119.077 16.5722C119.039 16.5165 118.986 16.4706 118.924 16.4387C118.861 16.4069 118.791 16.3902 118.719 16.3902C118.648 16.3902 118.577 16.4069 118.515 16.4387C118.452 16.4706 118.4 16.5165 118.362 16.5722C117.552 17.9725 117.266 19.5769 117.547 21.1401C117.828 22.7032 118.661 24.1393 119.918 25.2286C119.119 26.2674 118.32 27.2965 117.458 28.2872C117.342 28.4123 117.216 28.5565 117.1 28.7008C117.052 28.74 117.016 28.7896 116.995 28.8451C115.239 30.8264 112.558 33.5772 109.688 33.3176C109.7 33.121 109.667 32.9243 109.591 32.74C109.516 32.5556 109.399 32.3876 109.249 32.2466C109.099 32.1056 108.918 31.9946 108.719 31.9207C108.519 31.8468 108.305 31.8115 108.09 31.8171C107.674 31.8475 107.285 32.0203 107.002 32.301C106.718 32.5817 106.561 32.9499 106.561 33.332C106.561 33.7141 106.718 34.0822 107.002 34.363C107.285 34.6437 107.674 34.8165 108.09 34.8469C108.384 34.8571 108.674 34.7888 108.926 34.6505C109.179 34.5121 109.381 34.3097 109.509 34.0678C111.738 34.3082 113.715 32.904 115.355 31.5574C116.209 30.8133 117.01 30.0198 117.752 29.1817C119.771 27.739 124.933 27.8159 124.796 30.9515C124.723 32.6731 122.967 33.558 121.285 33.5388C120.855 33.542 120.431 33.4458 120.052 33.2592C119.673 33.0725 119.352 32.8015 119.119 32.4712C118.068 30.9515 120.097 29.8838 121.453 30.7687C121.884 31.0573 122.294 30.3936 121.863 30.1147C121.419 29.7892 120.86 29.6233 120.292 29.6482C119.724 29.673 119.185 29.8868 118.777 30.2495C118.369 30.6121 118.12 31.0987 118.076 31.6176C118.033 32.1365 118.198 32.6521 118.541 33.0675C119.802 34.9142 123.146 34.5198 124.607 33.1637C124.987 32.8139 125.273 32.3878 125.441 31.9192C125.609 31.4507 125.655 30.9527 125.575 30.4649C125.495 29.9772 125.292 29.5132 124.982 29.1101C124.671 28.7069 124.262 28.3757 123.787 28.1429C123.058 27.7795 122.255 27.5577 121.428 27.4915C120.602 27.4253 119.769 27.5161 118.982 27.7582C119.508 27.1234 120.034 26.4694 120.507 25.8346C120.562 25.8401 120.618 25.8347 120.671 25.8187C120.724 25.8027 120.773 25.7765 120.813 25.7418C120.854 25.7072 120.887 25.6649 120.908 25.6178C120.929 25.5708 120.94 25.52 120.938 25.4691C120.938 25.4018 120.938 25.3344 120.938 25.2671L122.315 23.4204C123.735 21.3429 125.346 19.3801 127.13 17.5533C127.203 17.5512 127.273 17.5276 127.33 17.4859C129.222 16.1586 133.523 15.2257 135.215 17.3032C136.435 18.794 135.142 20.5734 133.712 21.3813C132.959 21.817 132.052 21.9719 131.178 21.8142C130.884 21.7219 130.621 21.5605 130.416 21.3461C130.211 21.1317 130.072 20.8719 130.011 20.5926C129.328 18.7171 131.693 19.2172 132.356 19.5635C132.45 19.6145 132.563 19.629 132.67 19.6037C132.776 19.5785 132.867 19.5156 132.923 19.4288C132.979 19.3421 132.995 19.2387 132.967 19.1412C132.94 19.0438 132.871 18.9605 132.776 18.9094C130.389 17.6687 128.066 19.5442 129.717 21.7949C131.21 23.7955 134.563 22.17 135.762 20.7754C136.084 20.3854 136.307 19.9341 136.414 19.4549C136.521 18.9757 136.508 18.4806 136.378 18.0063C136.248 17.5319 136.003 17.0903 135.662 16.7139C135.321 16.3376 134.891 16.0361 134.406 15.8316C132.825 15.3119 131.104 15.2714 129.496 15.7162L129.853 15.4757C131.902 14.1725 134.35 13.4988 136.845 13.5521C136.915 13.6144 137.01 13.6492 137.108 13.6492C137.206 13.6492 137.3 13.6144 137.37 13.5521C140.435 13.7812 143.303 15.0262 145.434 17.0531C145.515 17.1087 145.616 17.1357 145.717 17.1291C145.818 17.1225 145.913 17.0829 145.984 17.0174C146.056 16.9519 146.099 16.865 146.106 16.7726C146.113 16.6802 146.084 16.5886 146.023 16.5145C144.25 14.8143 141.998 13.5959 139.515 12.9942ZM118.688 17.6879C119.53 19.8231 120.002 22.0656 120.086 24.3341C119.218 23.4456 118.629 22.3582 118.383 21.1878C118.137 20.0174 118.242 18.8079 118.688 17.6879V17.6879ZM145.676 8.88725C144.982 11.7727 140.924 12.0036 138.075 12.4748C139.768 10.3396 142.88 9.35854 145.676 8.88725Z" fill="black"/>
<path d="M199.422 58.9405C195.164 60.5852 190.643 61.8259 187.331 64.7691C188.079 62.7627 188.525 60.6723 188.656 58.5557C188.707 58.5234 188.749 58.4804 188.778 58.4302C188.807 58.38 188.823 58.3241 188.824 58.2672C188.824 56.6225 189.991 52.3904 192.441 52.8617C193.912 53.1407 193.912 54.997 193.555 55.9877C193.451 56.2754 193.284 56.5411 193.066 56.7691C192.847 56.9971 192.581 57.1827 192.283 57.315C190.674 58.0748 191.284 56.3532 192.02 55.8915C192.441 55.6029 192.02 54.9297 191.599 55.2374C191.23 55.4686 190.926 55.7765 190.712 56.136C190.499 56.4955 190.381 56.8962 190.369 57.3054C190.376 57.4566 190.419 57.6047 190.495 57.739C190.572 57.8734 190.679 57.9906 190.811 58.0825C190.942 58.1743 191.094 58.2385 191.256 58.2704C191.418 58.3024 191.585 58.3013 191.747 58.2672C192.255 58.1605 192.733 57.9587 193.151 57.6746C193.57 57.3905 193.919 57.0302 194.178 56.6164C194.437 56.2025 194.599 55.7442 194.655 55.2701C194.71 54.7961 194.658 54.3167 194.501 53.862C194.406 53.4477 194.185 53.066 193.865 52.7602C193.545 52.4544 193.137 52.2366 192.689 52.1316C192.241 52.0265 191.769 52.0383 191.327 52.1656C190.886 52.293 190.492 52.5308 190.191 52.8521C189.484 53.5678 188.953 54.414 188.635 55.3336C188.418 53.3394 187.916 51.3798 187.142 49.505C187.187 49.5128 187.233 49.5128 187.278 49.505C190.622 47.7641 196.162 42.551 192.136 39.1558C192.072 39.0941 191.988 39.0538 191.896 39.0416C191.805 39.0294 191.711 39.0459 191.631 39.0884C188.719 41.0121 186.374 43.6379 185.87 46.8888C184.748 44.8931 183.391 43.0159 181.822 41.291C181.826 41.2221 181.803 41.1542 181.759 41.0986C180.413 39.3481 179.12 37.4533 179.656 35.2219C180.14 33.2983 182.369 30.4128 184.787 31.6439C186.038 32.2691 186.101 34.3563 186.027 35.4912C185.954 36.6262 184.976 38.4825 183.42 37.3283C182.369 36.5877 183.178 35.0103 184.072 34.5967C184.555 34.3755 184.135 33.7215 183.651 33.9427C181.654 34.8564 181.612 37.9054 183.998 38.3671C187.005 38.9538 187.037 34.6833 186.627 33.1059C185.922 30.4128 183.115 30.0088 180.991 31.7305C178.415 33.8273 178.373 36.4819 179.467 38.9634C177.651 37.2667 175.705 35.6917 173.642 34.2505C175.23 29.8742 176.796 25.2767 173.548 21.1985C173.511 21.1427 173.46 21.0965 173.398 21.0644C173.336 21.0323 173.266 21.0155 173.195 21.0155C173.124 21.0155 173.055 21.0323 172.993 21.0644C172.931 21.0965 172.88 21.1427 172.843 21.1985C170.74 24.6226 168.932 28.8065 170.909 32.4326C167.806 30.5595 164.571 28.8759 161.226 27.3927L158.482 26.1615C160.416 19.7269 149.261 17.9187 144.372 18.1014C144.309 18.1029 144.246 18.1172 144.189 18.1434C144.132 18.1697 144.082 18.2071 144.043 18.2531C144.004 18.2991 143.976 18.3525 143.962 18.4095C143.948 18.4664 143.948 18.5254 143.962 18.5824C145.319 24.8246 151.101 30.23 158.198 26.9117C159.733 27.6043 161.289 28.2679 162.75 29.0085L163.15 29.2105C161.682 29.2285 160.26 29.6769 159.091 30.4897C158.685 30.7935 158.367 31.1854 158.168 31.6299C157.968 32.0744 157.893 32.5574 157.95 33.0351C158.006 33.5128 158.192 33.9701 158.491 34.3654C158.789 34.7607 159.191 35.0816 159.659 35.2988C161.394 36.0972 164.043 35.5297 163.518 33.3752C163.454 32.9287 163.221 32.5167 162.86 32.211C162.498 31.9054 162.031 31.7255 161.539 31.7026C161.048 31.6797 160.563 31.8153 160.17 32.0858C159.776 32.3563 159.499 32.7445 159.386 33.1828C159.357 33.2798 159.371 33.3834 159.425 33.4709C159.479 33.5583 159.569 33.6225 159.675 33.6493C159.781 33.6761 159.894 33.6633 159.99 33.6137C160.085 33.5641 160.156 33.4818 160.185 33.3848C160.816 31.1919 164.085 33.7407 162.161 34.8276C161.82 34.9461 161.455 34.9939 161.091 34.9672C160.727 34.9406 160.375 34.8403 160.059 34.6737C159.638 34.5178 159.283 34.2415 159.048 33.8861C158.813 33.5307 158.71 33.1153 158.755 32.7019C158.545 30.0473 163.202 29.4317 165.147 30.1723C165.209 30.1901 165.275 30.1901 165.337 30.1723C169.164 32.0935 172.78 34.3482 176.134 36.9051C172.98 36.6454 170.036 37.6842 166.966 38.3286C166.905 38.3444 166.849 38.3727 166.801 38.4114C166.754 38.45 166.717 38.4979 166.692 38.5516C166.668 38.6053 166.657 38.6633 166.661 38.7213C166.665 38.7793 166.683 38.8357 166.714 38.8864C169.679 42.551 174.662 40.9736 177.606 38.117L177.753 38.2324C181.894 41.751 185.018 46.1523 186.847 51.0439C184.745 49.3896 181.591 48.7451 178.994 48.2931C178.932 48.2785 178.868 48.2769 178.806 48.2884C178.743 48.2999 178.685 48.3241 178.634 48.3593C178.583 48.3944 178.542 48.4396 178.513 48.4915C178.485 48.5433 178.469 48.6005 178.468 48.6586C178.205 52.9964 184.282 56.4493 187.394 52.804C188.251 56.2761 188.106 59.8922 186.973 63.2975C186.322 61.672 184.713 60.4698 183.483 59.1905C183.44 59.1486 183.386 59.1167 183.327 59.0974C183.267 59.078 183.203 59.0719 183.141 59.0794C183.078 59.0869 183.019 59.1078 182.967 59.1405C182.915 59.1732 182.872 59.2167 182.842 59.2675C182.452 59.8464 182.233 60.5082 182.208 61.1877C182.183 61.8673 182.351 62.5411 182.697 63.143C183.043 63.7448 183.554 64.2538 184.181 64.6199C184.807 64.986 185.527 65.1965 186.269 65.2308C186.122 65.577 185.985 65.9329 185.828 66.2888C185.735 66.3353 185.663 66.4093 185.623 66.4985C185.583 66.5877 185.577 66.6868 185.607 66.7793C183.965 70.1183 181.762 73.2014 179.078 75.9166C179.599 74.4704 179.699 72.925 179.369 71.4326C179.039 69.9401 178.29 68.5519 177.196 67.4045C177.15 67.366 177.095 67.3371 177.035 67.32C176.975 67.3028 176.912 67.2977 176.85 67.305C176.788 67.3123 176.729 67.3319 176.676 67.3623C176.623 67.3928 176.578 67.4335 176.544 67.4815C173.863 71.2614 174.252 74.8394 175.598 79.0233C175.598 79.0233 175.598 79.0233 175.598 79.081C174.476 80.0044 173.302 80.8796 172.076 81.7068L171.666 81.9184C171.601 81.955 171.55 82.0086 171.519 82.0723C170.772 82.5532 170.015 83.0341 169.248 83.4766C170.11 82.4041 170.676 81.1568 170.898 79.8409C171.224 77.3979 169.069 75.176 166.304 76.2052C164.359 76.9362 162.929 80.4757 165.789 81.1297C167.891 81.6106 169.595 79.4081 166.987 78.7636C166.881 78.7381 166.769 78.7522 166.674 78.8027C166.579 78.8532 166.51 78.936 166.483 79.0329C166.455 79.1299 166.47 79.233 166.525 79.3196C166.58 79.4061 166.671 79.4691 166.777 79.4946C167.555 80.6103 167.103 80.7835 165.442 80.0236C165.19 79.7633 165.036 79.4355 165.004 79.0889C164.972 78.7423 165.062 78.3955 165.263 78.1C165.49 77.6983 165.828 77.3576 166.242 77.1113C166.657 76.8651 167.135 76.7219 167.628 76.6957C169.731 76.5226 170.299 78.7252 170.005 80.1294C169.744 81.2908 169.204 82.3845 168.424 83.3312C167.644 84.2778 166.643 85.0536 165.494 85.6022C165.42 85.6291 165.36 85.6807 165.326 85.7465C161.146 87.8149 156.811 89.6085 152.352 91.1135C156.558 87.6413 159.27 82.5628 158.156 77.3113C158.136 77.2485 158.099 77.1915 158.048 77.1458C157.997 77.1002 157.934 77.0675 157.865 77.051C157.796 77.0345 157.724 77.0347 157.655 77.0517C157.586 77.0687 157.523 77.1018 157.472 77.1478C152.878 80.5719 148.231 85.6984 150.849 91.2866L150.06 91.8252C150.023 91.8523 149.991 91.8848 149.966 91.9214C148.914 92.258 147.937 92.585 146.927 92.8832C141.923 94.451 136.866 95.9033 131.861 97.4711L132.135 97.2499C136.529 93.6238 140.545 89.3822 139.305 83.5439C139.285 83.4803 139.248 83.4225 139.196 83.376C139.145 83.3295 139.081 83.296 139.011 83.2786C138.941 83.2612 138.868 83.2605 138.798 83.2767C138.728 83.2928 138.663 83.3252 138.611 83.3708C133.848 86.968 129.149 91.4693 130.747 97.3749L129.769 98.1444C128.055 98.7022 126.342 99.2697 124.649 99.8757C117.868 102.29 110.855 105.233 105.314 109.638C101.878 112.265 99.111 115.548 97.2085 119.256C95.8312 122.142 95.295 125.989 97.5659 128.567C99.3848 130.635 102.045 130.49 102.991 127.942C103.779 125.787 100.573 123.921 99.2797 126.201C99.0378 126.634 99.7528 127.018 99.9946 126.585L101.95 126.47C102.153 126.791 102.25 127.159 102.229 127.529C102.209 127.9 102.072 128.257 101.834 128.557C101.736 128.733 101.599 128.887 101.432 129.012C101.265 129.136 101.071 129.227 100.863 129.278C100.655 129.33 100.438 129.341 100.225 129.311C100.012 129.282 99.8082 129.212 99.6266 129.105C98.721 128.684 97.9848 128.01 97.5239 127.182C96.0099 124.806 97.0403 121.411 98.1442 119.083C98.9757 117.424 100.036 115.87 101.298 114.457C101.359 114.452 101.418 114.435 101.471 114.407C101.524 114.378 101.569 114.34 101.603 114.293C102.262 113.54 103.107 112.94 104.068 112.542C105.029 112.144 106.079 111.96 107.133 112.004C108.952 112.004 111.612 112.745 111.339 114.822C111.065 116.9 108.574 118.141 106.429 118.372C105.262 118.497 104.147 118.179 104.158 116.929C104.114 116.579 104.223 116.228 104.461 115.952C104.7 115.676 105.048 115.498 105.43 115.457C106.629 115.39 106.481 116.313 105.493 116.64C104.999 116.804 105.209 117.544 105.714 117.371C109.268 116.198 105.556 113.457 103.832 115.448C103.418 115.947 103.232 116.574 103.313 117.196C103.393 117.818 103.734 118.388 104.263 118.785C105.493 119.603 107.691 119.054 108.921 118.535C111.644 117.4 113.683 113.899 110.603 112.043C109.599 111.518 108.473 111.222 107.318 111.18C106.163 111.138 105.014 111.352 103.969 111.802C105.266 110.642 106.65 109.565 108.111 108.58C109.603 107.587 111.151 106.665 112.748 105.82C114.913 111.485 127.309 112.976 130.253 107.243C130.284 107.193 130.302 107.136 130.305 107.078C130.309 107.02 130.298 106.962 130.274 106.908C130.25 106.855 130.213 106.807 130.165 106.768C130.118 106.73 130.061 106.701 130 106.685C127.135 105.739 124.188 105.015 121.19 104.521C119.367 104.176 117.494 104.115 115.649 104.339C120.232 102.228 124.968 100.406 129.822 98.885C129.885 98.9001 129.952 98.9009 130.016 98.8875C130.08 98.8742 130.139 98.8469 130.19 98.808C130.211 98.7832 130.236 98.7607 130.263 98.7407L131.315 98.4233C131.368 98.4541 131.427 98.4737 131.49 98.4805C131.552 98.4874 131.616 98.4813 131.675 98.4629C131.735 98.4444 131.789 98.414 131.834 98.3739C131.879 98.3338 131.913 98.2849 131.935 98.2309L135.089 97.2691C135.804 100.491 139.862 102.078 143.027 102.694C146.191 103.309 150.985 103.3 152.584 100.183C152.615 100.133 152.633 100.076 152.636 100.018C152.64 99.9603 152.629 99.9023 152.605 99.8486C152.581 99.7949 152.544 99.747 152.496 99.7084C152.449 99.6697 152.392 99.6414 152.331 99.6256C147.337 98.6638 142.564 96.894 137.454 96.5574C144.32 94.5087 151.311 92.5273 157.956 89.9496C158.012 89.9844 158.078 90.003 158.145 90.003C158.213 90.003 158.279 89.9844 158.334 89.9496C160.437 88.7474 169.3 87.8432 168.69 91.7098C168.217 94.1624 164.811 95.2204 162.487 95.2204C161.11 95.2204 158.892 93.7008 160.206 92.335C161.015 91.5174 163.476 91.9118 162.235 93.2968C161.899 93.6719 162.477 94.2105 162.824 93.8258C164.863 91.5559 161.11 90.3055 159.449 91.9695C158.534 92.9313 159.207 94.576 160.195 95.2204C161.878 96.3265 164.085 95.9995 165.883 95.3455C168.627 94.3836 171.066 90.8826 167.818 89.0551C166.125 88.2543 164.215 87.9202 162.319 88.0933C165.333 86.7685 168.236 85.2414 171.003 83.5247C172.675 86.0927 177.038 86.1889 179.877 85.7849C183.115 85.3233 187.604 83.9671 188.351 80.5911C188.367 80.5348 188.368 80.476 188.356 80.419C188.343 80.362 188.317 80.3083 188.278 80.2621C188.24 80.2158 188.191 80.1781 188.134 80.1518C188.077 80.1255 188.015 80.1112 187.951 80.1102C183.578 79.9274 179.33 79.4658 175.335 80.543C175.64 80.3122 175.934 80.0525 176.239 79.812C176.33 79.8067 176.415 79.7727 176.481 79.7158C176.867 79.4294 177.219 79.107 177.532 78.754C180.767 75.867 183.472 72.5219 185.544 68.8472C185.775 68.424 185.996 68.0008 186.206 67.5776C191.242 71.8289 199.348 63.9804 200.021 59.3444C200.032 59.2751 200.023 59.2043 199.994 59.1395C199.964 59.0747 199.916 59.0185 199.855 58.9769C199.793 58.9353 199.72 58.9099 199.644 58.9035C199.567 58.8971 199.491 58.9099 199.422 58.9405V58.9405ZM157.704 25.7191C155.252 24.7055 153.046 23.2536 151.217 21.4486C150.88 21.0735 150.292 21.6217 150.639 21.9872C152.503 23.8423 154.756 25.3369 157.262 26.3827C151.038 28.9316 146.223 24.1128 144.856 18.7651C149.44 18.7266 159.134 20.2656 157.704 25.7191ZM172.423 33.4137C172.431 33.3355 172.408 33.2572 172.36 33.1925C169.815 30.1242 170.846 26.4597 172.507 23.3049C171.676 26.6328 172.286 30.2685 172.717 33.5964L172.423 33.4137ZM173.537 22.6893C175.272 25.7576 174.494 29.0759 173.379 32.3076C173.022 29.1047 172.601 25.7191 173.6 22.6509L173.537 22.6893ZM167.744 39.0403C170.73 38.3574 173.684 37.3764 176.765 37.8765C174.41 40.0406 170.415 41.5892 167.807 38.973L167.744 39.0403ZM192.23 40.4061C192.517 40.9579 192.65 41.5657 192.619 42.1759C192.525 44.5227 189.991 46.8984 187.762 48.2931C189.038 45.5354 190.554 42.8755 192.293 40.3388L192.23 40.4061ZM186.669 48.7067L186.416 48.1488C186.453 48.0893 186.478 48.0241 186.49 47.9564C186.628 45.727 187.605 43.6099 189.255 41.9643C189.808 41.3896 190.413 40.8587 191.063 40.3773C191.169 40.289 191.29 40.2175 191.421 40.1657C189.617 42.8733 188.049 45.7066 186.732 48.6393L186.669 48.7067ZM179.225 49.2453C181.853 49.707 185.039 50.3995 186.837 52.2654C184.377 55.5164 179.498 52.6405 179.288 49.178L179.225 49.2453ZM113.736 106.339C118.33 108.263 123.976 108.34 128.886 107.743C125.763 111.62 116.28 110.542 113.799 106.272L113.736 106.339ZM121.968 105.522C124.107 105.906 126.214 106.423 128.276 107.07C123.65 107.58 118.351 107.455 114.093 105.637C116.511 104.55 119.55 105.031 122.031 105.454L121.968 105.522ZM138.59 84.9385C138.958 89.2475 136.224 92.6331 132.934 95.5186C133.617 94.0182 134.258 92.4985 134.952 91.0077C135.541 89.738 136.161 88.4877 136.855 87.2565C137.286 86.564 137.865 85.2656 138.653 84.8712L138.59 84.9385ZM131.462 96.769H131.399C130.484 92.4504 133.112 88.9782 136.445 86.0639C135.835 87.0257 135.394 88.2376 134.994 88.9493C133.785 91.527 132.765 94.1528 131.525 96.7016L131.462 96.769ZM150.817 100.203L151.396 100.337C148.578 104.31 138.201 102.338 136.025 98.1348C137.801 99.1575 139.799 99.814 141.881 100.058C144.694 100.564 147.564 100.755 150.428 100.626C150.497 100.633 150.567 100.625 150.632 100.601C150.696 100.578 150.754 100.54 150.798 100.492C150.843 100.443 150.874 100.385 150.888 100.323C150.903 100.261 150.9 100.196 150.88 100.135L150.817 100.203ZM149.577 99.9237C147.427 99.9608 145.278 99.8288 143.153 99.5294C140.892 99.2216 138.138 98.7599 136.298 97.3653C140.956 97.4326 145.245 98.808 149.64 99.8564L149.577 99.9237ZM157.493 79.2445C157.515 81.1778 157.111 83.0952 156.303 84.8818C155.495 86.6684 154.302 88.2875 152.794 89.6419C154.186 86.082 155.776 82.5893 157.556 79.1772L157.493 79.2445ZM156.989 78.4847C154.905 82.4854 153.049 86.5818 151.427 90.7576C149.429 85.9196 153.172 81.5337 157.052 78.4174L156.989 78.4847ZM180.013 85.0636C177.595 85.4675 173.705 85.5349 171.971 83.6016C177.049 84.3903 182.253 82.7552 187.1 81.4567C185.933 83.6786 182.568 84.5827 180.077 84.9963L180.013 85.0636ZM186.437 80.7931C181.853 82.0338 176.975 83.5439 172.16 82.7841L173.075 82.1589C177.301 80.1968 181.811 80.543 186.437 80.7931ZM177.133 77.8403C176.838 78.1096 176.544 78.3885 176.229 78.6482C175.083 75.0029 174.725 71.8193 176.88 68.4721C177.979 69.8171 178.593 71.4411 178.638 73.1194C178.683 74.7978 178.157 76.4475 177.133 77.8403V77.8403ZM183.304 60.1908C184.587 61.4316 186.111 62.6435 186.458 64.394C186.468 64.4412 186.485 64.4867 186.511 64.5287C185.94 64.5449 185.373 64.4287 184.865 64.1908C184.356 63.9529 183.921 63.6011 183.601 63.1681C183.281 62.735 183.086 62.235 183.034 61.7144C182.982 61.1938 183.075 60.6697 183.304 60.1908V60.1908ZM186.458 66.7986V66.7312C189.371 63.1629 193.912 61.7586 198.255 60.162C195.658 63.5668 190.464 65.2308 186.458 66.8178V66.7986ZM187.205 67.3468C191.042 65.8463 195.616 64.2497 198.423 61.2392C196.53 65.0769 191.053 69.6456 187.236 67.3276L187.205 67.3468Z" fill="black"/>
<path d="M165.252 22.699C164.836 22.7294 164.448 22.9021 164.164 23.1829C163.881 23.4636 163.723 23.8317 163.723 24.2138C163.723 24.596 163.881 24.9641 164.164 25.2448C164.448 25.5256 164.836 25.6983 165.252 25.7287C165.669 25.6983 166.057 25.5256 166.341 25.2448C166.624 24.9641 166.782 24.596 166.782 24.2138C166.782 23.8317 166.624 23.4636 166.341 23.1829C166.057 22.9021 165.669 22.7294 165.252 22.699V22.699Z" fill="black"/>
<path d="M177.511 43.4648C177.095 43.4952 176.706 43.668 176.423 43.9487C176.14 44.2295 175.982 44.5976 175.982 44.9797C175.982 45.3618 176.14 45.73 176.423 46.0107C176.706 46.2914 177.095 46.4642 177.511 46.4946C177.928 46.4642 178.316 46.2914 178.6 46.0107C178.883 45.73 179.04 45.3618 179.04 44.9797C179.04 44.5976 178.883 44.2295 178.6 43.9487C178.316 43.668 177.928 43.4952 177.511 43.4648V43.4648Z" fill="black"/>
<path d="M198.391 50.9766C197.975 51.0069 197.586 51.1797 197.303 51.4605C197.02 51.7412 196.862 52.1093 196.862 52.4914C196.862 52.8736 197.02 53.2417 197.303 53.5224C197.586 53.8032 197.975 53.9759 198.391 54.0063C198.808 53.9759 199.196 53.8032 199.48 53.5224C199.763 53.2417 199.92 52.8736 199.92 52.4914C199.92 52.1093 199.763 51.7412 199.48 51.4605C199.196 51.1797 198.808 51.0069 198.391 50.9766V50.9766Z" fill="black"/>
<path d="M189.087 73.9834H188.855C188.415 73.9834 187.992 74.1435 187.681 74.4285C187.369 74.7135 187.194 75.1 187.194 75.5031C187.194 75.9061 187.369 76.2927 187.681 76.5777C187.992 76.8626 188.415 77.0228 188.855 77.0228H189.087C189.527 77.0228 189.95 76.8626 190.261 76.5777C190.573 76.2927 190.748 75.9061 190.748 75.5031C190.748 75.1 190.573 74.7135 190.261 74.4285C189.95 74.1435 189.527 73.9834 189.087 73.9834V73.9834Z" fill="black"/>
<path d="M168.88 71.4922C168.442 71.4972 168.024 71.6592 167.715 71.9434C167.406 72.2276 167.232 72.6113 167.229 73.0119V73.2235C167.262 73.6044 167.451 73.9599 167.758 74.2191C168.065 74.4784 168.467 74.6223 168.885 74.6223C169.303 74.6223 169.705 74.4784 170.012 74.2191C170.319 73.9599 170.508 73.6044 170.541 73.2235V73.0119C170.535 72.6104 170.359 72.2267 170.048 71.9428C169.738 71.6589 169.319 71.4972 168.88 71.4922V71.4922Z" fill="black"/>
<path d="M174.378 92.0561H174.052C173.636 92.0865 173.247 92.2592 172.964 92.54C172.681 92.8207 172.523 93.1888 172.523 93.571C172.523 93.9531 172.681 94.3212 172.964 94.6019C173.247 94.8827 173.636 95.0555 174.052 95.0858H174.378C174.607 95.1025 174.837 95.0757 175.053 95.0071C175.27 94.9386 175.469 94.8297 175.637 94.6874C175.806 94.5451 175.94 94.3725 176.032 94.1803C176.124 93.9882 176.171 93.7807 176.171 93.571C176.171 93.3612 176.124 93.1537 176.032 92.9616C175.94 92.7694 175.806 92.5968 175.637 92.4545C175.469 92.3122 175.27 92.2033 175.053 92.1348C174.837 92.0662 174.607 92.0394 174.378 92.0561Z" fill="black"/>
<path d="M144.141 85.8235C143.725 85.8539 143.336 86.0266 143.053 86.3074C142.769 86.5881 142.612 86.9562 142.612 87.3384C142.612 87.7205 142.769 88.0886 143.053 88.3693C143.336 88.6501 143.725 88.8228 144.141 88.8532C144.558 88.8228 144.946 88.6501 145.23 88.3693C145.513 88.0886 145.67 87.7205 145.67 87.3384C145.67 86.9562 145.513 86.5881 145.23 86.3074C144.946 86.0266 144.558 85.8539 144.141 85.8235V85.8235Z" fill="black"/>
<path d="M137.781 105.801C137.364 105.831 136.976 106.004 136.692 106.284C136.409 106.565 136.251 106.933 136.251 107.315C136.251 107.698 136.409 108.066 136.692 108.346C136.976 108.627 137.364 108.8 137.781 108.83C138.197 108.8 138.586 108.627 138.869 108.346C139.152 108.066 139.31 107.698 139.31 107.315C139.31 106.933 139.152 106.565 138.869 106.284C138.586 106.004 138.197 105.831 137.781 105.801V105.801Z" fill="black"/>
<path d="M116.606 97.3654V97.5193C116.639 97.9003 116.828 98.2557 117.135 98.515C117.442 98.7742 117.844 98.9182 118.262 98.9182C118.68 98.9182 119.082 98.7742 119.389 98.515C119.696 98.2557 119.885 97.9003 119.918 97.5193V97.3654C119.885 96.9845 119.696 96.629 119.389 96.3698C119.082 96.1105 118.68 95.9666 118.262 95.9666C117.844 95.9666 117.442 96.1105 117.135 96.3698C116.828 96.629 116.639 96.9845 116.606 97.3654V97.3654Z" fill="black"/>
<path d="M108.5 122.998H108.29C108.061 122.981 107.831 123.008 107.615 123.077C107.398 123.145 107.199 123.254 107.031 123.396C106.862 123.539 106.728 123.711 106.636 123.903C106.544 124.096 106.497 124.303 106.497 124.513C106.497 124.723 106.544 124.93 106.636 125.122C106.728 125.314 106.862 125.487 107.031 125.629C107.199 125.772 107.398 125.88 107.615 125.949C107.831 126.018 108.061 126.044 108.29 126.028H108.511C108.739 126.044 108.969 126.018 109.186 125.949C109.402 125.88 109.601 125.772 109.77 125.629C109.938 125.487 110.072 125.314 110.164 125.122C110.256 124.93 110.304 124.723 110.304 124.513C110.304 124.303 110.256 124.096 110.164 123.903C110.072 123.711 109.938 123.539 109.77 123.396C109.601 123.254 109.402 123.145 109.186 123.077C108.969 123.008 108.739 122.981 108.511 122.998H108.5Z" fill="black"/>
<path d="M99.8789 108.686C99.4626 108.716 99.074 108.889 98.7906 109.17C98.5072 109.451 98.3499 109.819 98.3499 110.201C98.3499 110.583 98.5072 110.951 98.7906 111.232C99.074 111.513 99.4626 111.685 99.8789 111.716C100.295 111.685 100.684 111.513 100.967 111.232C101.251 110.951 101.408 110.583 101.408 110.201C101.408 109.819 101.251 109.451 100.967 109.17C100.684 108.889 100.295 108.716 99.8789 108.686V108.686Z" fill="black"/>
<path d="M131.882 8.15625C131.442 8.15625 131.019 8.31636 130.708 8.60135C130.396 8.88635 130.221 9.27289 130.221 9.67593C130.221 10.079 130.396 10.4655 130.708 10.7505C131.019 11.0355 131.442 11.1956 131.882 11.1956C132.323 11.1956 132.745 11.0355 133.057 10.7505C133.368 10.4655 133.543 10.079 133.543 9.67593C133.543 9.27289 133.368 8.88635 133.057 8.60135C132.745 8.31636 132.323 8.15625 131.882 8.15625V8.15625Z" fill="black"/>
<path d="M126.163 23.9397C125.78 24.0028 125.433 24.1872 125.183 24.4606C124.933 24.734 124.796 25.079 124.796 25.4353C124.796 25.7917 124.933 26.1367 125.183 26.4101C125.433 26.6835 125.78 26.8678 126.163 26.931C126.546 26.8678 126.893 26.6835 127.143 26.4101C127.393 26.1367 127.53 25.7917 127.53 25.4353C127.53 25.079 127.393 24.734 127.143 24.4606C126.893 24.1872 126.546 24.0028 126.163 23.9397V23.9397Z" fill="black"/>
<path d="M148.452 13.5618C148.035 13.5921 147.647 13.7649 147.363 14.0457C147.08 14.3264 146.923 14.6945 146.923 15.0766C146.923 15.4588 147.08 15.8269 147.363 16.1076C147.647 16.3884 148.035 16.5611 148.452 16.5915C148.868 16.5611 149.257 16.3884 149.54 16.1076C149.823 15.8269 149.981 15.4588 149.981 15.0766C149.981 14.6945 149.823 14.3264 149.54 14.0457C149.257 13.7649 148.868 13.5921 148.452 13.5618V13.5618Z" fill="black"/>
<path d="M53.9767 16.4664C53.5982 16.8127 54.1765 17.3513 54.5549 17.0051C56.6869 14.9669 59.5572 13.7087 62.6294 13.4655C62.6999 13.5278 62.7942 13.5627 62.8922 13.5627C62.9903 13.5627 63.0845 13.5278 63.1551 13.4655C65.6492 13.4149 68.0968 14.0883 70.1466 15.3892L70.5041 15.6296C68.8964 15.1842 67.1747 15.2247 65.5942 15.7451C65.1072 15.9481 64.6764 16.249 64.3338 16.6252C63.9913 17.0014 63.7457 17.4434 63.6154 17.9183C63.4851 18.3932 63.4735 18.8889 63.5812 19.3685C63.689 19.8482 63.9135 20.2994 64.238 20.6888C65.4365 22.0835 68.7903 23.709 70.2728 21.7084C71.9339 19.4962 69.6104 17.6206 67.2238 18.8229C67.129 18.8739 67.0603 18.9573 67.0326 19.0547C67.005 19.1521 67.0209 19.2556 67.0766 19.3423C67.1324 19.429 67.2235 19.4919 67.33 19.5172C67.4365 19.5424 67.5496 19.528 67.6444 19.4769C68.2962 19.1307 70.6723 18.6305 69.9889 20.5061C69.9264 20.7846 69.786 21.0436 69.5815 21.2576C69.3769 21.4717 69.1152 21.6337 68.8219 21.7276C67.9479 21.8864 67.0406 21.7314 66.2881 21.2948C64.8583 20.4869 63.5546 18.7075 64.7742 17.2167C66.4774 15.1391 70.7669 16.0721 72.6699 17.3994C72.7239 17.4391 72.79 17.4627 72.8591 17.4667C74.6502 19.2887 76.2616 21.252 77.6743 23.3339C78.1369 23.9398 78.589 24.565 79.0516 25.1806V25.3825C79.0498 25.4335 79.0599 25.4842 79.0814 25.5313C79.1028 25.5783 79.1351 25.6206 79.176 25.6553C79.2169 25.6899 79.2654 25.7161 79.3183 25.7322C79.3712 25.7482 79.4273 25.7536 79.4827 25.748C79.9768 26.3925 80.534 27.0465 81.0071 27.6717C80.2206 27.429 79.3877 27.3379 78.5608 27.4041C77.7339 27.4703 76.9309 27.6924 76.2024 28.0564C75.7255 28.2877 75.3146 28.6183 75.0028 29.0214C74.691 29.4245 74.487 29.889 74.4072 30.3774C74.3275 30.8658 74.3741 31.3646 74.5435 31.8335C74.7129 32.3024 75.0002 32.7283 75.3824 33.0771C76.8332 34.4333 80.1871 34.8276 81.4382 32.9809C81.781 32.5656 81.9461 32.05 81.9026 31.531C81.859 31.0121 81.6098 30.5256 81.2018 30.1629C80.7937 29.8003 80.255 29.5864 79.6867 29.5616C79.1185 29.5368 78.5599 29.7027 78.1159 30.0281C77.6848 30.3071 78.1159 30.99 78.5364 30.6822C79.8927 29.7973 81.9008 30.8649 80.8705 32.3846C80.6359 32.7163 80.3133 32.9882 79.9327 33.175C79.5521 33.3617 79.126 33.4571 78.6941 33.4522C78.2771 33.4976 77.8544 33.4662 77.4507 33.3601C77.0471 33.254 76.6707 33.0752 76.3436 32.8342C76.0165 32.5932 75.7454 32.2948 75.546 31.9567C75.3466 31.6185 75.2231 31.2474 75.1826 30.8649C75.0565 27.7294 80.2186 27.6524 82.2372 29.0952C82.9924 29.9412 83.8072 30.7412 84.6764 31.4901C86.2745 32.8367 88.3036 34.2409 90.5325 34.0005C90.6598 34.2431 90.8621 34.4463 91.1144 34.5848C91.3667 34.7233 91.6578 34.791 91.9518 34.7795C92.3682 34.7492 92.7568 34.5764 93.0401 34.2957C93.3235 34.0149 93.4809 33.6468 93.4809 33.2647C93.4809 32.8825 93.3235 32.5144 93.0401 32.2337C92.7568 31.953 92.3682 31.7802 91.9518 31.7498C91.7366 31.7457 91.5228 31.7819 91.3236 31.8563C91.1243 31.9306 90.9437 32.0415 90.7931 32.182C90.6424 32.3226 90.5247 32.4899 90.4474 32.6736C90.37 32.8573 90.3346 33.0535 90.3432 33.2502C87.473 33.5965 84.8025 30.8457 83.0573 28.8547C83.0358 28.7969 82.9954 28.7466 82.9416 28.7104V28.7104L82.5842 28.2969C81.7221 27.335 80.9125 26.277 80.124 25.2383C81.3812 24.1489 82.214 22.7129 82.495 21.1497C82.776 19.5865 82.4897 17.9822 81.68 16.5819C81.6423 16.5262 81.5897 16.4802 81.5271 16.4484C81.4646 16.4165 81.3941 16.3998 81.3225 16.3998C81.251 16.3998 81.1805 16.4165 81.118 16.4484C81.0554 16.4802 81.0028 16.5262 80.9651 16.5819C79.8889 18.9335 79.2767 21.4409 79.1567 23.9879C77.9897 22.4201 76.8543 20.8427 75.6452 19.3038C74.8881 18.3549 74.044 17.4668 73.122 16.6492C73.1359 16.603 73.1374 16.5543 73.1264 16.5075C73.1155 16.4606 73.0923 16.4168 73.0589 16.3799C72.5289 15.6154 72.2319 14.7353 72.1986 13.8306C72.1653 12.9258 72.397 12.0294 72.8696 11.2341C73.6266 9.82986 75.3613 7.87735 77.3694 8.50254C79.1252 9.0604 81.4382 12.4268 78.9675 13.581C78.7607 13.7041 78.5255 13.7818 78.2804 13.8079C78.0353 13.834 77.787 13.8079 77.5548 13.7315C77.3226 13.6551 77.1128 13.5305 76.9421 13.3676C76.7713 13.2046 76.6441 13.0077 76.5704 12.7923C76.2445 11.7246 77.1171 11.5996 78.0318 11.9459C78.5259 12.1286 78.7467 11.3976 78.2526 11.2149C75.7714 10.2531 74.8357 12.648 76.5914 14.1003C78.957 16.024 81.3751 12.6865 80.5656 10.6378C79.5142 7.98316 76.3601 6.58851 73.8053 8.71414C72.8222 9.55917 72.1011 10.6272 71.7151 11.8097C71.3292 12.9922 71.2922 14.2471 71.608 15.4469C70.0259 14.2817 68.1798 13.4537 66.204 13.0231C65.1704 12.8037 64.1108 12.7035 63.0499 12.7249C61.2836 9.83947 57.3095 8.5891 53.9136 8.09857C53.6718 8.09857 53.3564 8.19476 53.3879 8.46407C53.7454 11.8689 57.299 12.5133 60.4741 13.0327C58.0045 13.6093 55.7564 14.7974 53.9767 16.4664V16.4664ZM79.9032 24.3341C79.9828 22.0651 80.4547 19.8219 81.3015 17.6879C81.7417 18.8086 81.8441 20.017 81.5981 21.1864C81.3521 22.3557 80.7666 23.443 79.9032 24.3341ZM61.925 12.5037C59.0653 12.0324 55.0175 11.792 54.3236 8.91612C57.1203 9.35856 60.2218 10.3396 61.925 12.5037Z" fill="black"/>
<path d="M0.0524902 59.306C0.714846 63.942 8.83134 71.8097 13.8568 67.5392C14.0671 67.9624 14.2984 68.3857 14.5297 68.8089C16.601 72.4835 19.3061 75.8286 22.5411 78.7156C22.8542 79.0687 23.2065 79.391 23.5924 79.6775C23.6583 79.7343 23.7438 79.7683 23.8342 79.7736C24.1286 80.0141 24.423 80.2738 24.7384 80.5046C20.6907 79.4274 16.4432 79.8891 12.1221 80.0718C12.0586 80.0729 11.9961 80.0871 11.9395 80.1134C11.8828 80.1397 11.8334 80.1774 11.7949 80.2237C11.7565 80.27 11.73 80.3236 11.7175 80.3806C11.7049 80.4376 11.7067 80.4964 11.7226 80.5527C12.469 83.9287 16.9794 85.2849 20.1965 85.7466C23.0352 86.1505 27.3983 86.0543 29.0595 83.4863C31.8299 85.199 34.7322 86.7259 37.7437 88.0549C35.8511 87.8814 33.9442 88.2156 32.2556 89.0168C29.0069 90.8442 31.4356 94.3068 34.1901 95.3071C35.9879 95.9611 38.1958 96.2689 39.878 95.182C40.8557 94.5376 41.5391 92.8641 40.6244 91.9311C38.9633 90.2671 35.1994 91.5175 37.2496 93.7874C37.5965 94.1721 38.1748 93.6335 37.8383 93.2584C36.5977 91.883 39.0579 91.4886 39.8675 92.2966C41.1817 93.6143 38.9633 95.1051 37.586 95.182C35.2625 95.182 31.9087 94.1529 31.5197 91.7002C30.8994 87.8529 39.8149 88.7378 41.8756 89.9401C41.9314 89.9748 41.9973 89.9934 42.0648 89.9934C42.1323 89.9934 42.1982 89.9748 42.254 89.9401C48.8986 92.5178 55.9217 94.4991 62.7555 96.5478C57.6354 96.8845 52.8728 98.6158 47.8788 99.616C47.8177 99.6319 47.7614 99.6602 47.7139 99.6988C47.6665 99.7374 47.6293 99.7854 47.605 99.8391C47.5807 99.8928 47.57 99.9508 47.5737 100.009C47.5775 100.067 47.5955 100.123 47.6265 100.174C49.2246 103.29 54.0398 103.309 57.1728 102.684C60.3059 102.059 64.4062 100.482 65.1211 97.2596L68.2752 98.2214C68.2968 98.2754 68.3314 98.3242 68.3763 98.3644C68.4213 98.4045 68.4755 98.4349 68.535 98.4534C68.5945 98.4718 68.6578 98.4778 68.7202 98.471C68.7825 98.4641 68.8424 98.4446 68.8955 98.4138L69.8943 98.7312L69.9679 98.7985C70.018 98.8374 70.0776 98.8646 70.1416 98.878C70.2056 98.8914 70.2723 98.8905 70.3358 98.8754C75.1899 100.397 79.925 102.219 84.5082 104.329C82.6631 104.105 80.7901 104.167 78.9675 104.512C75.9695 105.005 73.0222 105.729 70.1571 106.676C70.096 106.692 70.0397 106.72 69.9922 106.759C69.9448 106.797 69.9076 106.845 69.8833 106.899C69.859 106.953 69.8483 107.011 69.852 107.069C69.8558 107.127 69.8738 107.183 69.9048 107.234C72.8381 113.005 85.2441 111.475 87.4099 105.81C89.005 106.654 90.5492 107.575 92.0359 108.571C93.5203 109.551 94.9258 110.628 96.2413 111.793C95.1958 111.342 94.047 111.129 92.8921 111.171C91.7373 111.213 90.6105 111.508 89.6073 112.033C86.5268 113.89 88.5559 117.391 91.2894 118.525C92.509 119.045 94.7169 119.593 95.9364 118.776C96.4675 118.379 96.8102 117.811 96.8925 117.188C96.9749 116.566 96.7904 115.939 96.378 115.438C94.6538 113.457 90.9425 116.198 94.4961 117.362C95.0007 117.535 95.211 116.794 94.7169 116.631C93.7286 116.304 93.5814 115.38 94.7799 115.448C95.1619 115.489 95.5104 115.667 95.7489 115.943C95.9875 116.219 96.0965 116.57 96.0521 116.919C96.0521 118.17 95.0007 118.487 93.7811 118.362C91.6784 118.131 89.1972 116.996 88.8713 114.813C88.5454 112.63 91.2158 111.927 93.0767 111.995C94.1307 111.949 95.1813 112.133 96.1426 112.531C97.1039 112.929 97.9484 113.53 98.6069 114.284C98.6433 114.33 98.6904 114.369 98.7449 114.397C98.7994 114.426 98.8599 114.443 98.9223 114.447C100.185 115.86 101.245 117.415 102.076 119.074C103.18 121.392 104.179 124.797 102.686 127.172C102.229 128.004 101.492 128.678 100.583 129.096C100.401 129.202 100.196 129.272 99.9827 129.302C99.769 129.332 99.5508 129.321 99.3421 129.269C99.1334 129.218 98.9387 129.127 98.7705 129.003C98.6023 128.878 98.4642 128.723 98.3651 128.548C98.1296 128.246 97.9944 127.889 97.9758 127.518C97.9571 127.148 98.0558 126.781 98.2599 126.461L100.205 126.576C100.457 127.009 101.172 126.624 100.93 126.191C99.6267 123.912 96.4306 125.778 97.2191 127.932C98.1548 130.5 100.825 130.625 102.634 128.557C104.915 125.97 104.368 122.103 103.002 119.247C101.099 115.538 98.3323 112.255 94.8956 109.629C89.3549 105.223 82.3424 102.28 75.5506 99.8661C73.8579 99.2602 72.1547 98.6927 70.441 98.1348L69.4632 97.3654C71.0192 91.4598 66.3091 86.9585 61.5885 83.3612C61.5361 83.3157 61.4717 83.2833 61.4016 83.2671C61.3315 83.251 61.258 83.2516 61.1883 83.269C61.1186 83.2864 61.0549 83.32 61.0034 83.3665C60.952 83.413 60.9145 83.4708 60.8946 83.5344C59.6856 89.3726 63.6807 93.6143 68.0754 97.2403L68.3383 97.4616C63.3443 95.8938 58.2873 94.4414 53.2828 92.8737C52.2314 92.5659 51.2537 92.2389 50.2444 91.9118C50.2158 91.8774 50.1842 91.8453 50.1498 91.8157C49.8764 91.6425 49.6136 91.4598 49.3612 91.277C51.9791 85.6889 47.3321 80.5623 42.7377 77.1382C42.686 77.0926 42.6223 77.0598 42.5528 77.0431C42.4834 77.0263 42.4103 77.0261 42.3408 77.0425C42.2712 77.0589 42.2073 77.0914 42.1553 77.1367C42.1034 77.1821 42.0649 77.2389 42.0438 77.3018C40.9924 82.5533 43.6418 87.6317 47.8578 91.1039C43.334 89.5972 38.9349 87.7939 34.6948 85.7081C34.6606 85.6423 34.6005 85.5908 34.5266 85.5638C33.4009 85.0265 32.4175 84.2701 31.6456 83.3479C30.8736 82.4257 30.3318 81.36 30.0583 80.2257C29.7534 78.8214 30.3211 76.6189 32.4344 76.792C32.9274 76.82 33.4042 76.964 33.8186 77.21C34.2331 77.456 34.571 77.7957 34.7999 78.1962C35.0024 78.4918 35.0935 78.8398 35.0593 79.1872C35.0251 79.5346 34.8675 79.8622 34.6107 80.1199C32.9495 80.8829 32.5079 80.7066 33.286 79.5909C33.3919 79.5641 33.4819 79.4999 33.5361 79.4124C33.5903 79.3249 33.6044 79.2213 33.5751 79.1244C33.5458 79.0275 33.4756 78.9451 33.38 78.8955C33.2844 78.8459 33.1711 78.8331 33.0652 78.8599C30.4683 79.5043 32.1925 81.7454 34.2742 81.226C37.1234 80.5719 35.7041 77.0324 33.7591 76.3015C30.994 75.2723 28.8387 77.4941 29.1646 79.9371C29.3821 81.2542 29.9488 82.5024 30.8153 83.5728C30.0373 83.1208 29.2803 82.611 28.5443 82.1686C28.5133 82.1049 28.462 82.0513 28.3971 82.0147L27.9871 81.8031C26.757 80.9759 25.59 80.1007 24.465 79.1773V79.1196C25.8108 74.9645 26.1998 71.425 23.5188 67.5777C23.4848 67.5297 23.4398 67.4891 23.3868 67.4586C23.3339 67.4281 23.2744 67.4086 23.2124 67.4012C23.1504 67.3939 23.0873 67.399 23.0277 67.4162C22.9681 67.4334 22.9132 67.4623 22.867 67.5008C21.7707 68.6568 21.0241 70.0551 20.7013 71.5568C20.3785 73.0585 20.4908 74.6113 21.0271 76.061C18.3393 73.3462 16.1328 70.263 14.4876 66.9237C14.5226 66.8324 14.5205 66.7327 14.482 66.6427C14.4434 66.5527 14.3708 66.4784 14.2774 66.4331C14.2774 66.4331 14.2774 66.4331 14.2774 66.4331C14.1197 66.0773 13.9725 65.7214 13.8358 65.3751C14.5781 65.3409 15.2979 65.1304 15.9242 64.7643C16.5505 64.3982 17.0618 63.8892 17.4077 63.2873C17.7536 62.6855 17.9222 62.0116 17.8969 61.3321C17.8715 60.6525 17.6532 59.9907 17.2632 59.4118C17.2319 59.361 17.1881 59.3175 17.1351 59.2848C17.0822 59.2522 17.0217 59.2313 16.9584 59.2238C16.8951 59.2164 16.8308 59.2225 16.7705 59.2418C16.7103 59.2611 16.6558 59.293 16.6114 59.3349C15.3813 60.6141 13.7832 61.8164 13.1209 63.4419C11.9465 60.0291 11.7725 56.394 12.6162 52.9003C15.7703 56.5456 21.8051 53.0927 21.5423 48.7548C21.5411 48.6967 21.5256 48.6396 21.4968 48.5878C21.4681 48.5359 21.4269 48.4907 21.3763 48.4555C21.3257 48.4204 21.267 48.3961 21.2047 48.3847C21.1424 48.3732 21.0781 48.3748 21.0166 48.3893C18.3987 48.8414 15.2762 49.4858 13.1629 51.1402C14.9925 46.251 18.1126 41.8504 22.2467 38.3287L22.3939 38.2133C25.3377 41.0987 30.3316 42.6473 33.286 38.9827C33.3192 38.9331 33.3394 38.877 33.3448 38.819C33.3503 38.761 33.3409 38.7026 33.3175 38.6485C33.294 38.5944 33.2571 38.546 33.2097 38.5072C33.1622 38.4684 33.1055 38.4402 33.0441 38.4249C29.9742 37.7804 26.9988 36.7417 23.8658 37.0014C27.2234 34.4443 30.8428 32.1896 34.6737 30.2686C34.7318 30.2862 34.7945 30.2862 34.8525 30.2686C36.808 29.528 41.4655 30.1436 41.2553 32.7982C41.2515 33.1913 41.1194 33.5745 40.8758 33.8984C40.6323 34.2223 40.2884 34.4722 39.8885 34.616C39.5724 34.7827 39.2197 34.883 38.8561 34.9096C38.4924 34.9362 38.1268 34.8885 37.7858 34.7699C35.8723 33.6831 39.1315 31.1342 39.7728 33.3272C39.8021 33.4241 39.8723 33.5065 39.9679 33.5561C40.0635 33.6057 40.1768 33.6185 40.2827 33.5917C40.3887 33.5649 40.4787 33.5007 40.5329 33.4132C40.5871 33.3258 40.6011 33.2221 40.5719 33.1252C40.4591 32.6869 40.1817 32.2987 39.7882 32.0282C39.3946 31.7577 38.9098 31.6221 38.4183 31.6449C37.9267 31.6678 37.4594 31.8478 37.0979 32.1534C36.7364 32.4591 36.5036 32.871 36.44 33.3176C35.9038 35.5105 38.5427 36.078 40.288 35.2412C40.7571 35.0249 41.1597 34.7047 41.4593 34.3098C41.7588 33.915 41.9458 33.4579 42.0033 32.9802C42.0607 32.5024 41.9868 32.0191 41.7882 31.5741C41.5897 31.1292 41.2727 30.7366 40.8662 30.4321C39.7 29.6031 38.274 29.1379 36.7975 29.1048L37.197 28.9028C38.6584 28.1622 40.2144 27.4985 41.7494 26.806C48.8461 30.1243 54.6285 24.7189 55.9743 18.4766C55.9902 18.4204 55.9919 18.3615 55.9794 18.3045C55.9669 18.2475 55.9404 18.1939 55.9019 18.1476C55.8635 18.1013 55.8141 18.0636 55.7574 18.0373C55.7007 18.011 55.6383 17.9968 55.5748 17.9957C50.6754 17.813 39.531 19.6212 41.4655 26.0558C40.5403 26.4694 39.6151 26.8734 38.7215 27.2869C35.3749 28.7681 32.14 30.4518 29.0385 32.3269C31.0045 28.7008 29.1541 24.5169 27.104 21.0928C27.0662 21.0371 27.0136 20.9912 26.9511 20.9593C26.8885 20.9275 26.8181 20.9107 26.7465 20.9107C26.6749 20.9107 26.6045 20.9275 26.5419 20.9593C26.4794 20.9912 26.4268 21.0371 26.389 21.0928C23.1403 25.1709 24.7069 29.7492 26.3049 34.1447C24.2424 35.5859 22.2959 37.161 20.4804 38.8577C21.5318 36.3762 21.5318 33.7215 18.9454 31.6248C16.8427 29.9031 14.0251 30.3071 13.3206 33.0002C12.9001 34.5776 12.9422 38.8481 15.949 38.2613C18.3356 37.7997 18.2936 34.7507 16.2855 33.837C15.8124 33.6157 15.3918 34.2698 15.8754 34.491C16.7691 34.9046 17.5471 36.482 16.5168 37.2226C14.9187 38.3768 13.983 36.4147 13.9094 35.3855C13.8358 34.3563 13.9094 32.2019 15.15 31.5382C17.5786 30.3263 19.8075 33.2118 20.2912 35.1162C20.8589 37.3476 19.5657 39.2424 18.1884 40.9929C18.1454 41.0498 18.12 41.1163 18.1148 41.1853C16.5528 42.9128 15.1992 44.7897 14.0776 46.7831C13.7399 45.2138 13.0651 43.7213 12.0923 42.3923C11.1196 41.0632 9.86824 39.9239 8.41079 39.0404C8.33073 38.9979 8.23727 38.9814 8.14563 38.9936C8.054 39.0058 7.96959 39.046 7.90614 39.1078C3.86892 42.503 9.4201 47.7642 12.7529 49.457C12.8016 49.4651 12.8514 49.4651 12.9001 49.457C12.1271 51.3415 11.6287 53.3109 11.4177 55.3145C11.0836 54.4172 10.5462 53.5945 9.84064 52.9003C9.5441 52.5784 9.15518 52.3386 8.7177 52.2081C8.28022 52.0775 7.81157 52.0613 7.36457 52.1613C6.91756 52.2612 6.50996 52.4734 6.1877 52.774C5.86543 53.0745 5.64131 53.4513 5.54058 53.8621C5.38819 54.3123 5.33817 54.7863 5.39358 55.2549C5.44899 55.7235 5.60867 56.1767 5.86278 56.5867C6.1169 56.9967 6.46006 57.3547 6.87115 57.6388C7.28224 57.9228 7.75254 58.1269 8.25309 58.2384C8.41376 58.2727 8.58074 58.2738 8.74197 58.2419C8.9032 58.2099 9.05466 58.1456 9.18542 58.0536C9.31618 57.9616 9.42298 57.8441 9.49811 57.7098C9.57324 57.5754 9.61482 57.4274 9.61986 57.2766C9.60902 56.8734 9.49377 56.4784 9.28359 56.1239C9.0734 55.7695 8.77428 55.4657 8.41079 55.2375C7.97974 54.949 7.56971 55.603 7.99025 55.8916C8.7262 56.4013 9.32548 58.0749 7.72741 57.3151C7.4276 57.1833 7.15966 56.998 6.93937 56.7701C6.71907 56.5421 6.5509 56.2761 6.44475 55.9877C6.0978 55.0259 6.0978 53.1023 7.55919 52.8618C10.0194 52.3905 11.1338 56.6226 11.1864 58.2673C11.1872 58.3242 11.2028 58.3801 11.2321 58.4303C11.2614 58.4805 11.3034 58.5235 11.3546 58.5558C11.4698 60.6692 11.8941 62.7589 12.6162 64.7692C9.3465 61.8356 4.83617 60.5949 0.57817 58.9405C0.516648 58.926 0.452324 58.9244 0.390029 58.9359C0.327735 58.9473 0.26909 58.9716 0.2185 59.0067C0.16791 59.0419 0.126691 59.0871 0.097938 59.139C0.0691852 59.1908 0.0536469 59.2479 0.0524902 59.306V59.306ZM55.1122 18.7652C53.7559 24.1129 48.9407 28.9317 42.7166 26.3828C45.2216 25.3345 47.4733 23.8403 49.3402 21.9873C49.6872 21.6218 49.0984 21.0736 48.7514 21.4487C46.9259 23.2534 44.7238 24.7054 42.2751 25.7192C40.8662 20.2656 50.5493 18.7267 55.1122 18.7652ZM27.2091 33.5773C27.6296 30.2494 28.2605 26.6137 27.4194 23.2858C29.0805 26.479 30.1003 30.1051 27.5666 33.1733C27.515 33.2372 27.4891 33.3153 27.493 33.3945L27.2091 33.5773ZM26.5573 32.2788C25.4323 29.0375 24.6648 25.7192 26.3995 22.6606C27.3878 25.7192 26.9778 29.1048 26.5573 32.2788V32.2788ZM23.1298 37.8093C26.2208 37.3091 29.1751 38.2902 32.1505 38.9731C29.5747 41.5893 25.59 40.0407 23.1298 37.8093ZM12.1641 48.2258C9.94578 46.8312 7.35944 44.4555 7.35944 42.1086C7.32303 41.4981 7.45689 40.8891 7.74844 40.3389C9.44932 42.8552 10.926 45.4927 12.1641 48.2258V48.2258ZM8.51593 40.0984C8.64234 40.153 8.75925 40.2243 8.86288 40.31C9.51592 40.7889 10.1211 41.32 10.6712 41.897C12.3294 43.5387 13.3108 45.6574 13.4468 47.8892C13.449 47.9587 13.4747 48.0259 13.5204 48.0816L13.2681 48.6394C11.9338 45.6818 10.3447 42.8258 8.51593 40.0984V40.0984ZM13.0999 52.1982C14.8977 50.3322 18.0833 49.6397 20.7117 49.178C20.4909 52.6406 15.6231 55.5165 13.0999 52.1982V52.1982ZM71.0403 107.724C75.9606 108.321 81.6064 108.253 86.1903 106.32C83.7196 110.542 74.2364 111.62 71.0403 107.724ZM85.8854 105.618C81.6169 107.436 76.3286 107.541 71.6921 107.051C73.7544 106.406 75.8619 105.888 78.0003 105.502C80.4394 105.031 83.4883 104.55 85.8854 105.57V105.618ZM63.0815 87.1989C63.7648 88.43 64.3957 89.6804 64.9844 90.95C65.6783 92.4408 66.3197 93.9605 66.9925 95.461C63.7123 92.5755 60.9787 89.1803 61.3362 84.8809C62.1352 85.2656 62.7135 86.5641 63.0815 87.1989ZM64.9424 88.9879C64.5639 88.2281 64.1013 87.0643 63.4915 86.1024C66.8138 88.9879 69.4527 92.4889 68.5275 96.8075H68.4749C67.2869 94.1529 66.2355 91.5271 64.9424 88.9879ZM49.4979 100.597C52.3652 100.726 55.2389 100.535 58.056 100.03C60.1376 99.7852 62.1359 99.1287 63.912 98.106C61.7357 102.309 51.3483 104.281 48.5412 100.309L49.1089 100.174C49.1031 100.225 49.1087 100.277 49.1253 100.326C49.1418 100.376 49.1691 100.421 49.2054 100.461C49.2417 100.5 49.2863 100.533 49.3365 100.556C49.3868 100.58 49.4417 100.594 49.4979 100.597V100.597ZM63.6282 97.2981C61.7988 98.6927 59.0442 99.1544 56.7838 99.4622C54.6553 99.7619 52.5027 99.8938 50.3495 99.8565C54.7547 98.8081 59.0337 97.4327 63.6282 97.2981V97.2981ZM47.1429 89.6035C45.6363 88.2476 44.443 86.6284 43.6339 84.8423C42.8247 83.0562 42.4163 81.1395 42.4328 79.2062C44.1965 82.586 45.7686 86.0467 47.1429 89.5746V89.6035ZM48.5096 90.7192C46.8797 86.5449 45.0199 82.4487 42.9374 78.4463C46.8275 81.5338 50.5703 85.9197 48.5096 90.6903V90.7192ZM12.837 81.3895C17.6838 82.688 22.8775 84.275 27.9556 83.5344C26.1998 85.458 22.3413 85.4003 19.9232 84.9963C17.5051 84.5924 14.0671 83.6786 12.837 81.3895ZM26.9252 82.159L27.8399 82.7841C23.0562 83.544 18.1464 82.0339 13.5625 80.7932C18.1884 80.5431 22.6883 80.1968 26.9252 82.159ZM23.1298 68.4722C25.2325 71.8194 24.9276 75.003 23.7817 78.6483C23.4663 78.3886 23.1719 78.1097 22.8775 77.8404C21.85 76.4486 21.3221 74.7984 21.3673 73.1194C21.4126 71.4404 22.0286 69.816 23.1298 68.4722V68.4722ZM13.5309 64.5287C13.5643 64.4896 13.586 64.4432 13.594 64.3941C13.8989 62.6436 15.4234 61.4317 16.7481 60.1909C16.9751 60.6714 17.0658 61.1967 17.0116 61.7178C16.9575 62.2389 16.7602 62.7391 16.4382 63.1719C16.1162 63.6046 15.6799 63.9559 15.1698 64.1931C14.6597 64.4303 14.0923 64.5458 13.5204 64.5287H13.5309ZM13.5309 66.8179C9.46215 65.2309 4.27895 63.5669 1.6821 60.1621C6.02421 61.7587 10.5661 63.1629 13.4678 66.7313V66.7986L13.5309 66.8179ZM1.54542 61.2393C4.28947 64.2498 8.90493 65.8464 12.7529 67.3469C8.94699 69.6456 3.45889 65.077 1.54542 61.2393Z" fill="black"/>
<path d="M34.7474 22.699C35.1637 22.7294 35.5523 22.9021 35.8357 23.1829C36.1191 23.4636 36.2765 23.8317 36.2765 24.2138C36.2765 24.596 36.1191 24.9641 35.8357 25.2448C35.5523 25.5256 35.1637 25.6983 34.7474 25.7287C34.331 25.6983 33.9424 25.5256 33.659 25.2448C33.3756 24.9641 33.2183 24.596 33.2183 24.2138C33.2183 23.8317 33.3756 23.4636 33.659 23.1829C33.9424 22.9021 34.331 22.7294 34.7474 22.699Z" fill="black"/>
<path d="M22.4886 43.4648C22.905 43.4952 23.2935 43.668 23.5769 43.9487C23.8603 44.2295 24.0177 44.5976 24.0177 44.9797C24.0177 45.3618 23.8603 45.73 23.5769 46.0107C23.2935 46.2914 22.905 46.4642 22.4886 46.4946C22.0722 46.4642 21.6836 46.2914 21.4002 46.0107C21.1168 45.73 20.9595 45.3618 20.9595 44.9797C20.9595 44.5976 21.1168 44.2295 21.4002 43.9487C21.6836 43.668 22.0722 43.4952 22.4886 43.4648V43.4648Z" fill="black"/>
<path d="M1.60844 50.9766C2.02483 51.0069 2.41342 51.1797 2.6968 51.4605C2.98018 51.7412 3.13754 52.1093 3.13754 52.4914C3.13754 52.8736 2.98018 53.2417 2.6968 53.5224C2.41342 53.8032 2.02483 53.9759 1.60844 54.0063C1.19206 53.9759 0.80347 53.8032 0.520091 53.5224C0.236711 53.2417 0.0793457 52.8736 0.0793457 52.4914C0.0793457 52.1093 0.236711 51.7412 0.520091 51.4605C0.80347 51.1797 1.19206 51.0069 1.60844 50.9766V50.9766Z" fill="black"/>
<path d="M10.9131 73.9834H11.1339C11.5744 73.9834 11.997 74.1435 12.3085 74.4285C12.62 74.7135 12.795 75.1 12.795 75.5031C12.795 75.9061 12.62 76.2927 12.3085 76.5777C11.997 76.8626 11.5744 77.0228 11.1339 77.0228H10.9131C10.4725 77.0228 10.05 76.8626 9.73849 76.5777C9.42697 76.2927 9.25195 75.9061 9.25195 75.5031C9.25195 75.1 9.42697 74.7135 9.73849 74.4285C10.05 74.1435 10.4725 73.9834 10.9131 73.9834V73.9834Z" fill="black"/>
<path d="M31.1096 71.4922C31.5485 71.4972 31.9678 71.6589 32.2782 71.9428C32.5885 72.2267 32.7653 72.6104 32.7708 73.0119V73.2235C32.7376 73.6044 32.5487 73.9599 32.2418 74.2191C31.935 74.4784 31.5326 74.6223 31.1149 74.6223C30.6972 74.6223 30.2948 74.4784 29.9879 74.2191C29.681 73.9599 29.4922 73.6044 29.459 73.2235V73.0119C29.4617 72.6113 29.6362 72.2276 29.9448 71.9434C30.2535 71.6592 30.6717 71.4972 31.1096 71.4922Z" fill="black"/>
<path d="M25.6216 92.0561H25.937C26.1655 92.0394 26.3954 92.0662 26.612 92.1348C26.8287 92.2033 27.0275 92.3122 27.196 92.4545C27.3644 92.5968 27.4988 92.7694 27.5908 92.9616C27.6827 93.1537 27.7302 93.3612 27.7302 93.571C27.7302 93.7807 27.6827 93.9882 27.5908 94.1803C27.4988 94.3725 27.3644 94.5451 27.196 94.6874C27.0275 94.8297 26.8287 94.9386 26.612 95.0071C26.3954 95.0757 26.1655 95.1025 25.937 95.0858H25.6216C25.393 95.1025 25.1632 95.0757 24.9465 95.0071C24.7298 94.9386 24.531 94.8297 24.3626 94.6874C24.1941 94.5451 24.0597 94.3725 23.9678 94.1803C23.8758 93.9882 23.8284 93.7807 23.8284 93.571C23.8284 93.3612 23.8758 93.1537 23.9678 92.9616C24.0597 92.7694 24.1941 92.5968 24.3626 92.4545C24.531 92.3122 24.7298 92.2033 24.9465 92.1348C25.1632 92.0662 25.393 92.0394 25.6216 92.0561Z" fill="black"/>
<path d="M55.8587 85.8235C56.2751 85.8539 56.6637 86.0266 56.947 86.3074C57.2304 86.5881 57.3878 86.9562 57.3878 87.3384C57.3878 87.7205 57.2304 88.0886 56.947 88.3693C56.6637 88.6501 56.2751 88.8228 55.8587 88.8532C55.4423 88.8228 55.0537 88.6501 54.7703 88.3693C54.487 88.0886 54.3296 87.7205 54.3296 87.3384C54.3296 86.9562 54.487 86.5881 54.7703 86.3074C55.0537 86.0266 55.4423 85.8539 55.8587 85.8235V85.8235Z" fill="black"/>
<path d="M62.2088 105.801C62.6252 105.831 63.0138 106.004 63.2971 106.284C63.5805 106.565 63.7379 106.933 63.7379 107.315C63.7379 107.698 63.5805 108.066 63.2971 108.346C63.0138 108.627 62.6252 108.8 62.2088 108.83C61.7924 108.8 61.4038 108.627 61.1204 108.346C60.8371 108.066 60.6797 107.698 60.6797 107.315C60.6797 106.933 60.8371 106.565 61.1204 106.284C61.4038 106.004 61.7924 105.831 62.2088 105.801Z" fill="black"/>
<path d="M83.3938 97.3654V97.5193C83.3938 97.9223 83.2188 98.3089 82.9073 98.5939C82.5958 98.8788 82.1732 99.039 81.7327 99.039C81.2921 99.039 80.8696 98.8788 80.5581 98.5939C80.2465 98.3089 80.0715 97.9223 80.0715 97.5193V97.3654C80.0715 96.9623 80.2465 96.5758 80.5581 96.2908C80.8696 96.0058 81.2921 95.8457 81.7327 95.8457C82.1732 95.8457 82.5958 96.0058 82.9073 96.2908C83.2188 96.5758 83.3938 96.9623 83.3938 97.3654V97.3654Z" fill="black"/>
<path d="M91.4682 122.998H91.689C91.9176 122.981 92.1474 123.008 92.3641 123.077C92.5808 123.145 92.7796 123.254 92.948 123.396C93.1165 123.539 93.2509 123.711 93.3428 123.903C93.4348 124.096 93.4822 124.303 93.4822 124.513C93.4822 124.723 93.4348 124.93 93.3428 125.122C93.2509 125.314 93.1165 125.487 92.948 125.629C92.7796 125.772 92.5808 125.88 92.3641 125.949C92.1474 126.018 91.9176 126.044 91.689 126.028H91.4682C91.2397 126.044 91.0099 126.018 90.7932 125.949C90.5765 125.88 90.3777 125.772 90.2092 125.629C90.0408 125.487 89.9064 125.314 89.8144 125.122C89.7225 124.93 89.675 124.723 89.675 124.513C89.675 124.303 89.7225 124.096 89.8144 123.903C89.9064 123.711 90.0408 123.539 90.2092 123.396C90.3777 123.254 90.5765 123.145 90.7932 123.077C91.0099 123.008 91.2397 122.981 91.4682 122.998V122.998Z" fill="black"/>
<path d="M100.121 108.686C100.537 108.716 100.926 108.889 101.209 109.17C101.493 109.451 101.65 109.819 101.65 110.201C101.65 110.583 101.493 110.951 101.209 111.232C100.926 111.513 100.537 111.685 100.121 111.716C99.7045 111.685 99.3159 111.513 99.0325 111.232C98.7492 110.951 98.5918 110.583 98.5918 110.201C98.5918 109.819 98.7492 109.451 99.0325 109.17C99.3159 108.889 99.7045 108.716 100.121 108.686Z" fill="black"/>
<path d="M68.1174 8.15625C68.558 8.15625 68.9805 8.31636 69.2921 8.60135C69.6036 8.88635 69.7786 9.27289 69.7786 9.67593C69.7786 10.079 69.6036 10.4655 69.2921 10.7505C68.9805 11.0355 68.558 11.1956 68.1174 11.1956C67.6769 11.1956 67.2544 11.0355 66.9428 10.7505C66.6313 10.4655 66.4563 10.079 66.4563 9.67593C66.4563 9.27289 66.6313 8.88635 66.9428 8.60135C67.2544 8.31636 67.6769 8.15625 68.1174 8.15625V8.15625Z" fill="black"/>
<path d="M73.7842 23.9397C74.2006 23.9701 74.5892 24.1428 74.8726 24.4236C75.1559 24.7043 75.3133 25.0724 75.3133 25.4546C75.3133 25.8367 75.1559 26.2048 74.8726 26.4855C74.5892 26.7663 74.2006 26.9391 73.7842 26.9694C73.3678 26.9391 72.9792 26.7663 72.6959 26.4855C72.4125 26.2048 72.2551 25.8367 72.2551 25.4546C72.2551 25.0724 72.4125 24.7043 72.6959 24.4236C72.9792 24.1428 73.3678 23.9701 73.7842 23.9397V23.9397Z" fill="black"/>
<path d="M51.5164 13.5618C51.9328 13.5921 52.3214 13.7649 52.6048 14.0457C52.8881 14.3264 53.0455 14.6945 53.0455 15.0766C53.0455 15.4588 52.8881 15.8269 52.6048 16.1076C52.3214 16.3884 51.9328 16.5611 51.5164 16.5915C51.1 16.5611 50.7114 16.3884 50.4281 16.1076C50.1447 15.8269 49.9873 15.4588 49.9873 15.0766C49.9873 14.6945 50.1447 14.3264 50.4281 14.0457C50.7114 13.7649 51.1 13.5921 51.5164 13.5618V13.5618Z" fill="black"/>
<path d="M99.6898 8.65649C98.344 9.82992 97.1455 11.8882 97.7658 13.6003C97.9409 13.9595 98.1944 14.2821 98.5108 14.5484C98.8272 14.8147 99.1998 15.019 99.6056 15.1488C100.058 15.3219 100.657 15.4373 100.804 15.0238C100.951 14.6102 100.352 13.8888 100.247 13.5233C99.9178 12.6168 99.7406 11.6699 99.7213 10.7148C99.7213 10.1185 99.3849 9.17588 99.7213 8.65649" fill="#CA1856"/>
<path d="M99.2588 8.2908C96.9984 10.378 95.7683 14.1098 99.3639 15.5814C100.205 15.9277 101.687 15.7642 101.319 14.6196C101.067 13.8117 100.657 13.1095 100.457 12.2728C100.356 11.7387 100.296 11.1987 100.279 10.6569C100.133 10.0635 100.105 9.45118 100.194 8.84866C100.415 8.22348 99.406 7.78104 99.1431 8.40622C98.954 9.30853 98.954 10.2355 99.1431 11.1378C99.1884 12.1715 99.4415 13.1888 99.8896 14.1387C100.163 14.7062 100.184 14.8216 99.4901 14.533C99.0211 14.3374 98.6349 14.0069 98.3901 13.592C98.1452 13.177 98.0553 12.7003 98.1338 12.2343C98.3461 10.9697 99.0295 9.81105 100.068 8.95446C100.583 8.48317 99.7214 7.82913 99.2167 8.2908H99.2588Z" fill="#CA1856"/>
<path d="M100.026 7.45423C100.447 7.00217 101.834 7.36766 102.339 7.58888C103.351 8.00317 104.214 8.66987 104.831 9.51253C105.136 9.89869 105.339 10.344 105.425 10.8137C105.511 11.2835 105.477 11.7651 105.327 12.2211C105.176 12.677 104.913 13.0951 104.557 13.4427C104.201 13.7904 103.762 14.0582 103.275 14.2255C104.389 13.1001 103.485 10.5802 102.686 9.49329C102.192 8.78154 101.056 7.37728 100.026 7.45423Z" fill="#CA1856"/>
<path d="M100.352 7.87742C101.403 7.09835 103.569 8.83925 104.137 9.49328C104.446 9.81019 104.668 10.1901 104.784 10.6013C104.9 11.0125 104.906 11.4431 104.803 11.8572C104.701 12.2713 104.491 12.6569 104.192 12.9818C103.893 13.3068 103.514 13.5617 103.086 13.7253L103.706 14.5429C104.757 13.2155 104.326 11.4554 103.706 10.0415C103.033 8.80077 101.75 7.03102 100.131 6.95407C99.4163 6.95407 99.2166 7.91589 99.9315 7.91589C102.118 8.01208 104.137 12.3018 102.854 13.8311C102.539 14.2062 102.928 14.8699 103.475 14.639C104.003 14.4477 104.481 14.155 104.876 13.7807C105.271 13.4064 105.573 12.9592 105.763 12.469C105.954 11.9789 106.027 11.4572 105.979 10.9389C105.93 10.4207 105.761 9.91793 105.483 9.46443C104.652 8.09864 101.551 5.61714 99.7107 6.99255C99.143 7.4446 99.7843 8.29101 100.352 7.87742Z" fill="#CA1856"/>
<path d="M101.467 4.67436C99.7108 4.47237 98.0286 6.65571 97.0824 7.69448C96.2435 8.63701 95.7126 9.77711 95.5507 10.9835C95.3889 12.19 95.6028 13.4137 96.1677 14.5138C95.3266 14.081 94.8535 12.292 94.6222 11.4744C94.4114 10.8707 94.3389 10.2336 94.4095 9.60305C94.48 8.9725 94.692 8.36206 95.0323 7.8099C96.0836 5.98244 98.281 4.35695 100.731 4.51085C100.984 4.529 101.232 4.58421 101.467 4.67436V4.67436Z" fill="#CA1856"/>
<path d="M101.425 4.1648C99.2588 4.1648 97.871 5.99226 96.6619 7.40614C95.775 8.42308 95.2084 9.6422 95.0231 10.9321C94.8378 12.2219 95.041 13.5336 95.6106 14.7256L96.5042 14.1678C95.148 13.1194 94.78 10.5994 95.0323 9.13742C95.4634 6.59821 98.7541 4.75151 101.34 5.17471C101.461 5.16424 101.574 5.11837 101.663 5.04402C101.752 4.96967 101.813 4.87084 101.835 4.7624C101.858 4.65396 101.841 4.54176 101.788 4.44266C101.735 4.34357 101.648 4.26294 101.54 4.21289C98.4598 3.71274 96.0311 5.34784 94.4961 7.67545C93.1819 9.66643 93.8233 13.4464 95.7788 14.9949C95.8195 15.0518 95.8721 15.1007 95.9335 15.139C95.9949 15.1772 96.0639 15.204 96.1367 15.2179C96.2094 15.2317 96.2844 15.2323 96.3574 15.2196C96.4304 15.207 96.4999 15.1813 96.5621 15.144C96.6242 15.1067 96.6777 15.0587 96.7195 15.0025C96.7613 14.9463 96.7906 14.8831 96.8058 14.8166C96.8209 14.7501 96.8215 14.6815 96.8077 14.6147C96.7938 14.5479 96.7657 14.4843 96.725 14.4275C96.2239 13.4065 96.0354 12.2801 96.1799 11.1688C96.3243 10.0574 96.7962 9.00288 97.5451 8.11789C98.5123 6.91561 99.774 5.23242 101.551 5.23242C102.245 5.17471 102.14 4.15518 101.425 4.1648Z" fill="#CA1856"/>
<path d="M103.412 4.65514C103.99 4.30889 105.956 4.65514 106.566 4.99178C107.748 5.56595 108.77 6.38227 109.551 7.3771C110.405 8.35378 110.825 9.58823 110.73 10.8354C110.634 12.0826 110.03 13.2514 109.036 14.1099C107.647 15.5267 105.996 16.7086 104.158 17.6013C103.135 18.0024 102.042 18.2305 100.93 18.2746C99.8217 18.2756 98.7446 17.937 97.8708 17.3127C99.1745 17.2839 100.474 17.1715 101.761 16.9761C102.837 16.7317 103.837 16.2644 104.684 15.6103C106.513 14.2638 108.111 11.9554 107.596 9.7528C107.238 8.36778 105.136 4.64552 103.412 4.65514Z" fill="#CA1856"/>
<path d="M103.611 5.13625C105.714 4.48221 107.89 6.34815 109.078 7.66585C110.824 9.58949 110.235 11.9941 108.595 13.7638C106.439 16.0914 101.572 19.4097 98.2598 16.8897L97.9444 17.7842C102.77 17.438 106.828 16.2165 108.185 11.4554C108.889 9.02202 106.271 4.59763 103.506 4.15519C103.387 4.16734 103.275 4.21443 103.187 4.28945C103.099 4.36447 103.041 4.46341 103.019 4.57153C102.998 4.67964 103.016 4.79115 103.069 4.88944C103.123 4.98774 103.21 5.06756 103.317 5.11702C105.724 5.50175 107.27 9.3298 107.091 11.2246C106.671 15.5817 101.498 16.4473 97.8393 16.7166C97.731 16.7292 97.629 16.77 97.5455 16.8342C97.462 16.8985 97.4004 16.9834 97.3682 17.0787C97.3361 17.1741 97.3346 17.276 97.3641 17.3721C97.3936 17.4682 97.4527 17.5545 97.5344 17.6207C101.982 21.0063 108.931 16.1491 110.866 12.3692C112.8 8.5892 107.712 2.75093 103.222 4.13596C102.539 4.38603 102.917 5.34785 103.611 5.13625Z" fill="#CA1856"/>
<path d="M107.112 3.72229C106.28 3.30083 105.372 3.01753 104.431 2.88551C103.022 2.52744 101.547 2.44227 100.1 2.63543C97.7819 3.18008 95.5766 4.06698 93.5708 5.26121C93.2029 5.43434 92.7613 5.92487 92.3933 5.9922C92.7626 5.02114 93.3581 4.13507 94.1386 3.39527C94.8 2.57651 95.6462 1.89749 96.6198 1.4043C97.7555 0.826394 99.0262 0.506412 100.325 0.471264C101.624 0.436115 102.913 0.686828 104.084 1.20232C105.387 1.70387 106.469 2.59133 107.154 3.72229" fill="#CA1856"/>
<path d="M107.354 3.26038C101.908 0.451855 96.8405 2.95259 92.0463 5.56875L92.8664 6.21318C94.8745 1.11551 103.212 -1.33714 106.66 4.0106C107.028 4.58769 107.943 4.0106 107.575 3.42389C103.737 -2.5298 94.149 -0.0579111 91.8571 5.77074C91.8114 5.8728 91.8024 5.98553 91.8314 6.09258C91.8604 6.19963 91.9259 6.29546 92.0184 6.36617C92.111 6.43689 92.2257 6.47882 92.346 6.4859C92.4663 6.49298 92.586 6.46483 92.6876 6.40554C97.0718 4.00098 101.824 1.59642 106.87 4.18373C107.501 4.51075 107.985 3.57778 107.354 3.22191V3.26038Z" fill="#CA1856"/>
<path d="M92.2252 6.80005C90.2907 7.6176 89.355 10.907 89.744 12.571C90.0278 13.8598 90.9951 14.7928 91.6785 15.8797C92.2565 16.888 92.9623 17.8307 93.7812 18.6882C94.9855 20.0175 96.5684 21.0162 98.3546 21.5737C99.6583 21.968 102.697 22.2662 103.506 20.9004C102.381 20.506 100.983 20.4483 99.7949 20.0636C98.7141 19.7466 97.6823 19.3037 96.725 18.7459C94.7759 17.6406 93.322 15.9353 92.6247 13.9368C92.3829 13.2154 90.9425 7.69454 92.2252 6.80005Z" fill="#CA1856"/>
<path d="M91.8992 6.37688C89.9858 7.45412 89.2814 9.5028 89.1131 11.4649C88.9134 13.7541 90.932 15.8605 92.1831 17.6783C94.0755 20.4099 100.71 24.9689 103.937 21.2755C103.999 21.2056 104.04 21.1223 104.056 21.0337C104.072 20.9451 104.062 20.8541 104.028 20.7698C103.995 20.6855 103.937 20.6107 103.862 20.5527C103.787 20.4946 103.697 20.4554 103.601 20.4387C99.0695 19.2365 94.9797 18.2746 93.1714 13.7733C92.5931 12.3594 91.4577 8.42556 92.6457 7.1271C92.729 7.02273 92.7659 6.8933 92.7489 6.76498C92.7319 6.63667 92.6622 6.51906 92.554 6.43596C92.4458 6.35285 92.3072 6.31045 92.1661 6.31734C92.025 6.32423 91.892 6.37989 91.7941 6.47306C90.1435 8.25243 91.4787 11.9458 92.0569 13.9368C93.5709 18.9191 98.691 20.1983 103.412 21.4486L103.033 20.6119C101.771 22.0642 99.1641 21.3813 97.6502 20.8331C95.4108 20.0348 93.8022 18.1592 92.5616 16.3702C90.7007 13.6771 88.4823 9.47395 92.4985 7.22328C93.1609 6.87703 92.5195 6.04024 91.8992 6.37688Z" fill="#CA1856"/>
<path d="M90.8479 4.04933C89.9227 3.96276 89.0501 5.10733 88.5559 5.59786C87.5802 6.62493 86.7888 7.78716 86.2114 9.04119C85.0969 11.2341 84.2874 13.9273 85.4229 16.2549C86.5583 18.5825 89.2708 21.1121 92.3513 20.9197C90.8244 19.2015 89.5583 17.3023 88.5875 15.2738C88.1834 14.1814 87.8878 13.058 87.7043 11.917C87.6145 10.5976 87.8742 9.27776 88.4613 8.06975C88.8073 7.11634 89.229 6.18731 89.7229 5.29008C89.9703 4.79216 90.3587 4.36379 90.8479 4.04933V4.04933Z" fill="#CA1856"/>
<path d="M90.7952 3.53946C86.8105 4.34739 84.6868 10.2145 84.3608 13.4366C83.9403 17.5532 88.1562 21.2947 92.4353 21.4294C92.5328 21.4199 92.6259 21.3875 92.7057 21.3353C92.7854 21.2831 92.849 21.213 92.8903 21.1316C92.9316 21.0502 92.9492 20.9605 92.9413 20.8711C92.9334 20.7817 92.9003 20.6957 92.8453 20.6214C89.2286 15.9758 85.7591 9.21422 91.2683 4.38587C91.794 3.92419 90.9318 3.27015 90.4167 3.72221C84.4555 8.94491 88.0196 16.2259 91.9201 21.2082L92.3302 20.4098C87.4098 20.2559 84.897 15.7258 85.7486 11.7534C86.2112 9.61818 88.314 5.088 90.9003 4.559C91.5942 4.42434 91.468 3.39519 90.7952 3.53946Z" fill="#CA1856"/>
<path d="M90.9635 21.641C92.042 22.1823 93.155 22.6641 94.2963 23.0838C95.9072 23.5913 97.5971 23.8576 99.3008 23.8725C102.381 23.8725 105.462 22.6125 108.206 21.4006C109.531 20.7946 110.687 20.0444 111.959 19.3904C111.467 20.3142 110.864 21.1851 110.161 21.9873C109.464 22.9205 108.687 23.8017 107.838 24.6227C106.77 25.4896 105.513 26.1394 104.15 26.529C102.787 26.9186 101.349 27.0393 99.9316 26.883C97.7929 26.5462 95.7655 25.7701 94.002 24.6131C93.1819 24.0456 90.9425 22.5259 90.9635 21.641Z" fill="#CA1856"/>
<path d="M90.7216 22.1218C98.7224 25.8249 104.936 23.8147 112.285 19.8135L111.454 19.1787C109.457 22.7951 106.502 25.8056 101.992 26.4116C98.9853 26.8155 92.5299 24.5937 91.4786 21.487C91.2788 20.8522 90.2275 21.2081 90.4272 21.8429C91.4786 25.0746 97.6606 27.6139 100.941 27.4696C106.481 27.2676 109.993 23.9782 112.411 19.6211C112.461 19.5186 112.473 19.4041 112.445 19.2949C112.418 19.1856 112.353 19.0874 112.259 19.0149C112.166 18.9424 112.049 18.8995 111.927 18.8926C111.804 18.8857 111.683 18.9152 111.581 18.9767C108.87 20.5322 105.987 21.8218 102.98 22.824C98.775 24.1224 94.8745 22.9394 91.1421 21.2081C90.5639 20.8811 90.0803 21.8044 90.7216 22.1218Z" fill="#CA1856"/>
<path d="M108.29 3.27978C110.152 4.84323 111.628 6.75149 112.621 8.87759C113.599 11.0417 112.621 13.6001 110.95 15.293C110.06 16.181 109.115 17.0223 108.122 17.8129C107.121 18.4262 106.215 19.1607 105.43 19.9963C106.783 19.8306 108.102 19.4805 109.341 18.9575C110.5 18.5856 111.571 18.0143 112.495 17.2743C113.436 16.587 114.204 15.723 114.748 14.7406C115.292 13.7583 115.6 12.6806 115.649 11.5803C115.702 10.4884 115.519 9.39777 115.109 8.37105C114.699 7.34434 114.072 6.40184 113.263 5.59778C112.558 4.99183 109.341 2.38529 108.29 3.27978Z" fill="#CA1856"/>
<path d="M107.901 3.66444C111.412 6.83846 114.02 10.8396 110.498 14.9562C108.931 16.8029 106.587 17.8417 104.989 19.6692C104.918 19.7462 104.873 19.8409 104.861 19.9411C104.848 20.0413 104.869 20.1427 104.919 20.2322C104.97 20.3218 105.049 20.3957 105.145 20.4444C105.242 20.4931 105.352 20.5145 105.462 20.506C111.223 19.8231 116.27 16.1489 116.123 10.58C116.049 7.96379 111.917 1.18294 108.08 2.7988C107.428 3.06811 107.806 4.02994 108.458 3.76063C109.678 3.24124 111.234 4.72245 112.075 5.34763C113.78 6.70102 114.831 8.61656 114.998 10.6761C115.691 15.6103 110.046 18.9286 105.367 19.4864L105.84 20.3232C108.532 17.3127 112.211 15.9085 113.421 11.8688C114.409 8.53127 110.96 4.99176 108.626 2.88537C108.111 2.42369 107.396 3.20277 107.901 3.66444Z" fill="#CA1856"/>
</svg>
