<svg width="150" height="20" viewBox="0 0 150 20" fill="none" xmlns="http://www.w3.org/2000/svg">
<g clip-path="url(#clip0)">
<path d="M87.056 10.0668C79.1321 2.15451 66.1941 2.05918 55.5124 4.10876C49.0748 5.3385 42.655 7.23554 36.2353 8.57968C33.782 7.84565 32.3852 5.46243 33.8178 3.27939C34.5135 2.26038 35.5476 1.56163 36.7098 1.32515C37.7484 1.1059 39.4586 1.22029 39.9152 2.27844C40.3718 3.33659 39.6735 4.85232 38.1245 4.33754C37.4709 4.11829 37.0321 5.07158 37.6499 5.34803C39.575 6.21552 41.7686 4.80466 41.5358 2.83135C41.1866 0.2956 37.9633 -0.486096 35.6622 0.286067C33.3612 1.05823 31.651 3.2222 31.8659 5.49102C31.963 6.25174 32.2433 6.97278 32.6794 7.58413C33.1156 8.19548 33.6928 8.67636 34.355 8.98006C25.5446 10.6864 16.7343 11.144 7.92392 7.20694C7.81118 7.15303 7.6857 7.13691 7.56415 7.16075C7.4426 7.18459 7.33074 7.24725 7.24345 7.3404C7.19662 7.27976 7.13536 7.23362 7.06606 7.20679C6.99676 7.17996 6.92197 7.17343 6.84949 7.18788C5.34214 7.49405 3.80128 7.56789 2.27419 7.40713C1.65639 7.29274 1.37883 7.24508 1.37883 6.63497C1.37883 6.02487 1.71011 5.68168 2.37268 5.55775C3.13712 5.49741 3.9054 5.52297 4.66481 5.63402C5.22888 5.63402 5.22888 4.97625 4.7812 4.80466L4.54841 4.76652C4.58025 4.73443 4.60423 4.69452 4.61825 4.65029C4.63227 4.60605 4.63591 4.55884 4.62884 4.51276C4.62178 4.46669 4.60422 4.42315 4.57772 4.38596C4.55121 4.34877 4.51656 4.31906 4.47678 4.29941C3.42025 3.63211 3.28595 2.01152 4.71853 1.64927C5.18773 1.56984 5.66816 1.67114 6.07351 1.93497C6.47887 2.19881 6.78257 2.6079 6.93007 3.08874C7.47624 4.37568 7.34194 5.78654 8.05823 7.00675C8.3537 7.512 9.32964 7.16881 9.08789 6.61591C8.28207 4.69026 8.3537 0.209804 4.87969 0.552988C2.52489 0.781778 2.01454 3.41285 3.70677 4.51867C2.81988 4.32667 1.89803 4.46112 1.09231 4.89998C0.713131 5.09504 0.406426 5.41997 0.221349 5.82272C0.0362729 6.22546 -0.0164605 6.6827 0.0716 7.12115C0.823704 9.44717 5.35424 8.26509 7.04647 7.84565L7.16287 7.79798C7.20771 7.91161 7.29071 8.00337 7.39566 8.05537C10.3233 9.61833 13.457 10.6983 16.6895 11.2584C15.574 11.7069 14.6571 12.5845 14.1198 13.7179C13.8712 14.3047 13.7476 14.9428 13.7577 15.5864C13.7679 16.23 13.9116 16.8633 14.1785 17.4409C14.4455 18.0185 14.8291 18.5261 15.3019 18.9273C15.7747 19.3285 16.325 19.6135 16.9134 19.7618C19.3398 20.5339 22.3393 19.4186 22.7422 16.9019C23.0914 14.7665 20.459 12.879 18.4802 14.3852C18.1579 14.6235 18.4802 15.1764 18.8921 15.0334C21.3454 14.1755 22.1781 17.1688 20.1993 18.2746C19.482 18.6315 18.6773 18.7389 17.8995 18.5815C17.1216 18.4241 16.4101 18.0098 15.8658 17.3976C15.4163 16.7931 15.1932 16.0328 15.2395 15.2634C15.2858 14.494 15.5982 13.7702 16.1165 13.2317C16.7561 12.6366 17.5124 12.2011 18.3304 11.957C19.1483 11.7129 20.007 11.6664 20.844 11.8209C20.9554 11.837 21.0687 11.8136 21.1663 11.7541C31.3376 12.2689 41.876 8.83707 52.2712 6.54917C51.3446 7.39514 50.7634 8.59168 50.6506 9.88569C50.4894 12.6502 53.0412 15.1574 56.0228 15.4815C58.7089 15.7865 61.9859 13.9658 61.4487 11.2108C61.3131 10.6075 61.02 10.0574 60.6034 9.62391C60.1867 9.19041 59.6634 8.8912 59.0939 8.7608C57.4643 8.36042 56.1839 9.38998 55.208 10.4577C54.7424 10.9724 55.4676 11.6588 56.0228 11.2012C56.4429 10.8461 56.889 10.5274 57.3569 10.2479C59.0312 10.0096 59.8997 10.5339 59.9534 11.8209C59.9534 12.7741 58.8521 13.6226 57.9388 13.899C57.1628 14.12 56.3473 14.132 55.5658 13.934C54.7843 13.736 54.0614 13.3341 53.462 12.7646C50.6506 10.0763 53.0323 6.45385 56.4078 5.71981C66.8566 3.81324 77.0011 3.71791 86.4024 10.6674C86.8501 11.0106 87.4768 10.4863 87.056 10.0668Z" fill="#D41856"/>
<path d="M62.944 10.0659C70.8679 2.15359 83.8059 2.05826 94.5144 4.10783C100.925 5.33757 107.345 7.23462 113.765 8.59782C116.218 7.86379 117.615 5.48056 116.191 3.29753C115.501 2.27267 114.47 1.56685 113.308 1.32423C112.269 1.10497 110.559 1.21936 110.112 2.27751C109.664 3.33566 110.344 4.85139 111.902 4.33662C112.547 4.11736 112.995 5.07065 112.368 5.3471C110.443 6.2146 108.249 4.80373 108.482 2.83042C108.778 0.275607 112.001 -0.506089 114.302 0.266075C116.603 1.03824 118.313 3.2022 118.107 5.47103C118.006 6.23153 117.723 6.95164 117.286 7.56251C116.848 8.17337 116.271 8.65456 115.609 8.96007C124.42 10.6665 133.23 11.124 142.04 7.18695C142.153 7.13166 142.279 7.11481 142.4 7.1387C142.522 7.1626 142.634 7.22608 142.721 7.32041C142.768 7.25977 142.829 7.21362 142.898 7.18679C142.967 7.15996 143.042 7.15343 143.115 7.16789C144.622 7.47406 146.163 7.5479 147.69 7.38714C148.308 7.27275 148.585 7.22508 148.585 6.61498C148.585 6.00487 148.254 5.66169 147.591 5.53776C146.83 5.47738 146.065 5.50294 145.308 5.61403C144.744 5.61403 144.735 4.95626 145.183 4.78466L145.398 4.7084C145.373 4.67644 145.355 4.63913 145.345 4.59905C145.335 4.55897 145.334 4.51708 145.341 4.47628C145.347 4.43548 145.362 4.39675 145.385 4.36275C145.407 4.32876 145.436 4.30033 145.469 4.27942C146.526 3.61212 146.66 1.99153 145.228 1.62928C144.759 1.55182 144.279 1.65396 143.874 1.91752C143.469 2.18109 143.165 2.589 143.016 3.06874C142.479 4.35568 142.613 5.76655 141.87 6.98676C141.566 7.492 140.59 7.14882 140.832 6.59591C141.664 4.68934 141.593 0.189812 145.067 0.532996C147.421 0.761785 147.932 3.39286 146.24 4.49868C147.126 4.30667 148.048 4.44112 148.854 4.87999C149.234 5.07371 149.542 5.39845 149.727 5.80158C149.912 6.20471 149.964 6.66263 149.875 7.10116C149.123 9.42718 144.601 8.2451 142.9 7.82565L142.801 7.77799C142.781 7.83532 142.749 7.88766 142.709 7.93188C142.669 7.9761 142.622 8.0113 142.569 8.03538C139.644 9.59688 136.513 10.6768 133.284 11.2384C134.396 11.6925 135.311 12.5685 135.853 13.6979C136.102 14.2854 136.225 14.9241 136.214 15.5683C136.204 16.2125 136.059 16.8461 135.791 17.4238C135.524 18.0016 135.139 18.509 134.665 18.9098C134.191 19.3105 133.64 19.5946 133.051 19.7418C130.633 20.5139 127.625 19.3986 127.222 16.8819C126.882 14.7465 129.505 12.859 131.484 14.3652C131.806 14.6035 131.484 15.1564 131.072 15.0135C128.628 14.1555 127.795 17.1488 129.765 18.2546C130.483 18.6123 131.29 18.7201 132.069 18.5627C132.849 18.4053 133.562 17.9907 134.107 17.3776C134.559 16.7712 134.784 16.0084 134.74 15.2358C134.695 14.4632 134.384 13.7355 133.866 13.1927C133.226 12.5969 132.47 12.161 131.652 11.9169C130.834 11.6728 129.975 11.6266 129.138 11.7818C129.027 11.7973 128.914 11.7739 128.816 11.7151C118.635 12.2298 108.079 8.79801 97.6751 6.51012C98.6047 7.35352 99.1865 8.55146 99.2957 9.84663C99.4568 12.6112 96.905 15.1183 93.9235 15.4424C91.2374 15.7475 87.9604 13.9267 88.4976 11.1717C88.6325 10.5697 88.9242 10.0204 89.3392 9.58706C89.7541 9.15367 90.2755 8.85374 90.8434 8.72175C92.473 8.32136 93.7534 9.35092 94.7293 10.4186C95.1949 10.9334 94.4697 11.6197 93.9145 11.1622C93.4944 10.8071 93.0483 10.4883 92.5804 10.2089C90.9061 9.97056 90.0376 10.4949 89.9839 11.7818C89.9839 12.7351 91.0852 13.5835 91.9985 13.86C92.7745 14.0809 93.59 14.093 94.3715 13.8949C95.153 13.6969 95.8759 13.2951 96.4753 12.7256C99.3046 10.0659 96.923 6.44339 93.5116 5.69029C83.1433 3.81231 72.972 3.71698 63.5707 10.6665C63.1409 11.0096 62.5321 10.4853 62.944 10.0659Z" fill="#D41856"/>
</g>
<defs>
<clipPath id="clip0">
<rect width="150" height="20" fill="white"/>
</clipPath>
</defs>
</svg>
