<?xml version="1.0" encoding="utf-8"?>
<!-- Generator: Adobe Illustrator 23.0.0, SVG Export Plug-In . SVG Version: 6.00 Build 0)  -->
<svg version="1.1" id="Layer_1" xmlns="http://www.w3.org/2000/svg" xmlns:xlink="http://www.w3.org/1999/xlink" x="0px" y="0px"
	 viewBox="0 0 190.2 135.2" style="enable-background:new 0 0 190.2 135.2;" xml:space="preserve">
<style type="text/css">
	.st0{fill:#CA1856;}
	.st1{font-family:'SitkaSmall';}
	.st2{font-size:22px;}
	.st3{font-size:17px;}
	.st4{fill:#523B34;}
</style>
<title>LOGO</title>
<g>
	<g id="OBJECTS">
		<text transform="matrix(1 2.094394e-03 -2.094394e-03 1 40.0784 60.0897)" class="st0 st1 st2">WEDDING</text>
		<text transform="matrix(1 2.094394e-03 -2.094394e-03 1 58.8405 83.0398)" class="st0 st1 st3">PHOTOS</text>
		<path class="st4" d="M132.7,13.5c3-0.5,6.4-1.2,6.7-4.8c0-0.3-0.3-0.4-0.5-0.4c-3.2,0.5-7,1.8-8.7,4.8c-1,0-2,0.1-3,0.3
			c-1.9,0.4-3.6,1.3-5.1,2.5c0.6-2.5-0.2-5.2-2.1-6.9c-2.4-2.2-5.4-0.8-6.4,2c-0.8,2.1,1.5,5.6,3.8,3.6c1.7-1.5,0.8-4-1.6-3
			c-0.5,0.2-0.3,1,0.2,0.8c0.9-0.4,1.7-0.2,1.4,0.9c-0.3,0.8-1.1,1.3-1.9,1c-0.1,0-0.3-0.1-0.4-0.2c-2.3-1.2-0.1-4.7,1.5-5.3
			c1.9-0.6,3.6,1.4,4.3,2.8c0.9,1.7,0.8,3.7-0.2,5.4c-0.1,0.1-0.1,0.2-0.1,0.3c-0.9,0.8-1.7,1.8-2.4,2.8c-1.2,1.6-2.2,3.2-3.3,4.9
			c-0.1-2.6-0.7-5.3-1.7-7.7c-0.1-0.2-0.4-0.2-0.6-0.1c-0.1,0-0.1,0.1-0.1,0.1c-1.6,3-1,6.7,1.5,9c-0.8,1.1-1.5,2.1-2.3,3.2
			c-0.1,0.1-0.2,0.3-0.3,0.4l0,0c0,0-0.1,0.1-0.1,0.1c-1.7,2.1-4.2,4.9-6.9,4.6c0-0.8-0.6-1.5-1.4-1.6c0,0-0.1,0-0.1,0
			c-0.9,0.1-1.5,0.8-1.4,1.7c0.1,0.8,0.7,1.4,1.4,1.4c0.6,0,1.1-0.3,1.3-0.8c2.1,0.3,4-1.2,5.6-2.6c0.8-0.8,1.6-1.6,2.3-2.5
			c1.9-1.5,6.8-1.4,6.7,1.8c-0.1,1.8-1.7,2.7-3.3,2.7c-0.8,0-1.6-0.4-2.1-1.1c-1-1.6,0.9-2.7,2.2-1.8c0.4,0.3,0.8-0.4,0.4-0.7
			c-1-0.8-2.4-0.6-3.1,0.3c-0.6,0.8-0.7,1.9,0,2.7c1.2,1.9,4.4,1.5,5.8,0.1c1.3-1.3,1.3-3.4,0-4.7c-0.2-0.2-0.5-0.4-0.8-0.6
			c-1.4-0.8-3.1-0.9-4.6-0.4c0.5-0.7,1-1.3,1.4-2c0.2,0,0.4-0.1,0.4-0.3c0,0,0,0,0-0.1c0-0.1,0-0.1,0-0.2l1.3-1.9
			c1.4-2.2,2.9-4.2,4.6-6.1c0.1,0,0.1,0,0.2-0.1c1.8-1.4,5.9-2.4,7.5-0.2c1.2,1.5-0.1,3.4-1.4,4.2c-0.7,0.5-1.6,0.6-2.4,0.5
			c-0.6-0.2-1-0.7-1.1-1.3c-0.7-2,1.6-1.4,2.2-1.1c0.2,0.1,0.4,0,0.5-0.1s0-0.4-0.1-0.5c-2.3-1.3-4.5,0.7-2.9,3
			c1.4,2.1,4.6,0.4,5.8-1.1c1.1-1.5,0.8-3.6-0.7-4.8c-0.2-0.1-0.4-0.3-0.6-0.4c-1.5-0.5-3.1-0.6-4.7-0.1l0.3-0.3
			c1.9-1.4,4.3-2.1,6.7-2c0.1,0.1,0.4,0.1,0.5,0c2.9,0.2,5.6,1.5,7.7,3.6c0.2,0.1,0.4,0.1,0.6-0.1c0.1-0.1,0.1-0.3,0-0.5
			C137.2,15.4,135.1,14.1,132.7,13.5z M112.9,18.4c0.8,2.2,1.2,4.6,1.3,6.9C112.5,23.4,112,20.8,112.9,18.4z M138.6,9.2
			c-0.7,3-4.5,3.2-7.2,3.7C132.9,10.8,135.9,9.7,138.6,9.2z"/>
		<path class="st4" d="M189.7,61.3c-4.1,1.7-8.4,3-11.5,6.1c0.7-2.1,1.1-4.3,1.3-6.5c0.1-0.1,0.2-0.2,0.2-0.3c0-1.7,1.1-6.1,3.4-5.6
			c1.4,0.3,1.4,2.2,1.1,3.3c-0.2,0.6-0.6,1.1-1.2,1.4c-1.5,0.8-0.9-1-0.3-1.5c0.4-0.3,0-1-0.4-0.7c-0.7,0.5-1.1,1.3-1.2,2.2
			c0,0.6,0.5,1.1,1.1,1c0.1,0,0.1,0,0.2,0c1.9-0.4,3.1-2.4,2.7-4.3c0-0.1,0-0.2-0.1-0.3c-0.3-1.3-1.5-2.1-2.8-1.8
			c-0.5,0.1-1,0.4-1.3,0.8c-0.7,0.7-1.2,1.6-1.5,2.6c-0.2-2.1-0.7-4.1-1.4-6.1c0,0,0.1,0,0.1,0c3.2-1.8,8.4-7.2,4.6-10.8
			c-0.1-0.1-0.3-0.2-0.5-0.1c-2.8,2-5,4.7-5.5,8.1c-1.1-2.1-2.4-4-3.9-5.8c0-0.1,0-0.1-0.1-0.2c-1.3-1.8-2.5-3.8-2-6.1
			c0.5-2,2.6-5,4.9-3.7c1.2,0.7,1.3,2.8,1.2,4s-1,3.1-2.5,1.9c-1-0.8-0.2-2.4,0.6-2.8c0.5-0.2,0.1-0.9-0.4-0.7
			c-1.9,1-1.9,4.1,0.3,4.6c2.9,0.6,2.9-3.8,2.5-5.5c-0.7-2.8-3.3-3.2-5.4-1.4c-2.4,2.2-2.5,4.9-1.4,7.5c-1.7-1.8-3.6-3.4-5.5-4.9
			c1.5-4.5,3-9.3-0.1-13.6c-0.1-0.2-0.3-0.2-0.5-0.1c-0.1,0-0.1,0.1-0.1,0.1c-2,3.6-3.7,7.9-1.8,11.7c-3-1.9-6-3.7-9.2-5.2l-2.6-1.3
			c1.8-6.7-8.8-8.6-13.4-8.4c-0.2,0-0.4,0.2-0.4,0.4c0,0,0,0.1,0,0.1c1.3,6.5,6.8,12.1,13.5,8.7l0,0c1.5,0.7,2.9,1.4,4.3,2.2
			l0.4,0.2c-1.4,0-2.7,0.5-3.9,1.3c-1.3,1-1.5,2.9-0.4,4.2c0.3,0.3,0.6,0.6,1,0.8c1.6,0.8,4.2,0.2,3.7-2c-0.1-1.1-1.1-1.9-2.2-1.7
			c-0.8,0.1-1.5,0.7-1.7,1.5c-0.1,0.2,0.1,0.4,0.3,0.5s0.4-0.1,0.5-0.3c0.6-2.3,3.7,0.4,1.9,1.5c-0.7,0.2-1.4,0.2-2-0.2
			c-0.8-0.3-1.3-1.2-1.2-2c-0.2-2.8,4.2-3.4,6.1-2.6c0.1,0,0.1,0,0.2,0c3.6,2,7.1,4.3,10.3,7c-3-0.3-5.8,0.8-8.7,1.5
			c-0.2,0.1-0.3,0.3-0.3,0.5c0,0,0,0.1,0,0.1c2.8,3.8,7.6,2.2,10.4-0.8l0.1,0.1c3.9,3.7,6.9,8.2,8.6,13.3c-2-1.7-5-2.4-7.5-2.9
			c-0.2-0.1-0.4,0.1-0.5,0.3c0,0,0,0.1,0,0.1c-0.3,4.5,5.5,8.1,8.5,4.3c0.8,3.6,0.7,7.4-0.4,10.9c-0.6-1.7-2.1-2.9-3.3-4.3
			c-0.1-0.2-0.4-0.2-0.5,0c0,0-0.1,0.1-0.1,0.1c-1.2,1.9-0.6,4.4,1.3,5.6c0.6,0.4,1.2,0.6,1.9,0.6c-0.1,0.4-0.3,0.7-0.4,1.1l0,0l0,0
			c-0.2,0.1-0.3,0.3-0.2,0.5c-1.6,3.5-3.7,6.7-6.2,9.5c1-3.1,0.3-6.4-1.8-8.8c-0.2-0.2-0.4-0.1-0.6,0c0,0,0,0,0,0.1
			c-2.6,3.9-2.2,7.7-0.9,12c0,0,0,0,0,0.1c-1.1,1-2.2,1.9-3.4,2.7l-0.4,0.2c-0.1,0-0.1,0.1-0.1,0.2c-0.7,0.5-1.4,1-2.2,1.5
			c0.8-1.1,1.4-2.4,1.6-3.8c0.3-2.5-1.7-4.8-4.4-3.8c-1.9,0.8-3.2,4.4-0.5,5.1c2,0.5,3.6-1.8,1.1-2.5c-0.2-0.1-0.4,0.1-0.5,0.3
			c-0.1,0.2,0.1,0.4,0.3,0.5c0.7,1.2,0.3,1.3-1.3,0.6c-0.5-0.6-0.6-1.4-0.2-2c0.4-0.8,1.3-1.4,2.3-1.5c2-0.2,2.5,2.1,2.3,3.6
			c-0.5,2.4-2.1,4.5-4.3,5.7c-0.1,0-0.1,0.1-0.2,0.2c-4,2.2-8.1,4-12.3,5.6c4-3.6,6.6-8.9,5.5-14.3c-0.1-0.2-0.3-0.3-0.5-0.3
			c-0.1,0-0.1,0.1-0.2,0.1c-4.4,3.6-8.8,8.9-6.3,14.7l-0.8,0.6c0,0-0.1,0.1-0.1,0.1c-1,0.3-1.9,0.7-2.9,1c-4.8,1.6-9.6,3.1-14.3,4.8
			l0.3-0.2l0,0c4.2-3.8,8-8.2,6.8-14.3c-0.1-0.2-0.3-0.3-0.5-0.3c-0.1,0-0.1,0.1-0.2,0.1c-4.5,3.7-9,8.4-7.5,14.6l-0.9,0.8
			c-1.6,0.6-3.3,1.2-4.9,1.8c-6.4,2.5-13.1,5.6-18.4,10.2c-3.3,2.7-5.9,6.1-7.7,10c-1.3,3-1.8,7,0.3,9.7c1.7,2.1,4.3,2,5.2-0.6
			c0.8-2.2-2.3-4.2-3.5-1.8c-0.2,0.4,0.4,0.9,0.7,0.4l1.9-0.1c0.4,0.7,0.4,1.5-0.1,2.2c-0.4,0.7-1.3,1-2,0.6c0,0-0.1,0-0.1-0.1
			c-0.9-0.4-1.6-1.1-2-2c-1.4-2.5-0.5-6,0.6-8.4c0.8-1.7,1.8-3.3,3-4.8c0.1,0,0.2-0.1,0.3-0.2c1.3-1.6,3.2-2.5,5.3-2.4
			c1.7,0,4.3,0.8,4,2.9s-2.6,3.4-4.7,3.7c-1.1,0.1-2.2-0.2-2.2-1.5c-0.1-0.8,0.5-1.4,1.2-1.5c1.1-0.1,1,0.9,0.1,1.2
			c-0.5,0.2-0.3,0.9,0.2,0.8c3.4-1.2-0.2-4.1-1.8-2c-0.8,1.1-0.6,2.6,0.4,3.5c1.2,0.8,3.3,0.3,4.4-0.3c2.6-1.2,4.5-4.8,1.6-6.8
			c-1.9-1.1-4.3-1.2-6.3-0.3c1.2-1.2,2.6-2.3,3.9-3.3c1.4-1,2.9-2,4.4-2.9c2.1,5.9,13.8,7.4,16.7,1.5c0.1-0.2,0-0.4-0.2-0.5
			c0,0-0.1,0-0.1,0c-2.7-1-5.5-1.7-8.4-2.3c-1.7-0.4-3.5-0.4-5.3-0.2c4.4-2.2,8.9-4.1,13.5-5.7c0.1,0,0.3,0,0.3-0.1c0,0,0,0,0.1-0.1
			l1-0.3c0.2,0.1,0.4,0.1,0.6-0.1c0,0,0,0,0-0.1l3-1c0.7,3.3,4.5,5,7.6,5.6s7.6,0.6,9.1-2.6c0.1-0.2,0-0.4-0.2-0.5c0,0-0.1,0-0.1,0
			c-4.8-1-9.3-2.8-14.1-3.2c6.5-2.1,13.2-4.2,19.5-6.9c0.1,0.1,0.3,0.1,0.4,0c2-1.3,10.4-2.2,9.9,1.8c-0.5,2.5-3.7,3.6-5.9,3.6
			c-1.3,0-3.4-1.6-2.2-3c0.8-0.8,3.1-0.4,1.9,1c-0.3,0.4,0.2,0.9,0.6,0.6c1.9-2.4-1.6-3.7-3.2-1.9c-0.9,1-0.2,2.7,0.7,3.4
			c1.6,1.2,3.7,0.8,5.4,0.1c2.6-1,4.9-4.6,1.8-6.5c-1.6-0.8-3.4-1.2-5.2-1c2.9-1.4,5.6-3,8.3-4.8c1.6,2.7,5.7,2.8,8.4,2.3
			c3.1-0.5,7.4-1.9,8.1-5.4c0.1-0.2-0.1-0.4-0.3-0.5c0,0-0.1,0-0.1,0c-4.2-0.2-8.2-0.7-12,0.4c0.3-0.2,0.6-0.5,0.9-0.8
			c0.1,0,0.2,0,0.2-0.1c0.4-0.3,0.7-0.6,1-1c3.1-3,5.6-6.5,7.6-10.3c0.2-0.4,0.4-0.9,0.6-1.3c4.8,4.4,12.5-3.7,13.1-8.6
			c0-0.2-0.1-0.4-0.3-0.5C189.8,61.2,189.8,61.2,189.7,61.3z M150,26.7c-2.3-1.1-4.4-2.6-6.2-4.4c-0.3-0.4-0.9,0.2-0.6,0.6
			c1.8,1.9,3.9,3.5,6.3,4.6c-5.9,2.6-10.5-2.4-11.8-7.9C142.1,19.5,151.4,21.1,150,26.7z M164,34.7c0-0.1,0-0.2-0.1-0.2
			c-2.4-3.2-1.4-7,0.1-10.3c-0.8,3.5-0.2,7.2,0.2,10.7l0,0L164,34.7z M165.1,23.6c1.6,3.2,0.9,6.6-0.1,10
			C164.6,30.3,164.2,26.7,165.1,23.6L165.1,23.6z M159.6,40.6c2.8-0.7,5.6-1.7,8.6-1.2C165.9,41.6,162.1,43.2,159.6,40.6L159.6,40.6
			z M182.8,42c0.3,0.6,0.4,1.2,0.4,1.8c-0.1,2.4-2.5,4.9-4.6,6.4C179.8,47.3,181.2,44.6,182.8,42L182.8,42z M177.6,50.6l-0.2-0.6
			c0-0.1,0.1-0.1,0.1-0.2c0.1-2.3,1.1-4.5,2.6-6.2c0.5-0.6,1.1-1.1,1.7-1.7c0.1-0.1,0.2-0.2,0.3-0.2
			C180.4,44.6,178.9,47.5,177.6,50.6L177.6,50.6z M170.5,51.2c2.5,0.5,5.5,1.2,7.2,3.1C175.4,57.7,170.7,54.7,170.5,51.2L170.5,51.2
			z M108.2,110.6c4.4,2,9.7,2.1,14.4,1.5C119.6,116.1,110.6,114.9,108.2,110.6L108.2,110.6z M116,109.7c2,0.4,4,0.9,6,1.6
			c-4.4,0.5-9.4,0.4-13.5-1.5C110.8,108.7,113.7,109.2,116,109.7L116,109.7z M131.8,88.3c0.4,4.5-2.3,8-5.4,11
			c0.7-1.6,1.3-3.1,1.9-4.7c0.6-1.3,1.1-2.6,1.8-3.9C130.6,90,131.1,88.7,131.8,88.3L131.8,88.3z M125,100.6L125,100.6L125,100.6
			c-0.9-4.5,1.6-8.1,4.7-11.1c-0.6,1-1,2.3-1.4,3C127.3,95.2,126.3,97.9,125,100.6L125,100.6z M143.5,104.2l0.6,0.1
			c-2.7,4.1-12.6,2.1-14.6-2.3c1.7,1.1,3.6,1.7,5.6,2c2.7,0.5,5.4,0.7,8.1,0.6C143.3,104.6,143.5,104.5,143.5,104.2
			C143.5,104.2,143.5,104.2,143.5,104.2L143.5,104.2z M142.3,103.9c-2,0-4.1-0.1-6.1-0.4c-2.1-0.3-4.8-0.8-6.5-2.3
			C134.1,101.3,138.1,102.7,142.3,103.9L142.3,103.9z M149.8,82.4c0,4.1-1.6,8-4.5,10.8C146.7,89.5,148.2,85.9,149.8,82.4
			L149.8,82.4z M149.3,81.6c-2,4.2-3.7,8.4-5.3,12.8C142.1,89.3,145.7,84.8,149.3,81.6L149.3,81.6z M171.2,88.4
			c-2.3,0.4-6,0.5-7.6-1.5c4.8,0.8,9.8-0.9,14.4-2.2C176.9,87,173.6,87.9,171.2,88.4L171.2,88.4z M177.3,84c-4.4,1.3-9,2.9-13.6,2.1
			l0.9-0.7C168.6,83.4,172.9,83.7,177.3,84z M168.5,80.9c-0.3,0.3-0.6,0.6-0.9,0.8c-1.1-3.8-1.4-7.1,0.6-10.6
			C170.4,74.1,170.5,78,168.5,80.9z M174.3,62.6c1.2,1.3,2.7,2.6,3,4.4c0,0,0,0.1,0.1,0.1c-1.8,0.1-3.3-1.3-3.3-3.1
			C174.1,63.5,174.2,63,174.3,62.6L174.3,62.6z M177.3,69.5L177.3,69.5c2.8-3.8,7.1-5.2,11.2-6.9C186.1,66.1,181.2,67.8,177.3,69.5
			L177.3,69.5z M178.1,70c3.6-1.6,8-3.2,10.7-6.3C186.9,67.7,181.7,72.4,178.1,70L178.1,70z"/>
		<path class="st4" d="M157.2,23.6c-0.9,0.1-1.5,0.8-1.4,1.7c0.1,0.8,0.7,1.4,1.4,1.4c0.9-0.1,1.5-0.8,1.4-1.7
			C158.6,24.3,158,23.7,157.2,23.6z"/>
		<path class="st4" d="M168.8,45.2c-0.9,0.1-1.5,0.8-1.4,1.7c0.1,0.8,0.7,1.4,1.4,1.4c0.9-0.1,1.5-0.8,1.4-1.7
			C170.2,45.9,169.6,45.3,168.8,45.2z"/>
		<path class="st4" d="M188.7,53c-0.9,0.1-1.5,0.8-1.4,1.7c0.1,0.8,0.7,1.4,1.4,1.4c0.9-0.1,1.5-0.8,1.4-1.7
			C190.1,53.7,189.5,53.1,188.7,53z"/>
		<path class="st4" d="M179.9,76.9h-0.2c-0.9,0-1.6,0.7-1.6,1.6s0.7,1.6,1.6,1.6h0.2c0.9,0,1.6-0.7,1.6-1.6S180.7,76.9,179.9,76.9z"
			/>
		<path class="st4" d="M160.6,74.3c-0.9,0-1.6,0.7-1.6,1.6v0.2c0.1,0.9,0.8,1.5,1.7,1.4c0.8-0.1,1.4-0.7,1.4-1.4v-0.2
			C162.2,75,161.5,74.3,160.6,74.3z"/>
		<path class="st4" d="M165.9,95.7h-0.3c-0.9,0.1-1.5,0.8-1.4,1.7c0.1,0.8,0.7,1.4,1.4,1.4h0.3c0.9,0.1,1.6-0.6,1.7-1.4
			s-0.6-1.6-1.4-1.7C166,95.7,165.9,95.7,165.9,95.7z"/>
		<path class="st4" d="M137.1,89.2c-0.9,0.1-1.5,0.8-1.4,1.7c0.1,0.8,0.7,1.4,1.4,1.4c0.9-0.1,1.5-0.8,1.4-1.7
			C138.5,89.9,137.9,89.3,137.1,89.2z"/>
		<path class="st4" d="M131.1,110c-0.9,0.1-1.5,0.8-1.4,1.7c0.1,0.8,0.7,1.4,1.4,1.4c0.9-0.1,1.5-0.8,1.4-1.7
			C132.4,110.7,131.8,110.1,131.1,110z"/>
		<path class="st4" d="M110.9,101.2v0.2c0.1,0.9,0.8,1.5,1.7,1.4c0.8-0.1,1.4-0.7,1.4-1.4v-0.2c-0.1-0.9-0.8-1.5-1.7-1.4
			C111.6,99.8,111,100.5,110.9,101.2z"/>
		<path class="st4" d="M103.2,127.9H103c-0.9-0.1-1.6,0.6-1.7,1.4c-0.1,0.9,0.6,1.6,1.4,1.7c0.1,0,0.2,0,0.3,0h0.2
			c0.9,0.1,1.6-0.6,1.7-1.4c0.1-0.9-0.6-1.6-1.4-1.7C103.4,127.9,103.3,127.9,103.2,127.9L103.2,127.9z"/>
		<path class="st4" d="M95,113c-0.9,0.1-1.5,0.8-1.4,1.7c0.1,0.8,0.7,1.4,1.4,1.4c0.9-0.1,1.5-0.8,1.4-1.7
			C96.4,113.7,95.8,113.1,95,113z"/>
		<path class="st4" d="M125.4,8.5c-0.9,0-1.6,0.7-1.6,1.6c0,0.9,0.7,1.6,1.6,1.6c0.9,0,1.6-0.7,1.6-1.6C127,9.2,126.3,8.5,125.4,8.5
			z"/>
		<path class="st4" d="M120,24.9c-0.9,0.2-1.4,1-1.3,1.8c0.1,0.6,0.6,1.2,1.3,1.3c0.9-0.2,1.4-1,1.3-1.8
			C121.2,25.5,120.6,25,120,24.9z"/>
		<path class="st4" d="M141.2,14.1c-0.9,0.1-1.5,0.8-1.4,1.7c0.1,0.8,0.7,1.4,1.4,1.4c0.9-0.1,1.5-0.8,1.4-1.7
			C142.6,14.8,142,14.2,141.2,14.1z"/>
		<path class="st4" d="M51.3,17.1c-0.4,0.4,0.2,0.9,0.5,0.6c2-2.1,4.8-3.4,7.7-3.7c0.1,0.1,0.4,0.1,0.5,0c2.4-0.1,4.7,0.6,6.7,2
			l0.3,0.3c-1.5-0.5-3.2-0.4-4.7,0.1c-1.7,0.8-2.5,2.8-1.7,4.5c0.1,0.2,0.2,0.4,0.4,0.6c1.1,1.5,4.3,3.1,5.7,1.1
			c1.6-2.3-0.6-4.3-2.9-3c-0.2,0.1-0.3,0.4-0.1,0.5s0.4,0.3,0.5,0.1c0.6-0.4,2.9-0.9,2.2,1.1c-0.1,0.6-0.5,1.1-1.1,1.3
			c-0.8,0.2-1.7,0-2.4-0.5c-1.4-0.8-2.6-2.7-1.4-4.2c1.6-2.2,5.7-1.2,7.5,0.2c0.1,0,0.1,0.1,0.2,0.1c1.7,1.9,3.2,3.9,4.6,6.1
			c0.4,0.6,0.9,1.3,1.3,1.9v0.2c0,0.2,0.2,0.4,0.4,0.4c0,0,0,0,0.1,0c0.5,0.7,1,1.4,1.4,2c-1.5-0.5-3.2-0.4-4.6,0.4
			c-1.6,0.8-2.2,2.8-1.4,4.4c0.2,0.3,0.3,0.6,0.6,0.8c1.4,1.4,4.6,1.8,5.8-0.1c0.7-1,0.5-2.4-0.4-3.1c-0.8-0.6-1.9-0.6-2.7,0
			c-0.4,0.3,0,1,0.4,0.7c1.3-0.9,3.2,0.2,2.2,1.8c-0.5,0.7-1.2,1.1-2.1,1.1c-1.6,0.2-3.1-1-3.3-2.6c0,0,0,0,0-0.1
			c-0.1-3.3,4.8-3.3,6.7-1.8c0.7,0.9,1.5,1.7,2.3,2.5c1.5,1.4,3.4,2.9,5.6,2.6c0.2,0.5,0.8,0.8,1.3,0.8c0.9-0.1,1.5-0.8,1.4-1.7
			c-0.1-0.8-0.7-1.4-1.4-1.4c-0.8,0-1.5,0.6-1.5,1.5c0,0,0,0.1,0,0.1c-2.7,0.4-5.3-2.5-6.9-4.6c0-0.1-0.1-0.1-0.1-0.1l0,0l-0.3-0.4
			c-0.8-1-1.6-2.1-2.3-3.2c2.5-2.3,3.1-6,1.5-9c-0.1-0.2-0.4-0.2-0.6-0.1c-0.1,0-0.1,0.1-0.1,0.1c-1,2.4-1.6,5.1-1.7,7.7
			c-1.1-1.6-2.2-3.3-3.3-4.9c-0.7-1-1.5-1.9-2.4-2.8c0-0.1,0-0.2-0.1-0.3c-1-1.6-1.1-3.7-0.2-5.4c0.7-1.5,2.4-3.5,4.3-2.8
			c1.7,0.6,3.9,4.1,1.5,5.3c-0.7,0.5-1.6,0.3-2.1-0.4c-0.1-0.1-0.1-0.2-0.2-0.4c-0.3-1.1,0.5-1.2,1.4-0.9c0.5,0.2,0.7-0.6,0.2-0.8
			c-2.4-1-3.3,1.5-1.6,3c2.3,2,4.6-1.5,3.8-3.6c-1-2.8-4-4.2-6.4-2c-1.9,1.8-2.7,4.5-2.1,7c-1.5-1.2-3.3-2.1-5.1-2.5
			c-1-0.2-2-0.3-3-0.3c-1.7-3-5.5-4.3-8.7-4.8c-0.2,0-0.5,0.1-0.5,0.4c0.3,3.5,3.7,4.2,6.7,4.8C55.2,14.1,53,15.4,51.3,17.1z
			 M76,25.3c0.1-2.4,0.5-4.7,1.3-6.9C78.2,20.8,77.7,23.4,76,25.3z M58.9,13c-2.7-0.5-6.6-0.7-7.2-3.7C54.3,9.7,57.3,10.8,58.9,13z"
			/>
		<path class="st4" d="M0.1,61.7c0.6,4.8,8.4,13,13.1,8.6c0.2,0.4,0.4,0.9,0.6,1.3c2,3.8,4.5,7.3,7.6,10.3c0.3,0.4,0.6,0.7,1,1
			c0.1,0.1,0.1,0.1,0.2,0.1c0.3,0.3,0.6,0.5,0.9,0.8c-3.9-1.1-7.9-0.6-12-0.4c-0.2,0-0.4,0.2-0.4,0.4c0,0,0,0.1,0,0.1
			c0.7,3.5,5,4.9,8.1,5.4c2.7,0.4,6.9,0.3,8.4-2.3c2.6,1.8,5.4,3.4,8.3,4.8c-1.8-0.2-3.6,0.2-5.2,1c-3.1,1.9-0.8,5.5,1.8,6.5
			c1.7,0.7,3.8,1,5.4-0.1c0.9-0.7,1.6-2.4,0.7-3.4c-1.6-1.7-5.2-0.4-3.2,1.9c0.3,0.4,0.9-0.2,0.6-0.6c-1.2-1.4,1.2-1.8,1.9-1
			c1.3,1.4-0.9,2.9-2.2,3c-2.2,0-5.4-1.1-5.8-3.6c-0.6-4,7.9-3.1,9.9-1.8c0.1,0.1,0.3,0.1,0.4,0c6.3,2.7,13,4.7,19.5,6.9
			c-4.9,0.3-9.4,2.2-14.2,3.2c-0.2,0.1-0.3,0.3-0.3,0.5c0,0,0,0.1,0,0.1c1.5,3.2,6.1,3.3,9.1,2.6s6.9-2.3,7.6-5.6l3,1
			c0.1,0.2,0.3,0.3,0.5,0.2c0,0,0.1,0,0.1,0l0.9,0.3l0.1,0.1c0.1,0.1,0.2,0.1,0.3,0.1c4.6,1.6,9.1,3.5,13.5,5.7
			c-1.8-0.2-3.5-0.2-5.3,0.2c-2.9,0.5-5.7,1.3-8.4,2.3c-0.2,0.1-0.3,0.3-0.3,0.5c0,0,0,0.1,0,0.1c2.8,6,14.6,4.4,16.7-1.5
			c1.5,0.9,3,1.8,4.4,2.9c1.4,1,2.7,2.1,4,3.3c-2-1-4.4-0.9-6.3,0.3c-2.9,1.9-1,5.6,1.6,6.8c1.2,0.5,3.3,1.1,4.4,0.3
			c1-0.9,1.2-2.4,0.4-3.5c-1.6-2.1-5.2,0.8-1.8,2c0.5,0.2,0.7-0.6,0.2-0.8c-0.9-0.3-1.1-1.3,0.1-1.2c0.8,0.1,1.3,0.8,1.2,1.5
			c0,1.3-1,1.6-2.2,1.5c-2-0.2-4.4-1.4-4.7-3.7s2.2-3,4-2.9c2-0.1,4,0.8,5.3,2.4c0.1,0.1,0.2,0.2,0.3,0.2c1.2,1.5,2.2,3.1,3,4.8
			c1.1,2.4,2,5.9,0.6,8.4c-0.4,0.9-1.1,1.6-2,2c-0.7,0.4-1.6,0.2-2-0.5c0,0,0-0.1-0.1-0.1c-0.5-0.6-0.5-1.5-0.1-2.2l1.8,0.1
			c0.2,0.4,0.9,0.1,0.7-0.4c-1.2-2.4-4.3-0.4-3.5,1.8c0.9,2.7,3.4,2.8,5.2,0.6c2.2-2.7,1.7-6.7,0.3-9.7c-1.8-3.9-4.4-7.3-7.7-10
			c-5.3-4.6-11.9-7.6-18.4-10.2c-1.6-0.6-3.2-1.2-4.9-1.8l-0.9-0.8c1.5-6.1-3-10.8-7.5-14.6c-0.2-0.2-0.4-0.1-0.6,0
			c0,0-0.1,0.1-0.1,0.2c-1.2,6.1,2.7,10.5,6.8,14.3l0,0l0.3,0.2c-4.8-1.6-9.6-3.1-14.3-4.8c-1-0.3-1.9-0.7-2.9-1
			c0,0-0.1-0.1-0.1-0.1c-0.3-0.2-0.5-0.4-0.8-0.6c2.5-5.8-1.9-11.1-6.3-14.7c-0.2-0.2-0.4-0.1-0.6,0c0,0-0.1,0.1-0.1,0.2
			c-1,5.5,1.5,10.7,5.5,14.3c-4.3-1.6-8.5-3.4-12.5-5.6c0-0.1-0.1-0.1-0.2-0.2c-2.2-1.1-3.7-3.2-4.3-5.6c-0.3-1.5,0.3-3.8,2.3-3.6
			c1,0.1,1.8,0.6,2.2,1.5c0.4,0.6,0.3,1.4-0.2,2c-1.6,0.8-2,0.6-1.3-0.6c0.2-0.1,0.3-0.3,0.3-0.5s-0.3-0.3-0.5-0.3
			c-2.5,0.7-0.8,3,1.1,2.5c2.7-0.7,1.4-4.4-0.5-5.1c-2.6-1.1-4.7,1.2-4.4,3.8c0.2,1.4,0.7,2.7,1.6,3.8c-0.7-0.5-1.5-1-2.2-1.5
			c0-0.1-0.1-0.1-0.1-0.2L26.6,85c-1.2-0.9-2.3-1.8-3.4-2.7v-0.1c1.3-4.3,1.6-8-0.9-12c-0.1-0.2-0.4-0.2-0.6-0.1c0,0,0,0-0.1,0
			C19.6,72.6,19,76,20,79.1c-2.6-2.8-4.7-6-6.2-9.5c0.1-0.2,0-0.4-0.2-0.5l0,0l0,0c-0.1-0.4-0.3-0.7-0.4-1.1c2.2-0.1,4-2,3.9-4.3
			c0-0.7-0.2-1.3-0.6-1.9c-0.1-0.2-0.3-0.3-0.5-0.1c0,0-0.1,0-0.1,0.1c-1.2,1.3-2.7,2.6-3.3,4.3c-1.1-3.5-1.3-7.3-0.5-11
			c3,3.8,8.7,0.2,8.5-4.3c0-0.2-0.2-0.4-0.4-0.4c0,0-0.1,0-0.1,0c-2.5,0.5-5.5,1.1-7.5,2.9c1.7-5.1,4.7-9.7,8.6-13.3l0.1-0.1
			c2.8,3,7.5,4.6,10.4,0.8c0.1-0.2,0.1-0.4-0.1-0.5c0,0-0.1,0-0.1,0c-2.9-0.7-5.8-1.8-8.7-1.5c3.2-2.7,6.6-5,10.3-7
			c0.1,0,0.1,0,0.2,0c1.9-0.8,6.3-0.1,6.1,2.6c0,0.8-0.5,1.6-1.3,1.9c-0.6,0.4-1.3,0.4-2,0.2c-1.8-1.1,1.3-3.8,1.9-1.5
			c0.1,0.2,0.3,0.3,0.5,0.3c0.2-0.1,0.3-0.3,0.3-0.5c-0.3-1.1-1.3-1.7-2.4-1.5c-0.8,0.2-1.4,0.9-1.5,1.7c-0.5,2.3,2,2.9,3.7,2
			c1.5-0.7,2.1-2.5,1.3-4c-0.2-0.4-0.5-0.7-0.8-1c-1.1-0.9-2.5-1.3-3.9-1.4l0.4-0.2c1.4-0.8,2.9-1.5,4.3-2.2l0,0
			c6.8,3.5,12.3-2.2,13.5-8.7c0.1-0.2-0.1-0.4-0.3-0.5c0,0-0.1,0-0.1,0c-4.7-0.2-15.3,1.7-13.4,8.4c-0.9,0.4-1.8,0.9-2.6,1.3
			c-3.2,1.5-6.3,3.3-9.2,5.2c1.9-3.8,0.1-8.1-1.8-11.7c-0.1-0.2-0.4-0.2-0.6-0.1c-0.1,0-0.1,0.1-0.1,0.1c-3.1,4.2-1.6,9-0.1,13.6
			c-2,1.5-3.8,3.1-5.5,4.9c1-2.6,1-5.3-1.5-7.5c-2-1.8-4.7-1.4-5.4,1.4c-0.4,1.6-0.4,6.1,2.5,5.5c2.3-0.5,2.2-3.7,0.3-4.6
			c-0.4-0.2-0.9,0.5-0.4,0.7c0.9,0.4,1.6,2.1,0.6,2.8c-1.5,1.2-2.4-0.8-2.5-1.9s0-3.3,1.2-4c2.3-1.3,4.4,1.7,4.9,3.7
			c0.5,2.3-0.7,4.3-2,6.1c0,0.1-0.1,0.1-0.1,0.2c-1.5,1.8-2.8,3.7-3.8,5.8c-0.6-3.3-2.6-6.2-5.4-8.1c-0.2-0.1-0.4-0.1-0.5,0.1
			c-3.8,3.5,1.4,9,4.6,10.8c0,0,0.1,0,0.1,0c-0.7,2-1.2,4-1.4,6.1c-0.3-0.9-0.8-1.8-1.5-2.5C8.5,54,7,53.9,6,54.7
			C5.7,55,5.4,55.5,5.3,56c-0.6,1.9,0.5,3.9,2.4,4.5c0.1,0,0.1,0,0.2,0.1c0.6,0.1,1.1-0.2,1.3-0.8c0-0.1,0-0.1,0-0.2
			c0-0.9-0.4-1.6-1.1-2.1c-0.4-0.3-0.8,0.4-0.4,0.7c0.7,0.5,1.3,2.3-0.3,1.5c-0.6-0.3-1-0.8-1.2-1.4c-0.3-1-0.3-3,1.1-3.3
			c2.3-0.5,3.4,3.9,3.5,5.6c0,0.1,0.1,0.2,0.2,0.3c0.1,2.2,0.5,4.4,1.2,6.5c-3.1-3-7.4-4.3-11.4-6.1C0.3,61.2,0.1,61.4,0.1,61.7
			C0.1,61.6,0.1,61.6,0.1,61.7z M52.4,19.5c-1.3,5.6-5.9,10.6-11.8,7.9c2.4-1.1,4.5-2.6,6.3-4.6c0.3-0.4-0.2-1-0.6-0.6
			c-1.7,1.9-3.8,3.4-6.2,4.4C38.9,21.1,48.1,19.5,52.4,19.5z M25.9,34.9L25.9,34.9c0.4-3.5,1-7.2,0.2-10.7c1.6,3.3,2.5,7.1,0.1,10.3
			c0,0.1-0.1,0.1-0.1,0.2L25.9,34.9z M25.3,33.6c-1.1-3.4-1.8-6.8-0.1-10C26,26.7,25.7,30.3,25.3,33.6z M22,39.3
			c2.9-0.5,5.8,0.5,8.6,1.2C28.1,43.2,24.3,41.6,22,39.3z M11.6,50.1C9.5,48.7,7,46.2,7,43.8c0-0.6,0.1-1.3,0.4-1.8
			C9,44.6,10.4,47.3,11.6,50.1z M8.1,41.7c0.1,0.1,0.2,0.1,0.3,0.2c0.6,0.5,1.2,1.1,1.7,1.7c1.6,1.7,2.5,3.9,2.6,6.2
			c0,0.1,0,0.1,0.1,0.2l-0.2,0.6C11.4,47.5,9.8,44.5,8.1,41.7z M12.5,54.3c1.7-1.9,4.7-2.7,7.2-3.1C19.5,54.7,14.9,57.7,12.5,54.3z
			 M67.6,112c4.7,0.6,10.1,0.6,14.4-1.5C79.6,114.9,70.6,116.1,67.6,112z M81.7,109.8c-4.1,1.9-9.1,2-13.5,1.5c2-0.7,4-1.2,6-1.6
			C76.5,109.2,79.4,108.7,81.7,109.8L81.7,109.8z M60,90.7c0.7,1.3,1.3,2.6,1.8,3.9c0.7,1.6,1.3,3.1,1.9,4.7c-3.1-3-5.7-6.5-5.4-11
			C59.1,88.7,59.7,90,60,90.7z M61.8,92.5c-0.4-0.8-0.8-2-1.4-3c3.2,3,5.7,6.6,4.8,11.1h-0.1l0,0C64,97.9,63,95.2,61.8,92.5z
			 M47.1,104.6c2.7,0.1,5.5-0.1,8.1-0.6c2-0.3,3.9-0.9,5.6-2c-2.1,4.4-12,6.4-14.6,2.3l0.5-0.1C46.7,104.4,46.8,104.6,47.1,104.6
			C47.1,104.6,47.1,104.6,47.1,104.6z M60.5,101.2c-1.7,1.4-4.4,1.9-6.5,2.3c-2,0.3-4.1,0.4-6.1,0.4
			C52.1,102.7,56.2,101.3,60.5,101.2z M44.8,93.2c-2.9-2.8-4.5-6.7-4.5-10.8C42,85.9,43.5,89.5,44.8,93.2L44.8,93.2z M46.1,94.3
			c-1.6-4.3-3.3-8.6-5.3-12.8C44.5,84.8,48.1,89.3,46.1,94.3L46.1,94.3z M12.2,84.6c4.6,1.3,9.6,3,14.4,2.2c-1.7,2-5.3,1.9-7.6,1.5
			S13.4,87,12.2,84.6z M25.6,85.4l0.9,0.7c-4.6,0.8-9.2-0.8-13.6-2.1C17.3,83.7,21.6,83.4,25.6,85.4z M22,71.2
			c2,3.5,1.7,6.8,0.6,10.6c-0.3-0.3-0.6-0.6-0.9-0.8C19.8,78,19.9,74.1,22,71.2z M12.9,67.1c0,0,0.1-0.1,0.1-0.1
			c0.3-1.8,1.7-3.1,3-4.4c0.7,1.6,0,3.5-1.7,4.2C13.8,67,13.3,67.1,12.9,67.1L12.9,67.1z M12.9,69.5C9,67.8,4.1,66.1,1.6,62.5
			C5.7,64.2,10.1,65.7,12.9,69.5L12.9,69.5L12.9,69.5z M1.5,63.7c2.6,3.1,7,4.8,10.7,6.3C8.5,72.4,3.3,67.7,1.5,63.7z"/>
		<path class="st4" d="M33,23.6c0.9,0.1,1.5,0.8,1.4,1.7c-0.1,0.8-0.7,1.4-1.4,1.4c-0.9-0.1-1.5-0.8-1.4-1.7
			C31.7,24.3,32.3,23.7,33,23.6z"/>
		<path class="st4" d="M21.4,45.2c0.9,0.1,1.5,0.8,1.4,1.7c-0.1,0.8-0.7,1.4-1.4,1.4c-0.9-0.1-1.5-0.8-1.4-1.7
			C20,45.9,20.6,45.3,21.4,45.2z"/>
		<path class="st4" d="M1.5,53C2.4,53.1,3,53.8,3,54.7c-0.1,0.8-0.7,1.4-1.4,1.4c-0.9-0.1-1.5-0.8-1.4-1.7C0.1,53.7,0.8,53.1,1.5,53
			z"/>
		<path class="st4" d="M10.4,76.9h0.2c0.9,0,1.6,0.7,1.6,1.6s-0.7,1.6-1.6,1.6h-0.2c-0.9,0-1.6-0.7-1.6-1.6S9.5,76.9,10.4,76.9z"/>
		<path class="st4" d="M29.6,74.3c0.9,0,1.6,0.7,1.6,1.6v0.2c-0.1,0.9-0.8,1.5-1.7,1.4c-0.8-0.1-1.4-0.7-1.4-1.4v-0.2
			C28,75,28.7,74.3,29.6,74.3z"/>
		<path class="st4" d="M24.4,95.7h0.3c0.9-0.1,1.6,0.6,1.7,1.4s-0.6,1.6-1.4,1.7c-0.1,0-0.2,0-0.3,0h-0.3c-0.9,0.1-1.6-0.6-1.7-1.4
			s0.6-1.6,1.4-1.7C24.2,95.7,24.3,95.7,24.4,95.7z"/>
		<path class="st4" d="M53.1,89.2c0.9,0.1,1.5,0.8,1.4,1.7c-0.1,0.8-0.7,1.4-1.4,1.4c-0.9-0.1-1.5-0.8-1.4-1.7
			C51.7,89.9,52.4,89.3,53.1,89.2z"/>
		<path class="st4" d="M59.2,110c0.9,0.1,1.5,0.8,1.4,1.7c-0.1,0.8-0.7,1.4-1.4,1.4c-0.9-0.1-1.5-0.8-1.4-1.7
			C57.8,110.7,58.4,110.1,59.2,110z"/>
		<path class="st4" d="M79.3,101.2v0.2c0,0.9-0.7,1.6-1.6,1.6s-1.6-0.7-1.6-1.6v-0.2c0-0.9,0.7-1.6,1.6-1.6S79.3,100.4,79.3,101.2
			L79.3,101.2z"/>
		<path class="st4" d="M87,127.9h0.2c0.9-0.1,1.6,0.6,1.7,1.4c0.1,0.9-0.6,1.6-1.4,1.7c-0.1,0-0.2,0-0.3,0H87
			c-0.9,0.1-1.6-0.6-1.7-1.4c-0.1-0.9,0.6-1.6,1.4-1.7C86.8,127.9,86.9,127.9,87,127.9z"/>
		<path class="st4" d="M95.2,113c0.9,0.1,1.5,0.8,1.4,1.7c-0.1,0.8-0.7,1.4-1.4,1.4c-0.9-0.1-1.5-0.8-1.4-1.7
			C93.8,113.7,94.5,113.1,95.2,113z"/>
		<path class="st4" d="M64.8,8.5c0.9,0,1.6,0.7,1.6,1.6c0,0.9-0.7,1.6-1.6,1.6c-0.9,0-1.6-0.7-1.6-1.6C63.2,9.2,63.9,8.5,64.8,8.5z"
			/>
		<path class="st4" d="M70.2,24.9c0.9,0.1,1.5,0.8,1.4,1.7C71.6,27.4,71,28,70.2,28c-0.9-0.1-1.5-0.8-1.4-1.7
			C68.8,25.6,69.4,25,70.2,24.9z"/>
		<path class="st4" d="M49,14.1c0.9,0.1,1.5,0.8,1.4,1.7c-0.1,0.8-0.7,1.4-1.4,1.4c-0.9-0.1-1.5-0.8-1.4-1.7
			C47.6,14.8,48.2,14.2,49,14.1z"/>
		<path class="st0" d="M94.8,9c-1.3,1.2-2.4,3.4-1.8,5.1c0.3,0.8,1,1.3,1.8,1.6c0.4,0.2,1,0.3,1.1-0.1s-0.4-1.2-0.5-1.6
			c-0.3-0.9-0.5-1.9-0.5-2.9C94.8,10.5,94.5,9.5,94.8,9"/>
		<path class="st0" d="M94.4,8.6c-2.2,2.2-3.3,6.1,0.1,7.6c0.8,0.4,2.2,0.2,1.9-1c-0.2-0.8-0.6-1.6-0.8-2.4
			c-0.1-0.6-0.2-1.1-0.2-1.7c-0.1-0.6-0.2-1.3-0.1-1.9c0.2-0.6-0.8-1.1-1-0.5c-0.2,0.9-0.2,1.9,0,2.8c0,1.1,0.3,2.1,0.7,3.1
			c0.3,0.6,0.3,0.7-0.4,0.4c-0.9-0.4-1.4-1.4-1.3-2.4c0.2-1.3,0.9-2.5,1.8-3.4C95.7,8.8,94.8,8.1,94.4,8.6L94.4,8.6z"/>
		<path class="st0" d="M95.1,7.8c0.4-0.5,1.7-0.1,2.2,0.1c1,0.4,1.8,1.1,2.4,2c1,1.4,0.7,3.5-0.7,4.5c-0.2,0.2-0.5,0.3-0.8,0.4
			c1.1-1.2,0.2-3.8-0.6-4.9C97.2,9.1,96.1,7.7,95.1,7.8z"/>
		<path class="st0" d="M95.4,8.2c1-0.8,3.1,1,3.6,1.7c1,1.1,0.9,2.9-0.2,3.9c-0.2,0.2-0.5,0.4-0.8,0.5l0.6,0.9c1-1.4,0.6-3.2,0-4.7
			c-0.6-1.3-1.9-3.1-3.4-3.2c-0.7,0-0.9,1-0.2,1c2.1,0.1,4,4.6,2.8,6.1c-0.3,0.4,0.1,1.1,0.6,0.8c1.9-0.8,2.9-3,2.1-4.9
			c-0.1-0.2-0.1-0.3-0.2-0.5c-0.8-1.4-3.7-4-5.5-2.6C94.3,7.7,94.9,8.6,95.4,8.2z"/>
		<path class="st0" d="M96.5,4.9c-1.7-0.2-3.3,2.1-4.2,3.1c-1.6,2-2,4.8-0.9,7.1c-0.8-0.4-1.3-2.3-1.5-3.2c-0.4-1.3-0.3-2.6,0.4-3.8
			c1-1.9,3.1-3.6,5.4-3.4C96.1,4.7,96.3,4.8,96.5,4.9z"/>
		<path class="st0" d="M96.5,4.3c-2.1,0-3.4,1.9-4.5,3.4c-1.7,2.2-2.1,5.1-1,7.6l0.8-0.6c-1.3-1.1-1.6-3.7-1.4-5.2
			c0.4-2.6,3.5-4.6,6-4.1c0.3,0,0.5-0.3,0.5-0.6c0-0.2-0.1-0.3-0.3-0.4c-2.9-0.5-5.2,1.2-6.7,3.6c-1.3,2.1-0.6,6,1.2,7.6
			c0.2,0.2,0.5,0.3,0.7,0.2s0.3-0.5,0.2-0.7c-1-2.2-0.7-4.7,0.8-6.6c0.9-1.3,2.1-3,3.8-3C97.3,5.4,97.2,4.3,96.5,4.3z"/>
		<path class="st0" d="M98.4,4.8c0.6-0.4,2.4,0,3,0.3c1.1,0.6,2.1,1.4,2.8,2.5c1.7,2.1,1.5,5.1-0.5,7c-1.3,1.5-2.9,2.7-4.6,3.6
			c-1,0.4-2,0.7-3.1,0.7c-1.1,0-2.1-0.4-2.9-1c1.2,0,2.5-0.1,3.7-0.4c1-0.3,2-0.7,2.8-1.4c1.7-1.4,3.3-3.8,2.8-6.1
			C102,8.7,100,4.8,98.4,4.8z"/>
		<path class="st0" d="M98.6,5.3c2-0.7,4.1,1.3,5.2,2.6c1.7,2,1.1,4.5-0.5,6.3c-2.1,2.4-6.7,5.9-9.8,3.3l-0.3,0.9
			c4.6-0.4,8.4-1.6,9.7-6.6c0.7-2.5-1.8-7.1-4.4-7.6c-0.3,0-0.5,0.3-0.5,0.6c0,0.2,0.1,0.3,0.3,0.4c2.3,0.4,3.8,4.4,3.6,6.4
			c-0.4,4.5-5.3,5.4-8.8,5.7c-0.3,0-0.5,0.3-0.5,0.6c0,0.1,0.1,0.2,0.2,0.3c4.2,3.5,10.8-1.5,12.7-5.5s-3-10-7.3-8.6
			C97.5,4.6,97.9,5.6,98.6,5.3z"/>
		<path class="st0" d="M101.9,3.9c-0.8-0.4-1.7-0.7-2.5-0.9c-1.3-0.4-2.7-0.5-4.1-0.3C93,3.3,90.9,4.2,89,5.5
			c-0.3,0.2-0.8,0.7-1.1,0.8c0.4-1,0.9-1.9,1.7-2.7C90.2,2.7,91,2,91.9,1.5c2.2-1.2,4.8-1.3,7.1-0.2C100.2,1.8,101.3,2.7,101.9,3.9"
			/>
		<path class="st0" d="M102.1,3.4c-5.2-2.9-10-0.3-14.6,2.4l0.8,0.7c1.9-5.3,9.8-7.8,13.1-2.3c0.3,0.6,1.2,0,0.9-0.6
			c-3.7-6.2-12.8-3.6-15,2.4c-0.1,0.3,0,0.6,0.3,0.7c0.2,0.1,0.3,0,0.5,0c4.2-2.5,8.7-5,13.5-2.3C102.3,4.7,102.7,3.7,102.1,3.4
			L102.1,3.4z"/>
		<path class="st0" d="M87.7,7.1c-1.8,0.8-2.7,4.3-2.4,6c0.3,1.3,1.2,2.3,1.8,3.4c0.5,1,1.2,2,2,2.9c1.1,1.4,2.7,2.4,4.3,3
			c1.2,0.4,4.1,0.7,4.9-0.7c-1.1-0.4-2.4-0.5-3.5-0.9c-1-0.3-2-0.8-2.9-1.4c-1.9-1.1-3.2-2.9-3.9-5C87.9,13.7,86.5,8,87.7,7.1z"/>
		<path class="st0" d="M87.4,6.6c-1.8,1.1-2.5,3.3-2.7,5.3c-0.2,2.4,1.7,4.6,2.9,6.5c1.8,2.8,8.1,7.6,11.2,3.7
			c0.2-0.2,0.2-0.6-0.1-0.8c-0.1-0.1-0.2-0.1-0.2-0.1c-4.3-1.3-8.2-2.3-9.9-6.9c-0.6-1.5-1.6-5.6-0.5-6.9c0.2-0.2,0.1-0.6-0.1-0.7
			C87.8,6.5,87.5,6.5,87.4,6.6c-1.7,1.9-0.4,5.8,0.2,7.9c1.4,5.2,6.3,6.5,10.8,7.8L98,21.4c-1.2,1.5-3.7,0.8-5.1,0.2
			c-2.1-0.8-3.7-2.8-4.8-4.6c-1.8-2.8-3.9-7.2-0.1-9.5C88.6,7.2,88,6.3,87.4,6.6z"/>
		<path class="st0" d="M86.4,4.2c-0.9-0.1-1.7,1.1-2.2,1.6c-0.9,1.1-1.7,2.3-2.2,3.6c-1.1,2.3-1.8,5.1-0.8,7.5s3.7,5.1,6.6,4.9
			c-1.5-1.8-2.7-3.8-3.6-5.9c-0.4-1.1-0.7-2.3-0.8-3.5c-0.1-1.4,0.2-2.7,0.7-4c0.3-1,0.7-2,1.2-2.9C85.6,5,85.9,4.5,86.4,4.2z"/>
		<path class="st0" d="M86.4,3.7c-3.8,0.8-5.8,6.9-6.1,10.3c-0.4,4.3,3.6,8.2,7.7,8.3c0.3,0,0.5-0.3,0.5-0.6c0-0.1,0-0.2-0.1-0.2
			c-3.4-4.8-6.7-11.9-1.5-16.9c0.5-0.5-0.3-1.2-0.8-0.7c-5.7,5.4-2.3,13,1.4,18.2l0.4-0.8c-4.7-0.2-7.1-4.9-6.3-9
			C82,10,84,5.3,86.5,4.7C87.1,4.6,87,3.5,86.4,3.7z"/>
		<path class="st0" d="M86.5,22.5c1,0.6,2.1,1.1,3.2,1.5c1.5,0.5,3.1,0.8,4.8,0.8c2.9,0,5.9-1.3,8.5-2.6c1.3-0.6,2.4-1.4,3.6-2.1
			c-0.5,1-1,1.9-1.7,2.7c-0.7,1-1.4,1.9-2.2,2.7c-2.1,1.8-4.8,2.7-7.5,2.4c-2-0.4-4-1.2-5.6-2.4C88.6,25,86.5,23.4,86.5,22.5z"/>
		<path class="st0" d="M86.3,23c7.6,3.9,13.5,1.8,20.5-2.4l-0.8-0.7c-1.9,3.8-4.7,6.9-9,7.5c-2.9,0.4-9-1.9-10-5.1
			c-0.2-0.7-1.2-0.3-1,0.4c1,3.4,6.9,6,10,5.9c5.3-0.2,8.6-3.6,10.9-8.2c0.1-0.3,0-0.6-0.3-0.7c-0.2-0.1-0.4-0.1-0.5,0
			c-2.6,1.6-5.3,3-8.2,4c-4,1.4-7.7,0.1-11.3-1.7C86.1,21.7,85.7,22.7,86.3,23z"/>
		<path class="st0" d="M103,3.4c1.8,1.6,3.2,3.6,4.1,5.8c0.9,2.3,0,4.9-1.6,6.7c-0.8,0.9-1.7,1.8-2.7,2.6c-1,0.6-1.8,1.4-2.6,2.3
			c1.3-0.2,2.5-0.5,3.7-1.1c1.1-0.4,2.1-1,3-1.8c1.8-1.4,2.9-3.6,3-5.9c0.1-2.3-0.7-4.5-2.3-6.2C107.1,5.2,104,2.5,103,3.4z"/>
		<path class="st0" d="M102.6,3.8c3.3,3.3,5.8,7.5,2.5,11.7c-1.5,1.9-3.7,3-5.2,4.9c-0.2,0.2-0.2,0.6,0.1,0.7
			c0.1,0.1,0.2,0.1,0.4,0.1c5.5-0.7,10.3-4.5,10.1-10.3c-0.1-2.7-4-9.8-7.7-8.1c-0.6,0.3-0.3,1.3,0.4,1c1.2-0.5,2.6,1,3.4,1.7
			c1.6,1.4,2.6,3.4,2.8,5.5c0.7,5.1-4.7,8.6-9.2,9.2l0.4,0.9c2.6-3.1,6.1-4.6,7.2-8.8c0.9-3.5-2.3-7.2-4.6-9.3
			C102.8,2.5,102.2,3.3,102.6,3.8z"/>
	</g>
</g>
</svg>
