<svg xmlns="http://www.w3.org/2000/svg" xmlns:xlink="http://www.w3.org/1999/xlink" viewBox="0 0 62.57 62.57"><defs><style>.cls-1{fill:url(#linear-gradient);}.cls-2{fill:#f9fbfc;fill-rule:evenodd;}</style><linearGradient id="linear-gradient" x1="47.76" y1="54.94" x2="17.06" y2="10.86" gradientUnits="userSpaceOnUse"><stop offset="0" stop-color="#5067ae"/><stop offset="1" stop-color="#7f99ff"/></linearGradient></defs><title>Asset 1</title><g id="Layer_2" data-name="Layer 2"><g id="OBJECTS"><rect class="cls-1" width="62.57" height="62.57" rx="13.05"/><path class="cls-2" d="M25.23,31.47V54a.58.58,0,0,0,.59.59h8.36a.58.58,0,0,0,.59-.59V31.1h6.06a.59.59,0,0,0,.59-.54L42,23.67a.58.58,0,0,0-.58-.64H34.77V18.14a2.08,2.08,0,0,1,2.08-2.08h4.67a.59.59,0,0,0,.59-.59V8.58A.59.59,0,0,0,41.52,8h-7.9a8.39,8.39,0,0,0-8.39,8.39V23H21.05a.59.59,0,0,0-.59.59v6.89a.59.59,0,0,0,.59.59h4.18Z"/></g></g></svg>