<svg width="127" height="17" viewBox="0 0 127 17" fill="none" xmlns="http://www.w3.org/2000/svg">
<path fill-rule="evenodd" clip-rule="evenodd" d="M11.0273 3.58203L7.125 17H5.13281L0.527344 0.0898438H2.73047L6.11719 13.8945H6.21094L10.0195 0.0898438H12.1523L15.9609 13.8945H16.0547L19.4414 0.0898438H21.6445L17.0391 17H15.0469L11.1445 3.58203H11.0273ZM37.567 17L35.8677 12.1602H29.1412L27.442 17H25.2271L31.4615 0.0898438H33.5474L39.7818 17H37.567ZM32.4693 2.65625L29.7623 10.3672H35.2467L32.5396 2.65625H32.4693ZM48.0871 17H46.0011V0.0898438H48.0519L57.3097 13.3672H57.4152V0.0898438H59.5011V17H57.4503L48.1925 3.76953H48.0871V17ZM67.0681 0.0898438H72.7517C77.7673 0.0898438 80.7321 3.21875 80.7321 8.53906C80.7321 13.8711 77.779 17 72.7517 17H67.0681V0.0898438ZM69.1775 1.98828V15.1016H72.611C76.4431 15.1016 78.5759 12.7578 78.5759 8.5625C78.5759 4.33203 76.4548 1.98828 72.611 1.98828H69.1775ZM98.1077 15.1016V17H87.6311V0.0898438H98.1077V1.98828H89.7405V7.41406H97.6741V9.28906H89.7405V15.1016H98.1077ZM107.28 1.96484V8.44531H111.323C113.491 8.44531 114.722 7.27344 114.722 5.19922C114.722 3.17188 113.409 1.96484 111.229 1.96484H107.28ZM107.28 10.3086V17H105.171V0.0898438H111.511C114.768 0.0898438 116.901 2.08203 116.901 5.12891C116.901 7.48438 115.624 9.3125 113.503 9.98047L117.417 17H114.944L111.323 10.3086H107.28Z" fill="#333333"/>
<path fill-rule="evenodd" clip-rule="evenodd" d="M124 17C125.657 17 127 15.6569 127 14C127 12.3431 125.657 11 124 11C122.343 11 121 12.3431 121 14C121 15.6569 122.343 17 124 17Z" fill="#EF5D64"/>
</svg>
