<svg xmlns="http://www.w3.org/2000/svg" xmlns:xlink="http://www.w3.org/1999/xlink" viewBox="0 0 62.57 62.57"><defs><style>.cls-1{fill:url(#linear-gradient);}.cls-2{fill:#f9fbfc;}</style><linearGradient id="linear-gradient" x1="31.28" y1="2.16" x2="31.28" y2="64.41" gradientUnits="userSpaceOnUse"><stop offset="0" stop-color="#6936a6"/><stop offset="0.51" stop-color="#d40c0e"/><stop offset="1" stop-color="#edcf30"/></linearGradient></defs><title>Asset 2</title><g id="Layer_2" data-name="Layer 2"><g id="OBJECTS"><rect class="cls-1" width="62.57" height="62.57" rx="13.05"/><circle class="cls-2" cx="44.19" cy="19.55" r="2.86"/><path class="cls-2" d="M31.48,19.28a12,12,0,1,0,12,12A12,12,0,0,0,31.48,19.28Zm0,19.69a7.69,7.69,0,1,1,7.69-7.69A7.7,7.7,0,0,1,31.48,39Z"/><path class="cls-2" d="M41,6.92H21.56A14.65,14.65,0,0,0,6.92,21.56V41A14.65,14.65,0,0,0,21.56,55.65H41A14.66,14.66,0,0,0,55.65,41V21.56A14.65,14.65,0,0,0,41,6.92ZM51.07,41A10.07,10.07,0,0,1,41,51.07H21.56A10.07,10.07,0,0,1,11.5,41V21.56A10.07,10.07,0,0,1,21.56,11.5H41A10.07,10.07,0,0,1,51.07,21.56Z"/></g></g></svg>